SplineFontDB: 1.0
FontName: NimbusSanL-BoldItal
FullName: Nimbus Sans L Bold Italic
FamilyName: Nimbus Sans L
Weight: Bold
Copyright: Copyright (URW)++,Copyright 1999 by (URW)++ Design & Development; Cyrillic glyphs added by Valek Filippov (C) 2001 - 2004
Version: 1.06
ItalicAngle: -12
UnderlinePosition: -111
UnderlineWidth: 69
Ascent: 800
Descent: 200
NeedsXUIDChange: 1
UniqueID: 4140769
FSType: 0
OS2WinAscent: 0
OS2WinAOffset: 1
OS2WinDescent: 0
OS2WinDOffset: 1
HheadAscent: 0
HheadAOffset: 1
HheadDescent: 0
HheadDOffset: 1
ScriptLang: 2
 1 latn 1 dflt 
 1 DFLT 1 dflt 
Encoding: adobestandard
UnicodeInterp: none
DisplaySize: -36
AntiAlias: 1
FitToEm: 1
WinInfo: 30 30 13
BeginPrivate: 7
BlueValues 31 [-23 0 540 560 729 749 701 724]
BlueScale 8 0.039625
StdHW 5 [113]
StdVW 5 [145]
StemSnapH 196 [104 113 127] 
systemdict /internaldict known
{1183615869 systemdict /internaldict get exec
/StemSnapLength 2 copy known { get 3 lt } { pop pop true } ifelse }
{ true } ifelse { pop [113 127] } if
StemSnapV 2 []
ForceBold 5 false
EndPrivate
BeginChars: 767 661
StartChar: exclam
Encoding: 33 33 2
Width: 333
Flags: W
HStem: 0 21G<112 262>
DStem: 143 146 293 146 112 0 262 0 267 726 417 726 222 516 372 516
Fore
417 726 m 1
 372 516 l 1
 265 207 l 1
 198 207 l 1
 222 516 l 1
 267 726 l 1
 417 726 l 1
293 146 m 1
 262 0 l 1
 112 0 l 1
 143 146 l 1
 293 146 l 1
EndSplineSet
EndChar
StartChar: quotedbl
Encoding: 34 34 3
Width: 474
Flags: W
HStem: 709 20G<205 343 441 579>
Fore
343 729 m 1
 315 599 l 1
 246 470 l 1
 190 470 l 1
 177 599 l 1
 205 729 l 1
 343 729 l 1
579 729 m 1
 551 599 l 1
 482 470 l 1
 426 470 l 1
 413 599 l 1
 441 729 l 1
 579 729 l 1
EndSplineSet
EndChar
StartChar: numbersign
Encoding: 35 35 4
Width: 556
Flags: W
HStem: 172 100<59 116 262 324 471 549> 424 100<141 219 365 427 573 639>
DStem: 116 172 222 172 33 -32 138 -32 219 424 325 424 157 272 262 272 324 172 430 172 241 -32 346 -32 331 697 437 697 260 524 365 524 427 424 533 424 365 272 471 272 539 697 645 697 468 524 573 524
Fore
138 -32 m 1
 33 -32 l 1
 116 172 l 1
 39 172 l 1
 60 272 l 1
 157 272 l 1
 219 424 l 1
 120 424 l 1
 142 524 l 1
 260 524 l 1
 331 697 l 1
 437 697 l 1
 365 524 l 1
 468 524 l 1
 539 697 l 1
 645 697 l 1
 573 524 l 1
 660 524 l 1
 639 424 l 1
 533 424 l 1
 471 272 l 1
 570 272 l 1
 549 172 l 1
 430 172 l 1
 346 -32 l 1
 241 -32 l 1
 324 172 l 1
 222 172 l 1
 138 -32 l 1
262 272 m 1
 365 272 l 1
 427 424 l 1
 325 424 l 1
 262 272 l 1
EndSplineSet
EndChar
StartChar: dollar
Encoding: 36 36 5
Width: 556
Flags: W
VStem: 59 137<148 174> 142 130<475 501> 430 143<198 237> 498 130<529 549>
DStem: 239 -21 306 -21 216 -126 284 -126 307 299 371 282 261 86 329 86 372 608 440 608 334 427 397 407
Fore
623 498 m 1x50
 495 498 l 1
 497 517 498 526 498 538 c 0x50
 498 576 476 602 440 608 c 1
 397 407 l 1
 452 390 486 374 514 353 c 0
 552 324 573 283 573 237 c 0
 573 149 521 61 445 19 c 0
 406 -2 362 -15 306 -21 c 1
 284 -126 l 1
 216 -126 l 1
 239 -21 l 1
 123 -9 59 51 59 148 c 0
 59 166 61 182 67 207 c 1
 197 207 l 1
 196 188 196 181 196 174 c 0xa0
 196 123 217 95 261 86 c 1
 307 299 l 1
 196 327 142 384 142 475 c 0
 142 556 191 634 269 674 c 0
 307 694 342 704 394 709 c 1
 405 763 l 1
 473 763 l 1
 461 709 l 1
 517 704 551 692 578 669 c 0
 610 641 628 597 628 547 c 0
 628 532 627 520 623 498 c 1x50
334 427 m 1
 372 608 l 1
 346 603 333 599 319 589 c 0
 291 570 272 535 272 501 c 0
 272 468 293 443 334 427 c 1
371 282 m 1
 329 86 l 1
 393 101 430 142 430 198 c 0x20
 430 238 410 266 371 282 c 1
EndSplineSet
EndChar
StartChar: percent
Encoding: 37 37 6
Width: 889
Flags: W
HStem: -20 98<678 700> 246 98<729 750> 337 98<280 302> 603 98<331 352>
VStem: 129 100<482 501> 405 100<536 557> 527 100<125 144> 803 100<179 200>
DStem: 756 709 833 709 206 -20 282 -20
Fore
756 709 m 1x9f
 833 709 l 1
 282 -20 l 1
 206 -20 l 1
 756 709 l 1x9f
352 701 m 0
 441 701 505 640 505 557 c 0
 505 442 398 337 280 337 c 0xbf
 194 337 129 399 129 482 c 0
 129 595 237 701 352 701 c 0
331 603 m 0
 278 603 229 554 229 501 c 0
 229 464 261 435 302 435 c 0
 356 435 405 483 405 536 c 0
 405 574 373 603 331 603 c 0
750 344 m 0xdf
 839 344 903 283 903 200 c 0
 903 85 796 -20 678 -20 c 0
 592 -20 527 42 527 125 c 0
 527 238 635 344 750 344 c 0xdf
729 246 m 0
 676 246 627 197 627 144 c 0
 627 107 659 78 700 78 c 0
 754 78 803 126 803 179 c 0
 803 217 771 246 729 246 c 0
EndSplineSet
EndChar
StartChar: ampersand
Encoding: 38 38 7
Width: 722
Flags: W
HStem: -23 116<287 317> 615 108<448 471>
VStem: 89 137<156 187> 246 137<523 552> 499 125<574 605>
DStem: 347 319 465 392 446 152 547 255
Fore
607 373 m 1
 720 373 l 1
 709 300 661 213 602 160 c 1
 696 0 l 1
 536 0 l 1
 499 60 l 1
 407 -6 364 -23 287 -23 c 0
 163 -23 89 44 89 156 c 0
 89 231 126 297 195 344 c 0
 226 366 249 378 299 401 c 1
 263 452 246 492 246 523 c 0
 246 630 351 723 471 723 c 0
 562 723 624 676 624 605 c 0
 624 560 603 508 571 471 c 0
 549 446 519 424 465 392 c 1
 547 255 l 1
 581 286 596 316 607 373 c 1
347 319 m 1
 295 290 l 2
 246 262 226 233 226 187 c 0
 226 135 266 93 315 93 c 0
 349 93 380 107 446 152 c 1
 347 319 l 1
419 470 m 1
 471 497 499 533 499 574 c 0
 499 599 480 615 448 615 c 0
 410 615 383 589 383 552 c 0
 383 534 388 524 419 470 c 1
EndSplineSet
EndChar
StartChar: quoteright
Encoding: 39 8217 8
Width: 278
Flags: W
HStem: 709 20G<220 356>
Fore
220 729 m 1
 356 729 l 1
 333 620 l 1
 321 532 259 476 165 469 c 1
 175 515 l 1
 233 525 265 554 274 604 c 1
 193 604 l 1
 220 729 l 1
EndSplineSet
KernsSLIF: 121 -9 1 0 119 -4 1 0 118 -11 1 0 116 -11 1 0 115 -27 1 0 114 -20 1 0 46 -51 1 0 111 -34 1 0 100 -30 1 0 44 -53 1 0 262 -80 1 0 256 -80 1 0 257 -80 1 0 225 -72 1 0 65 -80 1 0
EndChar
StartChar: parenleft
Encoding: 40 40 9
Width: 333
Flags: W
HStem: 709 20G<358 458>
VStem: 84 119<103 137>
Fore
358 729 m 1
 458 729 l 1
 387 632 351 577 315 513 c 0
 240 377 203 245 203 112 c 0
 203 20 217 -56 261 -200 c 1
 161 -200 l 1
 110 -83 84 25 84 122 c 0
 84 324 168 510 358 729 c 1
EndSplineSet
EndChar
StartChar: parenright
Encoding: 41 41 10
Width: 333
Flags: W
HStem: 709 20G<176 276>
VStem: 237 119<391 441>
Fore
79 -200 m 1
 -21 -200 l 1
 56 -96 88 -48 124 16 c 0
 200 152 237 284 237 416 c 0
 237 509 223 582 176 729 c 1
 276 729 l 1
 331 608 356 504 356 406 c 0
 356 268 310 123 226 -9 c 0
 190 -64 136 -135 79 -200 c 1
EndSplineSet
EndChar
StartChar: asterisk
Encoding: 42 42 11
Width: 389
Flags: W
HStem: 709 20G<307 379>
DStem: 246 544 295 501 159 450 208 407 295 501 362 544 342 407 409 450 307 729 379 729 283 613 354 613
Fore
246 544 m 1
 145 580 l 1
 182 649 l 1
 283 613 l 1
 307 729 l 1
 379 729 l 1
 354 613 l 1
 471 649 l 1
 478 579 l 1
 362 544 l 1
 409 450 l 1
 342 407 l 1
 295 501 l 1
 208 407 l 1
 159 450 l 1
 246 544 l 1
EndSplineSet
EndChar
StartChar: plus
Encoding: 43 43 12
Width: 584
Flags: W
HStem: -10 21G<230 349> 172 120<111 269 413 571>
DStem: 269 172 388 172 230 -10 349 -10 333 473 452 473 294 292 413 292
Fore
596 292 m 1
 571 172 l 1
 388 172 l 1
 349 -10 l 1
 230 -10 l 1
 269 172 l 1
 87 172 l 1
 112 292 l 1
 294 292 l 1
 333 473 l 1
 452 473 l 1
 413 292 l 1
 596 292 l 1
EndSplineSet
EndChar
StartChar: comma
Encoding: 44 44 13
Width: 278
Flags: W
HStem: -20 20G<64 150>
Fore
95 146 m 1
 245 146 l 1
 216 9 l 1
 197 -101 137 -158 27 -174 c 1
 39 -118 l 1
 101 -107 137 -68 150 0 c 1
 64 0 l 1
 95 146 l 1
EndSplineSet
KernsSLIF: 39 -35 1 0 186 -39 1 0 49 -79 1 0
EndChar
StartChar: hyphen
Encoding: 45 45 14
Width: 333
Flags: W
HStem: 207 135<98 342>
Fore
371 342 m 1
 342 207 l 1
 70 207 l 1
 99 342 l 1
 371 342 l 1
EndSplineSet
KernsSLIF: 89 -71 1 0 87 -15 1 0 86 -34 1 0 84 -64 1 0 262 -7 1 0 256 -7 1 0 257 -7 1 0 225 2 1 0 65 -7 1 0
EndChar
StartChar: period
Encoding: 46 46 15
Width: 278
Flags: W
HStem: 0 21G<64 214>
DStem: 95 146 245 146 64 0 214 0
Fore
245 146 m 1
 214 0 l 1
 64 0 l 1
 95 146 l 1
 245 146 l 1
EndSplineSet
KernsSLIF: 39 -35 1 0 186 -39 1 0 49 -80 1 0
EndChar
StartChar: slash
Encoding: 47 47 16
Width: 278
Flags: W
HStem: -14 21G<-1 66> 694 20G<360 427>
DStem: 360 714 427 714 -1 -14 66 -14
Fore
360 714 m 1
 427 714 l 1
 66 -14 l 1
 -1 -14 l 1
 360 714 l 1
EndSplineSet
EndChar
StartChar: zero
Encoding: 48 48 17
Width: 556
Flags: W
HStem: -23 122<271 300> 612 112<394 421>
VStem: 81 143<168 202> 471 143<504 543>
Fore
421 724 m 0
 541 724 614 649 614 526 c 0
 614 425 576 251 534 160 c 0
 479 41 387 -23 271 -23 c 0
 153 -23 81 53 81 176 c 0
 81 277 119 449 161 541 c 0
 216 659 308 724 421 724 c 0
394 612 m 0
 359 612 330 593 306 555 c 0
 273 502 224 280 224 183 c 0
 224 132 254 99 300 99 c 0
 359 99 393 138 421 237 c 0
 448 332 471 466 471 528 c 0
 471 579 441 612 394 612 c 0
EndSplineSet
KernsSLIF: 55 -21 1 0 49 -29 1 0 52 -3 1 0
EndChar
StartChar: one
Encoding: 49 49 18
Width: 556
Flags: W
HStem: 0 21G<238 378> 489 93<192 223.26> 689 20G<436 529>
DStem: 342 489 529 709 238 0 378 0
Fore
342 489 m 1
 172 489 l 1
 192 582 l 1
 314 582 396 625 436 709 c 1
 529 709 l 1
 378 0 l 1
 238 0 l 1
 342 489 l 1
EndSplineSet
KernsSLIF: 48 -44 1 0 50 -56 1 0 51 -53 1 0 54 -48 1 0 55 -72 1 0 46 -49 1 0 49 -92 1 0 57 -47 1 0 52 -70 1 0 53 -50 1 0 56 -47 1 0 44 -51 1 0
EndChar
StartChar: two
Encoding: 50 50 19
Width: 556
Flags: W
HStem: 0 125<238 512> 612 112<397 421>
VStem: 485 143<530 552>
Fore
538 125 m 1
 512 0 l 1
 30 0 l 1
 65 132 114 194 253 277 c 1
 367 348 400 371 431 404 c 1
 465 438 485 486 485 532 c 0
 485 582 453 612 399 612 c 0
 330 612 285 559 272 462 c 1
 138 462 l 1
 164 630 266 724 421 724 c 0
 551 724 628 660 628 552 c 0
 628 489 605 428 563 378 c 0
 531 340 494 311 411 259 c 0
 292 184 263 162 238 125 c 1
 538 125 l 1
EndSplineSet
KernsSLIF: 55 -12 1 0 49 -24 1 0 52 -16 1 0
EndChar
StartChar: three
Encoding: 51 51 20
Width: 556
Flags: W
HStem: -23 122<272 302> 317 94<304 324> 612 112<386 413>
VStem: 67 143<151 176> 422 143<230 257> 465 148<542 573>
Fore
284 317 m 1xf8
 304 411 l 1
 316 411 l 2
 406 411 465 463 465 542 c 0
 465 583 433 612 388 612 c 0
 348 612 315 593 296 561 c 0
 286 544 280 525 271 486 c 1
 142 486 l 1
 157 564 175 607 212 647 c 0
 258 697 328 724 413 724 c 0
 540 724 613 669 613 573 c 0xf4
 613 494 573 429 493 380 c 1
 542 350 565 311 565 257 c 0
 565 193 540 122 500 72 c 0
 449 10 370 -23 272 -23 c 0
 142 -23 67 41 67 151 c 0
 67 170 69 185 73 208 c 1
 209 208 l 1
 210 198 l 1
 210 176 l 1
 211 127 243 99 300 99 c 0
 367 99 422 159 422 230 c 0
 422 271 401 300 365 310 c 0
 342 316 333 317 284 317 c 1xf8
EndSplineSet
KernsSLIF: 55 -19 1 0 49 -34 1 0 52 -2 1 0
EndChar
StartChar: four
Encoding: 52 52 21
Width: 556
Flags: W
HStem: 0 21G<308 448> 157 116<182 342 506 555> 689 20G<434 599>
DStem: 342 157 482 157 308 0 448 0 431 577 599 709 366 273 506 273 434 709 431 577 82 275 182 273
Fore
580 273 m 1
 555 157 l 1
 482 157 l 1
 448 0 l 1
 308 0 l 1
 342 157 l 1
 57 157 l 1
 82 275 l 1
 434 709 l 1
 599 709 l 1
 506 273 l 1
 580 273 l 1
366 273 m 1
 431 577 l 1
 182 273 l 1
 366 273 l 1
EndSplineSet
KernsSLIF: 55 -33 1 0 49 -55 1 0
EndChar
StartChar: five
Encoding: 53 53 22
Width: 556
Flags: W
HStem: -23 122<259 288> 367 112<339 396> 584 125<258 614>
VStem: 59 141<141 163> 429 143<275 300>
DStem: 258 709 318 584 112 314 264 436
Fore
641 709 m 1
 614 584 l 1
 318 584 l 1
 264 436 l 1
 311 467 349 479 396 479 c 0
 505 479 572 410 572 300 c 0
 572 231 548 158 506 101 c 0
 448 21 360 -23 259 -23 c 0
 139 -23 59 42 59 141 c 0
 59 154 60 165 64 185 c 1
 202 185 l 1
 201 176 200 168 200 163 c 0
 200 124 235 99 288 99 c 0
 369 99 429 175 429 276 c 0
 429 334 397 367 339 367 c 0
 297 367 260 348 238 314 c 1
 112 314 l 1
 258 709 l 1
 641 709 l 1
EndSplineSet
KernsSLIF: 55 -17 1 0 49 -37 1 0 52 -3 1 0
EndChar
StartChar: six
Encoding: 54 54 23
Width: 556
Flags: W
HStem: -23 122<284 303> 355 112<352 409> 548 21G<494 624> 612 112<414 443>
VStem: 85 130<171 202> 434 143<269 300>
Fore
624 548 m 1
 494 548 l 1
 485 594 462 612 414 612 c 0
 357 612 320 582 292 512 c 0
 279 480 277 473 260 411 c 1
 310 449 357 467 409 467 c 0
 514 467 577 404 577 300 c 0
 577 229 549 148 503 88 c 0
 450 17 370 -23 284 -23 c 0
 163 -23 85 53 85 171 c 0
 85 293 132 477 185 564 c 0
 250 670 336 724 443 724 c 0
 556 724 625 666 625 571 c 0
 625 566 625 557 624 548 c 1
352 355 m 0
 278 355 215 278 215 188 c 0
 215 136 250 99 301 99 c 0
 374 99 434 176 434 269 c 0
 434 320 401 355 352 355 c 0
EndSplineSet
KernsSLIF: 55 -13 1 0 49 -29 1 0 52 -1 1 0
EndChar
StartChar: seven
Encoding: 55 55 24
Width: 556
Flags: W
HStem: 0 21G<131 273> 584 125<177 504>
Fore
679 709 m 1
 656 599 l 1
 551 491 l 1
 404 328 326 191 273 0 c 1
 131 0 l 1
 211 242 309 396 504 584 c 1
 151 584 l 1
 178 709 l 1
 679 709 l 1
EndSplineSet
KernsSLIF: 50 -11 1 0 51 -7 1 0 54 -21 1 0 55 2 1 0 46 -94 1 0 49 -21 1 0 52 -70 1 0 53 -28 1 0 56 -10 1 0 44 -95 1 0 58 -71 1 0
EndChar
StartChar: eight
Encoding: 56 56 25
Width: 556
Flags: W
HStem: -23 122<276 301> 330 95<342 363> 612 112<397 422>
VStem: 60 143<155 180> 156 122<488 506> 432 143<232 255> 490 130<540 570>
Fore
491 386 m 1xea
 552 349 575 313 575 253 c 0
 575 185 542 110 489 59 c 0
 435 6 359 -23 276 -23 c 0
 143 -23 60 46 60 155 c 0xf4
 60 210 82 269 119 313 c 0
 145 343 171 361 221 386 c 1
 174 422 156 452 156 495 c 0
 156 620 277 724 422 724 c 0
 539 724 620 661 620 570 c 0
 620 522 598 473 560 436 c 1
 544 419 525 406 491 386 c 1xea
398 612 m 0
 331 612 278 563 278 500 c 0
 278 455 312 425 363 425 c 0
 433 425 490 476 490 540 c 0xea
 490 583 453 612 398 612 c 0
342 330 m 0
 264 330 203 264 203 180 c 0
 203 133 243 99 297 99 c 0
 376 99 432 161 432 247 c 0xf4
 432 298 397 330 342 330 c 0
EndSplineSet
KernsSLIF: 55 -15 1 0 49 -32 1 0 52 2 1 0
EndChar
StartChar: nine
Encoding: 57 57 26
Width: 556
Flags: W
HStem: -23 122<248 285> 228 116<289 337> 612 112<389 413>
VStem: 68 138<132 153> 120 137<403 431> 481 130<519 521>
Fore
72 165 m 1xf4
 207 165 l 1
 206 160 206 156 206 153 c 0xf4
 206 121 238 99 285 99 c 0
 335 99 378 129 402 182 c 0
 414 210 425 243 436 291 c 1
 380 243 345 228 289 228 c 0
 185 228 120 295 120 403 c 0xec
 120 582 249 724 413 724 c 0
 533 724 611 643 611 519 c 0
 611 398 568 241 507 135 c 0
 447 31 358 -23 248 -23 c 0
 141 -23 68 40 68 132 c 0
 68 142 69 149 72 165 c 1xf4
389 612 m 0
 315 612 257 532 257 431 c 0xec
 257 378 288 344 337 344 c 0
 417 344 481 422 481 519 c 0
 481 576 445 612 389 612 c 0
EndSplineSet
KernsSLIF: 55 -23 1 0 49 -30 1 0 52 -6 1 0
EndChar
StartChar: colon
Encoding: 58 58 27
Width: 333
Flags: W
HStem: 0 21G<113 263>
DStem: 144 146 294 146 113 0 263 0 224 520 374 520 193 374 343 374
Fore
294 146 m 1
 263 0 l 1
 113 0 l 1
 144 146 l 1
 294 146 l 1
374 520 m 1
 343 374 l 1
 193 374 l 1
 224 520 l 1
 374 520 l 1
EndSplineSet
EndChar
StartChar: semicolon
Encoding: 59 59 28
Width: 333
Flags: W
HStem: -20 20G<113 199>
DStem: 224 520 374 520 193 374 343 374
Fore
144 146 m 1
 294 146 l 1
 265 9 l 1
 246 -101 186 -158 76 -174 c 1
 88 -118 l 1
 150 -107 186 -68 199 0 c 1
 113 0 l 1
 144 146 l 1
374 520 m 1
 343 374 l 1
 193 374 l 1
 224 520 l 1
 374 520 l 1
EndSplineSet
EndChar
StartChar: less
Encoding: 60 60 29
Width: 584
Flags: W
DStem: 77 172 263 232 527 -10 555 121 630 474 603 345 103 293 263 232
Fore
630 474 m 1
 603 345 l 1
 263 232 l 1
 555 121 l 1
 527 -10 l 1
 77 172 l 1
 103 293 l 1
 630 474 l 1
EndSplineSet
EndChar
StartChar: equal
Encoding: 61 61 30
Width: 584
Flags: W
HStem: 52 120<85 546> 292 120<136 597>
Fore
622 412 m 1
 597 292 l 1
 112 292 l 1
 137 412 l 1
 622 412 l 1
571 172 m 1
 546 52 l 1
 61 52 l 1
 86 172 l 1
 571 172 l 1
EndSplineSet
EndChar
StartChar: greater
Encoding: 62 62 31
Width: 584
Flags: W
DStem: 113 343 141 474 405 232 591 292 405 232 565 171 65 119 38 -10
Fore
38 -10 m 1
 65 119 l 1
 405 232 l 1
 113 343 l 1
 141 474 l 1
 591 292 l 1
 565 171 l 1
 38 -10 l 1
EndSplineSet
EndChar
StartChar: question
Encoding: 63 63 32
Width: 611
Flags: W
HStem: 0 21G<237 387> 620 124<430 456>
VStem: 529 143<533 566>
DStem: 268 146 418 146 237 0 387 0
Fore
414 201 m 1
 292 201 l 1
 299 277 338 333 432 399 c 0
 488 438 497 447 512 473 c 0
 523 492 529 513 529 533 c 0
 529 584 491 620 438 620 c 0
 370 620 321 569 304 481 c 1
 168 481 l 1
 187 565 209 614 248 657 c 0
 301 714 372 744 456 744 c 0
 520 744 574 729 609 700 c 1
 649 669 672 618 672 566 c 0
 672 512 652 452 621 413 c 0
 601 386 564 356 505 320 c 0
 437 278 428 267 414 201 c 1
418 146 m 1
 387 0 l 1
 237 0 l 1
 268 146 l 1
 418 146 l 1
EndSplineSet
EndChar
StartChar: at
Encoding: 64 64 33
Width: 975
Flags: W
HStem: -137 83<451 490> 53 83<438 468> 662 83<639 674>
VStem: 73 100<173 200> 301 100<189 215> 939 93<422 441>
Fore
750 508 m 1
 840 508 l 1
 704 228 l 1
 687 195 685 188 685 174 c 0
 685 153 701 139 724 139 c 0
 766 139 825 179 870 237 c 0
 913 293 939 363 939 425 c 0
 939 476 918 526 876 571 c 0
 817 634 746 662 641 662 c 0
 490 662 360 596 272 475 c 0
 210 389 173 286 173 196 c 0
 173 50 298 -54 476 -54 c 0
 539 -54 594 -43 688 -13 c 1
 700 -92 l 1
 624 -123 548 -137 453 -137 c 0
 327 -137 236 -107 168 -42 c 0
 107 15 73 96 73 181 c 0
 73 311 133 450 235 557 c 0
 349 677 506 745 670 745 c 0
 798 745 896 703 965 618 c 0
 1010 564 1032 504 1032 439 c 0
 1032 349 1002 264 944 193 c 0
 873 106 787 56 705 56 c 0
 649 56 612 80 597 126 c 1
 548 78 493 53 438 53 c 0
 357 53 301 109 301 189 c 0
 301 249 335 324 391 390 c 0
 460 470 548 518 626 518 c 0
 676 518 703 499 723 449 c 1
 750 508 l 1
606 446 m 0
 520 451 401 317 401 215 c 0
 401 168 428 136 468 136 c 0
 513 136 565 169 608 227 c 0
 646 277 671 335 671 376 c 0
 671 416 645 444 606 446 c 0
EndSplineSet
EndChar
StartChar: A
Encoding: 65 65 34
Width: 722
Flags: W
HStem: 0 21G<26 179 550 703> 147 125<329 532> 709 20G<433 606>
DStem: 433 729 483 555 26 0 329 272 433 729 260 147 26 0 179 0 483 555 606 729 518 272 703 0 532 147 606 729 550 0 703 0
Fore
532 147 m 1
 260 147 l 1
 179 0 l 1
 26 0 l 1
 433 729 l 1
 606 729 l 1
 703 0 l 1
 550 0 l 1
 532 147 l 1
518 272 m 1
 483 555 l 1
 329 272 l 1
 518 272 l 1
EndSplineSet
KernsSLIF: 121 -41 0 0 119 -28 0 0 118 -42 0 0 117 -17 0 0 116 -21 0 0 39 -67 0 0 186 -71 0 0 113 -13 0 0 46 13 0 0 111 -19 0 0 45 2 0 0 172 -44 0 0 171 -48 0 0 103 -20 0 0 101 -10 0 0 100 -17 0 0 44 9 0 0 332 -17 0 0 99 -17 0 0 98 -10 0 0 97 -11 0 0 89 -96 0 0 87 -57 0 0 86 -74 0 0 300 -37 0 0 298 -37 0 0 301 -37 0 0 299 -37 0 0 85 -37 0 0 84 -91 0 0 81 -39 0 0 286 -37 0 0 79 -37 0 0 71 -38 0 0 264 -36 0 0 67 -36 0 0
EndChar
StartChar: B
Encoding: 66 66 35
Width: 722
Flags: W
HStem: 0 125<259 439> 314 125<325 499> 604 125<237 547>
VStem: 568 148<239 257> 613 149<542 571>
DStem: 237 729 360 604 82 0 325 439 237 729 299 314 82 0 259 125
Fore
82 0 m 1xf0
 237 729 l 1
 562 729 l 2
 636 729 686 712 721 676 c 0
 747 649 762 610 762 571 c 0xe8
 762 502 721 438 645 388 c 1
 696 348 716 310 716 255 c 0
 716 196 684 126 635 78 c 0
 579 24 510 0 410 0 c 2
 82 0 l 1xf0
325 439 m 1
 489 439 l 2
 541 439 563 446 585 471 c 0
 602 490 613 517 613 542 c 0
 613 585 586 604 524 604 c 2
 360 604 l 1
 325 439 l 1
259 125 m 1
 437 125 l 2
 494 125 522 137 545 171 c 0
 559 192 568 220 568 245 c 0xf0
 568 292 539 314 477 314 c 2
 299 314 l 1
 259 125 l 1
EndSplineSet
KernsSLIF: 89 -63 0 0 87 -30 0 0 86 -46 0 0 233 -17 0 0 288 -18 0 0 286 -18 0 0 289 -18 0 0 287 -18 0 0 234 -9 0 0 79 -18 0 0 261 -41 0 0 262 -41 0 0 256 -41 0 0 259 -41 0 0 257 -41 0 0 225 -30 0 0 65 -41 0 0
EndChar
StartChar: C
Encoding: 67 67 36
Width: 722
Flags: W
HStem: -23 128<380 412> 613 128<506 535>
VStem: 107 149<235 266> 648 145<482 532>
Fore
789 482 m 1
 648 482 l 1
 648 521 644 540 631 560 c 0
 610 594 569 613 516 613 c 0
 436 613 374 578 327 504 c 0
 282 434 256 346 256 264 c 0
 256 159 306 105 403 105 c 0
 499 105 570 157 599 249 c 1
 742 249 l 1
 698 78 564 -23 382 -23 c 0
 211 -23 107 75 107 235 c 0
 107 364 151 499 222 587 c 0
 303 688 410 741 533 741 c 0
 688 741 793 656 793 532 c 0
 793 521 792 510 789 482 c 1
EndSplineSet
KernsSLIF: 286 -12 0 0 287 -12 0 0 79 -12 0 0 75 -4 0 0 72 -1 0 0 262 -34 0 0 256 -34 0 0 257 -34 0 0 225 -23 0 0 65 -34 0 0
EndChar
StartChar: D
Encoding: 68 68 37
Width: 722
Flags: W
HStem: 0 125<254 398> 604 125<232 510>
VStem: 627 149<447 481>
DStem: 232 729 355 604 77 0 254 125
Fore
77 0 m 1
 232 729 l 1
 517 729 l 2
 698 729 776 654 776 479 c 0
 776 361 735 238 664 140 c 0
 591 39 507 0 362 0 c 2
 77 0 l 1
254 125 m 1
 388 125 l 2
 475 125 524 153 567 228 c 0
 601 287 627 390 627 469 c 0
 627 560 582 604 490 604 c 2
 355 604 l 1
 254 125 l 1
EndSplineSet
KernsSLIF: 89 -62 0 0 88 -40 0 0 87 -20 0 0 86 -37 0 0 84 -24 0 0 74 -4 0 0 261 -40 0 0 262 -40 0 0 258 -40 0 0 256 -40 0 0 259 -40 0 0 257 -40 0 0 65 -40 0 0
EndChar
StartChar: E
Encoding: 69 69 38
Width: 667
Flags: W
HStem: 0 125<256 624> 314 125<322 645> 604 125<234 735>
DStem: 234 729 357 604 79 0 322 439 234 729 296 314 79 0 256 125
Fore
296 314 m 1
 256 125 l 1
 651 125 l 1
 624 0 l 1
 79 0 l 1
 234 729 l 1
 762 729 l 1
 735 604 l 1
 357 604 l 1
 322 439 l 1
 671 439 l 1
 645 314 l 1
 296 314 l 1
EndSplineSet
EndChar
StartChar: F
Encoding: 70 70 39
Width: 611
Flags: W
HStem: 0 21G<74 224> 314 125<317 610> 604 125<229 714>
DStem: 229 729 352 604 74 0 317 439 229 729 291 314 74 0 224 0
Fore
291 314 m 1
 224 0 l 1
 74 0 l 1
 229 729 l 1
 741 729 l 1
 714 604 l 1
 352 604 l 1
 317 439 l 1
 637 439 l 1
 610 314 l 1
 291 314 l 1
EndSplineSet
KernsSLIF: 117 -32 0 0 114 -35 0 0 46 -82 0 0 249 -24 0 0 250 -16 0 0 351 -21 0 0 352 -21 0 0 111 -21 0 0 106 -17 0 0 105 -15 0 0 45 4 0 0 335 -12 0 0 101 -12 0 0 44 -84 0 0 328 -23 0 0 241 -26 0 0 322 -23 0 0 323 -23 0 0 97 -23 0 0 286 -24 0 0 79 -24 0 0 74 -33 0 0 261 -68 0 0 262 -68 0 0 258 -68 0 0 256 -68 0 0 259 -68 0 0 257 -68 0 0 65 -68 0 0
EndChar
StartChar: G
Encoding: 71 71 40
Width: 778
Flags: W
HStem: -23 128<395 426> 267 125<502 642> 613 128<517 547>
VStem: 107 149<262 286>
Fore
795 392 m 1
 711 -2 l 1
 621 -2 l 1
 628 88 l 1
 554 9 488 -23 395 -23 c 0
 219 -23 107 88 107 262 c 0
 107 378 155 505 233 596 c 0
 315 691 424 741 547 741 c 0
 710 741 819 655 819 529 c 0
 819 521 818 510 817 496 c 1
 679 496 l 1
 671 571 614 613 519 613 c 0
 434 613 366 575 318 501 c 0
 282 446 256 355 256 284 c 0
 256 181 328 105 426 105 c 0
 484 105 543 130 588 175 c 0
 615 201 629 226 642 267 c 1
 476 267 l 1
 503 392 l 1
 795 392 l 1
EndSplineSet
KernsSLIF: 89 -65 0 0 87 -25 0 0 86 -41 0 0 84 -28 0 0 261 -17 0 0 262 -17 0 0 258 -17 0 0 256 -17 0 0 259 -17 0 0 257 -17 0 0 225 -5 0 0 65 -17 0 0
EndChar
StartChar: H
Encoding: 72 72 41
Width: 722
Flags: W
HStem: 0 21G<68 218 507 657> 331 125<315 577> 709 20G<223 373 661 812>
DStem: 223 729 373 729 68 0 315 456 223 729 288 331 68 0 218 0 577 331 812 729 507 0 657 0 661 729 812 729 603 456 657 0
Fore
577 331 m 1
 288 331 l 1
 218 0 l 1
 68 0 l 1
 223 729 l 1
 373 729 l 1
 315 456 l 1
 603 456 l 1
 661 729 l 1
 812 729 l 1
 657 0 l 1
 507 0 l 1
 577 331 l 1
EndSplineSet
EndChar
StartChar: I
Encoding: 73 73 42
Width: 278
Flags: W
HStem: 0 21G<63 213> 709 20G<218 368>
DStem: 218 729 368 729 63 0 213 0
Fore
368 729 m 1
 213 0 l 1
 63 0 l 1
 218 729 l 1
 368 729 l 1
EndSplineSet
EndChar
StartChar: J
Encoding: 74 74 43
Width: 556
Flags: W
HStem: -23 128<247 277> 709 20G<491 641>
VStem: 59 152<133 159>
DStem: 491 729 641 729 376 190 526 190
Fore
491 729 m 1
 641 729 l 1
 526 190 l 2
 510 114 475 55 426 23 c 0
 383 -5 313 -23 247 -23 c 0
 130 -23 59 36 59 133 c 0
 59 154 61 176 66 198 c 1
 81 270 l 1
 231 270 l 1
 215 193 l 1
 212 180 211 169 211 159 c 0
 211 127 238 105 277 105 c 0
 330 105 365 135 376 190 c 1
 491 729 l 1
EndSplineSet
KernsSLIF: 262 -38 0 0 256 -38 0 0 225 -29 0 0 65 -38 0 0
EndChar
StartChar: K
Encoding: 75 75 44
Width: 722
Flags: W
HStem: 0 21G<74 224 538 717> 709 20G<229 379 665 843>
DStem: 229 729 379 729 74 0 311 409 229 729 274 234 74 0 224 0 365 314 482 410 538 0 717 0 665 729 843 729 311 409 482 410
Fore
274 234 m 1
 224 0 l 1
 74 0 l 1
 229 729 l 1
 379 729 l 1
 311 409 l 1
 665 729 l 1
 843 729 l 1
 482 410 l 1
 717 0 l 1
 538 0 l 1
 365 314 l 1
 274 234 l 1
EndSplineSet
KernsSLIF: 121 -74 0 0 362 -35 0 0 117 -35 0 0 351 -45 0 0 352 -45 0 0 111 -45 0 0 45 -52 0 0 101 -38 0 0 328 -17 0 0 241 -17 0 0 322 -17 0 0 97 -17 0 0 84 5 0 0 83 -45 0 0 286 -60 0 0 287 -60 0 0 234 -51 0 0 79 -60 0 0 71 -61 0 0 67 -59 0 0
EndChar
StartChar: L
Encoding: 76 76 45
Width: 611
Flags: W
HStem: 0 125<257 579> 709 20G<235 385>
DStem: 235 729 385 729 80 0 257 125
Fore
385 729 m 1
 257 125 l 1
 606 125 l 1
 579 0 l 1
 80 0 l 1
 235 729 l 1
 385 729 l 1
EndSplineSet
KernsSLIF: 121 -64 0 0 362 -17 0 0 117 -17 0 0 39 -143 0 0 186 -147 0 0 45 -20 0 0 89 -121 0 0 87 -79 0 0 86 -102 0 0 298 -35 0 0 85 -35 0 0 84 -104 0 0 83 -14 0 0 290 -39 0 0 288 -39 0 0 286 -39 0 0 289 -39 0 0 287 -39 0 0 79 -39 0 0 71 -40 0 0 264 -36 0 0 67 -35 0 0 225 12 0 0
EndChar
StartChar: M
Encoding: 77 77 46
Width: 833
Flags: W
HStem: 0 21G<66 208 347 497 634 776> 709 20G<221 438 712 931>
DStem: 221 729 340 619 66 0 208 0 766 619 931 729 634 0 776 0
Fore
497 0 m 1
 347 0 l 1
 340 619 l 1
 208 0 l 1
 66 0 l 1
 221 729 l 1
 438 729 l 1
 458 169 l 1
 712 729 l 1
 931 729 l 1
 776 0 l 1
 634 0 l 1
 766 619 l 1
 497 0 l 1
EndSplineSet
EndChar
StartChar: N
Encoding: 78 78 47
Width: 722
Flags: W
HStem: 0 21G<68 210 513 661> 709 20G<223 373 674 816>
DStem: 223 729 321 523 68 0 210 0 321 523 373 729 513 0 565 214 674 729 816 729 565 214 661 0
Fore
816 729 m 1
 661 0 l 1
 513 0 l 1
 321 523 l 1
 210 0 l 1
 68 0 l 1
 223 729 l 1
 373 729 l 1
 565 214 l 1
 674 729 l 1
 816 729 l 1
EndSplineSet
KernsSLIF: 362 4 0 0 117 4 0 0 46 8 0 0 249 2 0 0 351 1 0 0 352 1 0 0 111 1 0 0 335 10 0 0 101 10 0 0 44 7 0 0 328 5 0 0 241 4 0 0 322 5 0 0 323 5 0 0 97 5 0 0 286 -2 0 0 287 -2 0 0 79 -2 0 0 71 -2 0 0 264 -1 0 0 67 -1 0 0 262 -15 0 0 256 -15 0 0 257 -15 0 0 225 -2 0 0 65 -15 0 0
EndChar
StartChar: O
Encoding: 79 79 48
Width: 778
Flags: W
HStem: -23 128<395 427> 613 128<517 540>
VStem: 106 149<259 284> 679 149<424 457>
Fore
538 741 m 0
 721 741 828 635 828 455 c 0
 828 337 783 215 705 124 c 0
 619 22 523 -23 395 -23 c 0
 217 -23 106 86 106 261 c 0
 106 376 153 502 231 594 c 0
 313 693 414 741 538 741 c 0
519 613 m 0
 443 613 377 577 327 509 c 0
 283 448 255 360 255 282 c 0
 255 173 318 105 419 105 c 0
 496 105 559 140 609 210 c 0
 652 270 679 358 679 437 c 0
 679 547 619 613 519 613 c 0
EndSplineSet
KernsSLIF: 89 -65 0 0 88 -43 0 0 87 -24 0 0 86 -40 0 0 84 -32 0 0 262 -42 0 0 256 -42 0 0 257 -42 0 0 225 -33 0 0 65 -42 0 0
EndChar
StartChar: P
Encoding: 80 80 49
Width: 667
Flags: W
HStem: 0 21G<76 226> 260 125<308 477> 604 125<231 525>
VStem: 598 149<525 560>
DStem: 231 729 354 604 76 0 308 385 231 729 281 260 76 0 226 0
Fore
281 260 m 1
 226 0 l 1
 76 0 l 1
 231 729 l 1
 539 729 l 2
 606 729 647 718 683 690 c 0
 724 659 747 612 747 560 c 0
 747 483 712 398 658 341 c 0
 605 284 547 260 468 260 c 2
 281 260 l 1
308 385 m 1
 461 385 l 2
 514 385 548 401 572 436 c 0
 587 457 598 496 598 525 c 0
 598 572 562 604 508 604 c 2
 354 604 l 1
 308 385 l 1
EndSplineSet
KernsSLIF: 46 -101 0 0 249 -26 0 0 250 -17 0 0 351 -22 0 0 352 -22 0 0 111 -22 0 0 45 -7 0 0 335 -13 0 0 101 -13 0 0 44 -103 0 0 328 -14 0 0 241 -15 0 0 322 -14 0 0 323 -14 0 0 97 -14 0 0 74 -52 0 0 262 -71 0 0 256 -71 0 0 257 -71 0 0 225 -62 0 0 65 -71 0 0
EndChar
StartChar: Q
Encoding: 81 81 50
Width: 778
Flags: W
HStem: -23 128<397 420> 613 128<507 540>
VStem: 109 149<260 284> 682 149<425 459>
Fore
686 103 m 1
 750 27 l 1
 657 -54 l 1
 588 27 l 1
 527 -7 468 -23 397 -23 c 0
 220 -23 109 87 109 262 c 0
 109 378 156 504 232 594 c 0
 315 694 414 741 538 741 c 0
 721 741 831 632 831 453 c 0
 831 330 771 185 686 103 c 1
539 278 m 1
 604 200 l 1
 650 258 682 354 682 436 c 0
 682 547 621 613 518 613 c 0
 442 613 379 578 329 508 c 0
 285 447 258 361 258 282 c 0
 258 173 319 105 418 105 c 0
 450 105 482 112 507 124 c 1
 445 197 l 1
 539 278 l 1
EndSplineSet
EndChar
StartChar: R
Encoding: 82 82 51
Width: 722
Flags: W
HStem: 0 21G<80 230 518 677> 289 125<318 481> 604 125<235 550>
VStem: 510 155<41 61> 548 148<234 270> 636 149<534 579>
DStem: 235 729 358 604 80 0 318 414 235 729 291 289 80 0 230 0
Fore
291 289 m 1xe8
 230 0 l 1
 80 0 l 1
 235 729 l 1
 612 729 l 2
 670 729 710 715 742 683 c 0
 769 656 785 617 785 579 c 0xe4
 785 523 760 460 721 420 c 0
 697 395 671 378 618 352 c 1
 670 335 696 308 696 270 c 0xe8
 696 245 691 210 668 87 c 0
 666 77 665 67 665 61 c 0
 665 47 670 37 683 27 c 1
 677 0 l 1
 518 0 l 1
 512 19 510 29 510 41 c 0xf0
 510 67 517 104 536 173 c 0
 545 209 548 222 548 234 c 0
 548 271 520 289 463 289 c 2
 291 289 l 1xe8
318 414 m 1
 499 414 l 2
 549 414 580 426 606 455 c 0
 624 475 636 506 636 534 c 0
 636 553 628 570 614 583 c 1
 595 598 572 604 526 604 c 2
 358 604 l 1
 318 414 l 1
EndSplineSet
KernsSLIF: 121 -4 0 0 362 -6 0 0 363 -6 0 0 117 -6 0 0 250 -4 0 0 351 -9 0 0 352 -9 0 0 111 -9 0 0 45 10 0 0 328 -4 0 0 241 -5 0 0 322 -4 0 0 323 -4 0 0 97 -4 0 0 89 -50 0 0 87 -22 0 0 86 -38 0 0 298 -12 0 0 85 -12 0 0 84 -12 0 0 286 -13 0 0 287 -13 0 0 234 -3 0 0 79 -13 0 0 71 -13 0 0 264 -12 0 0 67 -12 0 0
EndChar
StartChar: S
Encoding: 83 83 52
Width: 667
Flags: W
HStem: -23 128<343 369> 613 128<443 473>
VStem: 76 148<174 195> 151 149<472 509> 538 149<216 265> 579 146<530 569>
Fore
717 507 m 1xd4
 577 507 l 1
 578 516 579 525 579 530 c 0
 579 584 532 613 447 613 c 0
 356 613 300 573 300 509 c 0xd4
 300 471 327 455 421 436 c 2
 530 414 l 2
 632 394 687 342 687 265 c 0
 687 199 660 126 618 79 c 0
 560 12 467 -23 345 -23 c 0
 249 -23 180 -2 132 42 c 0
 96 75 76 121 76 174 c 0
 76 188 77 198 80 218 c 1
 226 218 l 1
 225 209 224 200 224 195 c 0
 224 138 276 105 367 105 c 0
 471 105 538 149 538 216 c 0xe8
 538 263 509 283 418 301 c 2
 320 321 l 2
 201 345 151 389 151 472 c 0
 151 543 186 618 243 667 c 0
 300 717 376 741 473 741 c 0
 632 741 725 677 725 569 c 0
 725 549 723 535 717 507 c 1xd4
EndSplineSet
KernsSLIF: 116 -4 0 0 89 -54 0 0 87 -20 0 0 86 -36 0 0 84 -15 0 0 262 -26 0 0 256 -26 0 0 257 -26 0 0 225 -14 0 0 65 -26 0 0
EndChar
StartChar: T
Encoding: 84 84 53
Width: 611
Flags: W
HStem: 0 21G<235 385> 604 125<168 364 169 726>
DStem: 364 604 514 604 235 0 385 0
Fore
514 604 m 1
 385 0 l 1
 235 0 l 1
 364 604 l 1
 142 604 l 1
 169 729 l 1
 753 729 l 1
 726 604 l 1
 514 604 l 1
EndSplineSet
KernsSLIF: 121 -89 0 0 119 -85 0 0 118 -91 0 0 117 -78 0 0 59 -105 0 0 115 -81 0 0 114 -76 0 0 46 -73 0 0 249 -80 0 0 111 -81 0 0 106 -11 0 0 105 -9 0 0 45 -53 0 0 172 -103 0 0 171 -107 0 0 103 -79 0 0 101 -72 0 0 44 -75 0 0 58 -104 0 0 99 -79 0 0 241 -78 0 0 97 -77 0 0 89 7 0 0 87 15 0 0 86 9 0 0 83 -7 0 0 290 -30 0 0 233 -36 0 0 288 -30 0 0 286 -30 0 0 289 -30 0 0 287 -30 0 0 234 -20 0 0 79 -30 0 0 74 -95 0 0 71 -30 0 0 67 -29 0 0 261 -93 0 0 262 -93 0 0 258 -93 0 0 256 -93 0 0 259 -93 0 0 257 -93 0 0 225 -85 0 0 65 -93 0 0
EndChar
StartChar: U
Encoding: 85 85 54
Width: 722
Flags: W
HStem: -23 128<366 396> 709 20G<231 381 659 809>
VStem: 119 152<167 190>
DStem: 231 729 381 729 130 255 276 235 659 729 809 729 554 235 704 235
Fore
659 729 m 1
 809 729 l 1
 704 235 l 1
 686 152 654 96 597 51 c 0
 536 3 454 -23 366 -23 c 0
 215 -23 119 51 119 167 c 0
 119 189 123 222 130 255 c 2
 231 729 l 1
 381 729 l 1
 276 235 l 1
 273 219 271 205 271 190 c 0
 271 137 316 105 394 105 c 0
 485 105 535 145 554 235 c 2
 659 729 l 1
EndSplineSet
KernsSLIF: 114 -5 0 0 46 -12 0 0 112 -3 0 0 110 -5 0 0 109 -3 0 0 44 -17 0 0 261 -40 0 0 262 -40 0 0 256 -40 0 0 259 -40 0 0 257 -40 0 0 225 -30 0 0 65 -40 0 0
EndChar
StartChar: V
Encoding: 86 86 55
Width: 667
Flags: W
HStem: 0 21G<273 400> 709 20G<179 330 651 802>
Fore
400 0 m 1
 273 0 l 1
 179 729 l 1
 330 729 l 1
 375 180 l 1
 651 729 l 1
 802 729 l 1
 400 0 l 1
EndSplineSet
KernsSLIF: 121 -19 0 0 117 -42 0 0 59 -77 0 0 114 -43 0 0 46 -74 0 0 249 -55 0 0 111 -56 0 0 105 -13 0 0 45 -26 0 0 172 -77 0 0 171 -81 0 0 103 -54 0 0 101 -46 0 0 44 -76 0 0 58 -74 0 0 241 -52 0 0 97 -51 0 0 84 12 0 0 83 -31 0 0 290 -44 0 0 233 -42 0 0 288 -44 0 0 286 -44 0 0 289 -44 0 0 287 -44 0 0 79 -44 0 0 71 -44 0 0 67 -43 0 0 261 -75 0 0 262 -75 0 0 258 -75 0 0 256 -75 0 0 259 -75 0 0 257 -75 0 0 225 -65 0 0 65 -75 0 0
EndChar
StartChar: W
Encoding: 87 87 56
Width: 944
Flags: W
HStem: 0 21G<219 354 595 730> 709 20G<168 327 548 706 928 1087>
VStem: 591 112<181.146 554.854>
DStem: 548 729 591 555 324 183 354 0 591 555 706 729 595 0 703 181
Fore
730 0 m 1
 595 0 l 1
 591 555 l 1
 354 0 l 1
 219 0 l 1
 168 729 l 1
 327 729 l 1
 324 183 l 1
 548 729 l 1
 706 729 l 1
 703 181 l 1
 928 729 l 1
 1087 729 l 1
 730 0 l 1
EndSplineSet
KernsSLIF: 121 -9 0 0 117 -32 0 0 59 -63 0 0 114 -33 0 0 46 -51 0 0 249 -37 0 0 111 -38 0 0 105 -9 0 0 45 -9 0 0 172 -59 0 0 171 -63 0 0 103 -36 0 0 101 -28 0 0 44 -53 0 0 58 -61 0 0 241 -34 0 0 97 -34 0 0 84 16 0 0 83 -22 0 0 290 -29 0 0 233 -27 0 0 288 -29 0 0 286 -29 0 0 289 -29 0 0 287 -29 0 0 79 -29 0 0 71 -29 0 0 67 -28 0 0 261 -59 0 0 262 -59 0 0 258 -59 0 0 256 -59 0 0 259 -59 0 0 257 -59 0 0 225 -50 0 0 65 -59 0 0
EndChar
StartChar: X
Encoding: 88 88 57
Width: 667
Flags: W
HStem: 0 21G<22 197 476 655> 709 20G<187 365 627 802>
Fore
499 372 m 1
 655 0 l 1
 476 0 l 1
 386 249 l 1
 197 0 l 1
 22 0 l 1
 332 367 l 1
 187 729 l 1
 365 729 l 1
 444 493 l 1
 627 729 l 1
 802 729 l 1
 499 372 l 1
EndSplineSet
KernsSLIF: 121 -48 0 0 117 -35 0 0 111 -43 0 0 45 -33 0 0 101 -33 0 0 97 -17 0 0 81 -43 0 0 286 -40 0 0 79 -40 0 0 67 -39 0 0
EndChar
StartChar: Y
Encoding: 89 89 58
Width: 667
Flags: W
HStem: 0 21G<269 419> 709 20G<182 349 638 805>
DStem: 327 270 477 270 269 0 419 0
Fore
477 270 m 1
 419 0 l 1
 269 0 l 1
 327 270 l 1
 182 729 l 1
 349 729 l 1
 431 414 l 1
 638 729 l 1
 805 729 l 1
 477 270 l 1
EndSplineSet
MinimumDistance: x4,8 
KernsSLIF: 118 -36 0 0 117 -57 0 0 59 -93 0 0 46 -84 0 0 112 -53 0 0 249 -74 0 0 111 -76 0 0 105 -11 0 0 45 -55 0 0 172 -101 0 0 171 -105 0 0 103 -73 0 0 101 -66 0 0 44 -85 0 0 58 -90 0 0 241 -71 0 0 97 -71 0 0 84 14 0 0 83 -39 0 0 290 -61 0 0 233 -58 0 0 288 -61 0 0 286 -61 0 0 289 -61 0 0 287 -61 0 0 79 -61 0 0 71 -61 0 0 67 -60 0 0 261 -91 0 0 262 -91 0 0 258 -91 0 0 256 -91 0 0 259 -91 0 0 257 -91 0 0 225 -81 0 0 65 -91 0 0
EndChar
StartChar: Z
Encoding: 90 90 59
Width: 611
Flags: W
HStem: 0 125<232 578> 604 125<184 531>
DStem: 531 604 706 604 57 125 232 125
Fore
733 729 m 1
 706 604 l 1
 232 125 l 1
 605 125 l 1
 578 0 l 1
 30 0 l 1
 57 125 l 1
 531 604 l 1
 158 604 l 1
 185 729 l 1
 733 729 l 1
EndSplineSet
KernsSLIF: 121 -19 0 0 118 -21 0 0
EndChar
StartChar: bracketleft
Encoding: 91 91 60
Width: 333
Flags: W
HStem: 629 100<220 441>
DStem: 220 729 328 629 23 -200 174 -100
Fore
463 729 m 1
 441 629 l 1
 328 629 l 1
 174 -100 l 1
 287 -100 l 1
 266 -200 l 1
 23 -200 l 1
 220 729 l 1
 463 729 l 1
EndSplineSet
EndChar
StartChar: backslash
Encoding: 92 92 61
Width: 278
Flags: W
HStem: -23 21G<210 285> 689 20G<138 212>
DStem: 138 709 212 709 210 -23 285 -23
Fore
138 709 m 1
 212 709 l 1
 285 -23 l 1
 210 -23 l 1
 138 709 l 1
EndSplineSet
EndChar
StartChar: bracketright
Encoding: 93 93 62
Width: 333
Flags: W
HStem: -200 100<-4 218> 709 20G<172 415>
DStem: 264 629 415 729 110 -100 218 -200
Fore
-25 -200 m 1
 -3 -100 l 1
 110 -100 l 1
 264 629 l 1
 151 629 l 1
 172 729 l 1
 415 729 l 1
 218 -200 l 1
 -25 -200 l 1
EndSplineSet
EndChar
StartChar: asciicircum
Encoding: 94 94 63
Width: 584
Flags: W
DStem: 374 695 409 570 119 270 231 270 409 570 499 695 467 270 580 270
Fore
580 270 m 1
 467 270 l 1
 409 570 l 1
 231 270 l 1
 119 270 l 1
 374 695 l 1
 499 695 l 1
 580 270 l 1
EndSplineSet
EndChar
StartChar: underscore
Encoding: 95 95 64
Width: 556
Flags: W
HStem: -145 69<-51 535>
Fore
550 -76 m 1
 535 -145 l 1
 -65 -145 l 1
 -50 -76 l 1
 550 -76 l 1
EndSplineSet
EndChar
StartChar: quoteleft
Encoding: 96 8216 65
Width: 278
Flags: W
Fore
302 469 m 1
 167 469 l 1
 190 578 l 1
 204 665 268 722 357 729 c 1
 347 683 l 1
 289 673 257 644 248 594 c 1
 329 594 l 1
 302 469 l 1
EndSplineSet
KernsSLIF: 89 -20 1 0 87 5 1 0 86 -4 1 0 84 -15 1 0 262 -76 1 0 256 -76 1 0 257 -76 1 0 225 -69 1 0 65 -76 1 0
EndChar
StartChar: a
Encoding: 97 97 66
Width: 556
Flags: W
HStem: -23 112<199 266> 437 112<353 386>
VStem: 50 143<108 139> 436 142<394 428>
Fore
527 17 m 1
 523 0 l 1
 370 0 l 1
 365 11 363 17 363 27 c 0
 363 34 363 39 366 54 c 1
 306 0 257 -23 199 -23 c 0
 156 -23 122 -13 97 8 c 0
 68 32 50 70 50 108 c 0
 50 168 83 229 136 267 c 0
 167 289 204 303 252 311 c 2
 310 320 l 2
 382 330 382 330 402 341 c 0
 422 351 436 373 436 394 c 0
 436 424 414 437 363 437 c 0
 299 437 268 417 251 362 c 1
 120 362 l 1
 148 492 229 549 386 549 c 0
 456 549 505 537 537 511 c 0
 560 492 578 457 578 428 c 0
 578 416 576 401 572 383 c 2
 509 83 l 1
 507 75 506 68 506 62 c 0
 506 47 512 34 527 17 c 1
400 217 m 1
 408 255 l 1
 396 248 393 247 382 245 c 0
 378 244 371 243 361 241 c 2
 345 238 l 1
 295 230 l 2
 230 219 193 186 193 139 c 0
 193 106 218 89 266 89 c 0
 334 89 382 135 400 217 c 1
EndSplineSet
KernsSLIF: 121 -24 0 0 119 -10 0 0 118 -23 0 0 39 -14 0 0 106 -7 0 0
EndChar
StartChar: b
Encoding: 98 98 67
Width: 611
Flags: W
HStem: -23 112<330 348> 437 112<409 465> 709 20G<214 354>
VStem: 497 143<317 342>
DStem: 214 729 354 729 59 0 299 470
Fore
214 729 m 1
 354 729 l 1
 299 470 l 1
 344 524 397 549 465 549 c 0
 571 549 640 467 640 342 c 0
 640 152 497 -23 343 -23 c 0
 276 -23 233 2 211 55 c 1
 199 0 l 1
 59 0 l 1
 214 729 l 1
409 437 m 0
 323 437 248 327 248 202 c 0
 248 134 283 89 336 89 c 0
 421 89 497 197 497 319 c 0
 497 392 463 437 409 437 c 0
EndSplineSet
KernsSLIF: 121 -25 0 0 119 -9 0 0 118 -23 0 0
EndChar
StartChar: c
Encoding: 99 99 68
Width: 556
Flags: W
HStem: -23 112<292 318> 437 112<375 398>
VStem: 77 143<171 194>
Fore
593 338 m 1
 459 338 l 1
 458 377 456 389 448 404 c 0
 435 425 410 437 377 437 c 0
 322 437 285 411 257 352 c 0
 233 304 220 245 220 192 c 0
 220 123 249 89 309 89 c 0
 363 89 396 116 427 187 c 1
 561 187 l 1
 519 53 421 -23 292 -23 c 0
 218 -23 163 -3 127 38 c 0
 95 73 77 122 77 172 c 0
 77 267 119 384 178 454 c 0
 230 517 304 549 398 549 c 0
 465 549 511 532 549 494 c 0
 580 463 597 423 597 381 c 0
 597 371 596 362 593 338 c 1
EndSplineSet
KernsSLIF: 107 -5 0 0 104 -9 0 0
EndChar
StartChar: d
Encoding: 100 100 69
Width: 611
Flags: W
HStem: -23 112<251 309> 437 112<366 384> 709 20G<560 700>
VStem: 79 143<185 208>
DStem: 560 729 700 729 505 470 545 0
Fore
405 0 m 1
 417 55 l 1
 371 2 318 -23 251 -23 c 0
 147 -23 79 59 79 185 c 0
 79 267 108 357 157 428 c 0
 209 503 291 549 372 549 c 0
 440 549 482 524 505 470 c 1
 560 729 l 1
 700 729 l 1
 545 0 l 1
 405 0 l 1
380 437 m 0
 297 437 222 327 222 206 c 0
 222 134 256 89 309 89 c 0
 394 89 468 197 468 323 c 0
 468 393 434 437 380 437 c 0
EndSplineSet
EndChar
StartChar: e
Encoding: 101 101 70
Width: 556
Flags: W
HStem: -23 112<275 302> 226 93<228 573> 437 112<360 379>
VStem: 64 143<168 202> 448 143<319 362>
Fore
573 226 m 1
 210 226 l 1
 207 198 207 190 207 181 c 0
 207 126 245 89 302 89 c 0
 350 89 394 114 414 152 c 1
 552 152 l 1
 497 41 396 -23 275 -23 c 0
 150 -23 64 61 64 185 c 0
 64 285 110 402 174 469 c 0
 221 518 301 549 379 549 c 0
 452 549 510 525 546 480 c 0
 574 444 591 397 591 351 c 0
 591 313 585 271 573 226 c 1
448 319 m 1
 448 334 l 2
 448 366 446 377 439 392 c 0
 426 420 397 437 362 437 c 0
 322 437 282 418 258 386 c 0
 245 369 237 351 228 319 c 1
 448 319 l 1
EndSplineSet
KernsSLIF: 121 -25 0 0 120 -25 0 0 119 -9 0 0 118 -22 0 0 116 -9 0 0 39 -13 0 0
EndChar
StartChar: f
Encoding: 102 102 71
Width: 333
Flags: W
HStem: 0 21G<90 230> 436 93<125 183 342 405> 625 104<387 411>
DStem: 183 436 323 436 90 0 230 0
Fore
425 529 m 1
 405 436 l 1
 323 436 l 1
 230 0 l 1
 90 0 l 1
 183 436 l 1
 106 436 l 1
 126 529 l 1
 202 529 l 1
 216 594 l 2
 236 687 289 729 387 729 c 0
 405 729 422 728 464 726 c 1
 442 621 l 1
 415 624 410 625 400 625 c 0
 375 625 360 611 354 582 c 1
 342 529 l 1
 425 529 l 1
EndSplineSet
KernsSLIF: 116 14 0 0 115 -10 0 0 249 -16 0 0 250 -11 0 0 351 -16 0 0 352 -16 0 0 111 -16 0 0 108 -13 0 0 106 -15 0 0 105 -13 0 0 102 14 0 0 335 -6 0 0 101 -6 0 0 328 -6 0 0 241 -6 0 0 322 -6 0 0 323 -6 0 0 97 -6 0 0
EndChar
StartChar: g
Encoding: 103 103 72
Width: 611
Flags: W
HStem: -218 90<235 267> -23 112<254 306> 437 112<365.518 381>
VStem: 26 146<-96 -77> 79 143<167 201>
Fore
523 540 m 1xe8
 656 540 l 1
 537 -18 l 1
 510 -146 401 -218 235 -218 c 0
 173 -218 129 -210 93 -192 c 0
 52 -172 26 -134 26 -96 c 0
 26 -88 27 -77 29 -65 c 1
 173 -65 l 1
 172 -77 l 1xf0
 172 -106 209 -128 258 -128 c 0
 331 -128 390 -83 404 -18 c 2
 420 55 l 1
 356 -4 316 -23 254 -23 c 0
 153 -23 79 57 79 167 c 0
 79 264 116 374 174 445 c 0
 227 511 302 549 378 549 c 0
 437 549 478 519 505 457 c 1
 523 540 l 1xe8
379 437 m 0
 297 437 222 324 222 201 c 0xe8
 222 132 254 89 306 89 c 0
 395 89 471 193 471 315 c 0
 471 389 435 437 379 437 c 0
EndSplineSet
KernsSLIF: 114 -3 0 0 351 -8 0 0 352 -8 0 0 108 -5 0 0 335 1 0 0 101 1 0 0 328 -3 0 0 241 -4 0 0 322 -3 0 0 97 -3 0 0
EndChar
StartChar: h
Encoding: 104 104 73
Width: 611
Flags: W
HStem: 0 21G<67 207 406 546> 437 112<406 484> 709 20G<222 362>
VStem: 479 150<361 417>
DStem: 222 729 362 729 67 0 304 458 222 729 272 304 67 0 207 0 473 313 623 362 406 0 546 0
Fore
222 729 m 1
 362 729 l 1
 304 458 l 1
 357 521 413 549 484 549 c 0
 571 549 629 496 629 417 c 0
 629 399 627 381 623 362 c 2
 546 0 l 1
 406 0 l 1
 473 313 l 1
 477 334 479 348 479 361 c 0
 479 410 453 437 406 437 c 0
 342 437 289 385 272 304 c 1
 207 0 l 1
 67 0 l 1
 222 729 l 1
EndSplineSet
KernsSLIF: 121 -25 0 0 39 -15 0 0
EndChar
StartChar: i
Encoding: 105 105 74
Width: 278
Flags: W
HStem: 0 21G<67 207> 520 20G<182 322> 709 20G<222 362>
DStem: 182 540 322 540 67 0 207 0
Fore
322 540 m 1
 207 0 l 1
 67 0 l 1
 182 540 l 1
 322 540 l 1
362 729 m 1
 335 604 l 1
 195 604 l 1
 222 729 l 1
 362 729 l 1
EndSplineSet
KernsSLIF: 106 -7 0 0 84 -12 0 0
EndChar
StartChar: j
Encoding: 106 106 75
Width: 278
Flags: W
HStem: -218 112<-12 8> 520 20G<185 325> 709 20G<225 365>
DStem: 185 540 325 540 57 -62 190 -94
Fore
365 729 m 1
 338 604 l 1
 198 604 l 1
 225 729 l 1
 365 729 l 1
325 540 m 1
 190 -94 l 1
 172 -181 116 -218 2 -218 c 0
 -17 -218 -29 -217 -43 -213 c 1
 -19 -102 l 1
 -15 -105 -8 -106 6 -106 c 0
 36 -106 50 -94 57 -62 c 2
 185 540 l 1
 325 540 l 1
EndSplineSet
EndChar
StartChar: k
Encoding: 107 107 76
Width: 556
Flags: W
HStem: 0 21G<59 199 384 548> 520 20G<492 651> 709 20G<214 354>
DStem: 214 729 354 729 59 0 269 330 214 729 237 177 59 0 199 0
Fore
354 729 m 1
 269 330 l 1
 492 540 l 1
 651 540 l 1
 419 334 l 1
 548 0 l 1
 384 0 l 1
 305 239 l 1
 237 177 l 1
 199 0 l 1
 59 0 l 1
 214 729 l 1
 354 729 l 1
EndSplineSet
KernsSLIF: 362 -8 0 0 117 -8 0 0 115 -23 0 0 46 -3 0 0 351 -28 0 0 352 -28 0 0 111 -28 0 0 45 -31 0 0 103 -26 0 0 335 -19 0 0 101 -19 0 0 44 -3 0 0 328 -13 0 0 241 -15 0 0 322 -13 0 0 323 -13 0 0 97 -13 0 0
EndChar
StartChar: l
Encoding: 108 108 77
Width: 278
Flags: W
HStem: 0 21G<67 207> 709 20G<222 362>
DStem: 222 729 362 729 67 0 207 0
Fore
362 729 m 1
 207 0 l 1
 67 0 l 1
 222 729 l 1
 362 729 l 1
EndSplineSet
KernsSLIF: 121 -11 0 0 118 -14 0 0
EndChar
StartChar: m
Encoding: 109 109 78
Width: 889
Flags: W
HStem: 0 21G<60 200 373 513 686 826> 437 112<387 468>
VStem: 763 148<381 423>
DStem: 175 540 269 324 60 0 200 0 447 346 582 324 373 0 513 0 758 340 903 362 686 0 826 0
Fore
175 540 m 1
 314 540 l 1
 297 459 l 1
 356 524 403 549 468 549 c 0
 530 549 578 517 592 467 c 1
 647 524 701 549 769 549 c 0
 859 549 911 502 911 423 c 0
 911 405 909 391 903 362 c 2
 826 0 l 1
 686 0 l 1
 758 340 l 2
 761 354 763 369 763 381 c 0
 763 417 742 437 705 437 c 0
 642 437 597 396 582 324 c 1
 513 0 l 1
 373 0 l 1
 447 346 l 1
 449 357 450 367 450 379 c 0
 450 414 425 437 387 437 c 0
 329 437 284 394 269 324 c 2
 200 0 l 1
 60 0 l 1
 175 540 l 1
EndSplineSet
KernsSLIF: 121 -23 0 0 119 -9 0 0 118 -23 0 0 112 -1 0 0
EndChar
StartChar: n
Encoding: 110 110 79
Width: 611
Flags: W
HStem: 0 21G<63 203 406 546> 437 112<405 482>
VStem: 479 150<362 417>
DStem: 178 540 268 304 63 0 203 0 473 313 623 362 406 0 546 0
Fore
178 540 m 1
 318 540 l 1
 300 458 l 1
 354 522 408 549 482 549 c 0
 571 549 629 497 629 417 c 0
 629 399 627 381 623 362 c 2
 546 0 l 1
 406 0 l 1
 473 313 l 1
 477 335 479 349 479 362 c 0
 479 410 453 437 405 437 c 0
 338 437 285 386 268 304 c 1
 203 0 l 1
 63 0 l 1
 178 540 l 1
EndSplineSet
KernsSLIF: 121 -25 0 0 119 -11 0 0 118 -24 0 0 39 -15 0 0 112 -2 0 0 84 -87 0 0
EndChar
StartChar: o
Encoding: 111 111 80
Width: 611
Flags: W
HStem: -23 112<299 326> 437 112<389 413>
VStem: 82 143<177 205> 491 143<320 349>
Fore
413 549 m 0
 550 549 634 473 634 349 c 0
 634 263 602 163 555 100 c 0
 494 19 407 -23 299 -23 c 0
 167 -23 82 55 82 177 c 0
 82 263 113 363 161 426 c 0
 220 505 310 549 413 549 c 0
391 437 m 0
 301 437 225 332 225 205 c 0
 225 134 264 89 324 89 c 0
 376 89 422 120 453 176 c 0
 477 218 491 271 491 320 c 0
 491 391 452 437 391 437 c 0
EndSplineSet
KernsSLIF: 121 -29 0 0 120 -30 0 0 119 -13 0 0 118 -27 0 0 116 -13 0 0 39 -19 0 0 84 -90 0 0
EndChar
StartChar: p
Encoding: 112 112 81
Width: 611
Flags: W
HStem: -24 112<330 348> 437 112<406 464>
VStem: 494 143<321 342>
DStem: 172 540 211 64 11 -218 151 -218
Fore
312 540 m 1
 295 460 l 1
 341 519 397 549 464 549 c 0
 570 549 637 469 637 342 c 0
 637 141 505 -24 344 -24 c 0
 274 -24 232 4 211 64 c 1
 151 -218 l 1
 11 -218 l 1
 172 540 l 1
 312 540 l 1
406 437 m 0
 320 437 246 327 246 201 c 0
 246 133 281 88 334 88 c 0
 420 88 494 196 494 323 c 0
 494 392 460 437 406 437 c 0
EndSplineSet
KernsSLIF: 121 -25 0 0 116 -10 0 0
EndChar
StartChar: q
Encoding: 113 113 82
Width: 611
Flags: W
HStem: -24 112<248 304> 437 112<367 379>
VStem: 72 143<180 204>
DStem: 418 64 659 540 358 -218 498 -218
Fore
519 540 m 1
 659 540 l 1
 498 -218 l 1
 358 -218 l 1
 418 64 l 1
 373 5 316 -24 248 -24 c 0
 142 -24 72 57 72 180 c 0
 72 266 102 359 152 430 c 0
 206 505 286 549 369 549 c 0
 438 549 482 520 502 460 c 1
 519 540 l 1
377 437 m 0
 291 437 215 327 215 202 c 0
 215 133 250 88 304 88 c 0
 391 88 466 197 466 324 c 0
 466 393 431 437 377 437 c 0
EndSplineSet
KernsSLIF: 117 -3 0 0 99 -3 0 0
EndChar
StartChar: r
Encoding: 114 114 83
Width: 389
Flags: W
HStem: 0 21G<63 203> 410 139<414 470>
DStem: 178 540 264 287 63 0 203 0
Fore
178 540 m 1
 318 540 l 1
 295 434 l 1
 342 507 406 549 470 549 c 0
 474 549 479 549 487 548 c 1
 457 406 l 1
 439 409 429 410 414 410 c 0
 332 410 281 369 264 287 c 1
 203 0 l 1
 63 0 l 1
 178 540 l 1
EndSplineSet
KernsSLIF: 122 2 0 0 121 14 0 0 120 7 0 0 119 17 0 0 118 12 0 0 117 -8 0 0 116 15 0 0 59 -37 0 0 115 -4 0 0 114 -10 0 0 39 4 0 0 113 -2 0 0 46 -63 0 0 112 -7 0 0 249 -12 0 0 353 -7 0 0 250 -2 0 0 351 -7 0 0 354 -7 0 0 352 -7 0 0 111 -7 0 0 110 -10 0 0 109 -8 0 0 108 -12 0 0 107 -8 0 0 106 -13 0 0 105 -12 0 0 45 -40 0 0 104 -12 0 0 103 -7 0 0 102 15 0 0 336 2 0 0 337 2 0 0 335 2 0 0 101 2 0 0 100 -5 0 0 44 -64 0 0 58 -36 0 0 332 -6 0 0 99 -6 0 0 328 -1 0 0 324 -1 0 0 241 -2 0 0 322 -1 0 0 325 -1 0 0 323 -1 0 0 97 -1 0 0
EndChar
StartChar: s
Encoding: 115 115 84
Width: 556
Flags: W
HStem: -23 112<281 309> 437 112<362 387>
VStem: 127 149<345 384> 411 148<144 187> 452 137<385 404>
Fore
584 366 m 1xe8
 449 366 l 1
 451 375 452 379 452 385 c 0xe8
 452 417 419 437 364 437 c 0
 311 437 276 416 276 384 c 0
 276 364 290 354 341 339 c 2
 437 311 l 2
 520 286 559 247 559 187 c 0
 559 59 451 -23 281 -23 c 0
 219 -23 172 -13 133 10 c 0
 89 35 60 82 60 127 c 0
 60 136 61 142 64 157 c 1
 201 157 l 1
 202 134 208 123 222 111 c 0
 241 97 272 89 307 89 c 0
 368 89 411 112 411 144 c 0xf0
 411 167 398 176 335 196 c 2
 256 221 l 2
 168 250 127 289 127 345 c 0
 127 395 155 452 198 490 c 0
 241 528 308 549 387 549 c 0
 513 549 589 494 589 404 c 0
 589 393 588 384 584 366 c 1xe8
EndSplineSet
KernsSLIF: 116 -9 0 0 39 -12 0 0
EndChar
StartChar: t
Encoding: 116 116 85
Width: 333
Flags: W
HStem: -23 106<214 286> 436 93<126 176 336 394>
DStem: 176 436 316 436 106 104 254 142 227 674 367 674 196 529 336 529
Fore
414 529 m 1
 394 436 l 1
 316 436 l 1
 254 142 l 1
 250 125 248 113 248 108 c 0
 248 93 263 83 286 83 c 0
 297 83 305 84 319 86 c 1
 299 -12 l 1
 271 -20 247 -23 214 -23 c 0
 141 -23 101 8 101 63 c 0
 101 76 103 90 106 104 c 2
 176 436 l 1
 107 436 l 1
 127 529 l 1
 196 529 l 1
 227 674 l 1
 367 674 l 1
 336 529 l 1
 414 529 l 1
EndSplineSet
KernsSLIF: 59 -42 0 0 39 -3 0 0 351 -15 0 0 352 -15 0 0 111 -15 0 0 104 -9 0 0 335 -5 0 0 101 -5 0 0 58 -41 0 0 328 -3 0 0 241 -5 0 0 322 -3 0 0 323 -3 0 0 97 -3 0 0 83 -9 0 0
EndChar
StartChar: u
Encoding: 117 117 86
Width: 611
Flags: W
HStem: -23 112<234 314> 520 20G<174 314 516 656>
VStem: 88 150<109 164>
DStem: 174 540 314 540 94 164 244 213 516 540 656 540 448 222 541 0
Fore
541 0 m 1
 401 0 l 1
 416 68 l 1
 362 4 308 -23 234 -23 c 0
 146 -23 88 29 88 109 c 0
 88 127 90 145 94 164 c 2
 174 540 l 1
 314 540 l 1
 244 213 l 1
 240 190 238 178 238 164 c 0
 238 115 264 89 314 89 c 0
 379 89 431 141 448 222 c 1
 516 540 l 1
 656 540 l 1
 541 0 l 1
EndSplineSet
KernsSLIF: 39 -8 0 0
EndChar
StartChar: v
Encoding: 118 118 87
Width: 556
Flags: W
HStem: 0 21G<203 350> 520 20G<129 277 503 651>
Fore
350 0 m 1
 203 0 l 1
 129 540 l 1
 277 540 l 1
 307 145 l 1
 503 540 l 1
 651 540 l 1
 350 0 l 1
EndSplineSet
KernsSLIF: 59 -43 0 0 115 -25 0 0 46 -55 0 0 249 -28 0 0 353 -28 0 0 351 -28 0 0 352 -28 0 0 111 -28 0 0 108 -12 0 0 45 -5 0 0 103 -26 0 0 336 -18 0 0 337 -18 0 0 335 -18 0 0 101 -18 0 0 44 -57 0 0 58 -41 0 0 99 -25 0 0 327 -21 0 0 328 -21 0 0 324 -21 0 0 241 -21 0 0 322 -21 0 0 325 -21 0 0 323 -21 0 0 97 -21 0 0
EndChar
StartChar: w
Encoding: 119 119 88
Width: 778
Flags: W
HStem: 0 21G<157 301 472 617> 520 20G<120 265 429 573 736 881>
VStem: 467 106<162 380>
DStem: 429 540 467 380 270 162 301 0
Fore
617 0 m 1
 472 0 l 1
 467 380 l 1
 301 0 l 1
 157 0 l 1
 120 540 l 1
 265 540 l 1
 270 162 l 1
 429 540 l 1
 573 540 l 1
 573 162 l 1
 736 540 l 1
 881 540 l 1
 617 0 l 1
EndSplineSet
KernsSLIF: 59 -38 0 0 115 -15 0 0 46 -36 0 0 249 -14 0 0 353 -15 0 0 351 -15 0 0 352 -15 0 0 111 -15 0 0 108 -8 0 0 45 7 0 0 103 -13 0 0 336 -5 0 0 337 -5 0 0 335 -5 0 0 101 -5 0 0 44 -38 0 0 58 -36 0 0 99 -12 0 0 327 -11 0 0 328 -11 0 0 324 -11 0 0 241 -12 0 0 322 -11 0 0 325 -11 0 0 323 -11 0 0 97 -11 0 0
EndChar
StartChar: x
Encoding: 120 120 89
Width: 556
Flags: W
HStem: 0 21G<16 184 366 534> 520 20G<138 306 480 648>
Fore
411 274 m 1
 534 0 l 1
 366 0 l 1
 307 168 l 1
 184 0 l 1
 16 0 l 1
 249 274 l 1
 138 540 l 1
 306 540 l 1
 357 377 l 1
 480 540 l 1
 648 540 l 1
 411 274 l 1
EndSplineSet
KernsSLIF: 113 -23 0 0 111 -30 0 0 335 -20 0 0 101 -20 0 0 99 -27 0 0 97 -22 0 0
EndChar
StartChar: y
Encoding: 121 121 90
Width: 556
Flags: W
HStem: -219 111<68 102> 520 20G<124 278 509 653>
Fore
509 540 m 1
 653 540 l 1
 295 -98 l 2
 259 -163 237 -185 194 -202 c 0
 164 -213 125 -219 81 -219 c 0
 60 -219 50 -218 37 -215 c 1
 60 -106 l 1
 71 -108 76 -108 88 -108 c 0
 157 -108 201 -72 201 -15 c 1
 200 0 l 1
 124 540 l 1
 278 540 l 1
 314 147 l 1
 509 540 l 1
EndSplineSet
KernsSLIF: 59 -43 0 0 115 -24 0 0 46 -55 0 0 249 -27 0 0 353 -28 0 0 351 -28 0 0 352 -28 0 0 111 -28 0 0 108 -11 0 0 45 -4 0 0 103 -27 0 0 336 -19 0 0 337 -19 0 0 335 -19 0 0 101 -19 0 0 44 -58 0 0 58 -40 0 0 99 -26 0 0 327 -20 0 0 328 -20 0 0 324 -20 0 0 241 -20 0 0 322 -20 0 0 325 -20 0 0 323 -20 0 0 97 -20 0 0
EndChar
StartChar: z
Encoding: 122 122 91
Width: 500
Flags: W
HStem: 0 113<219 469> 427 113<153 379>
DStem: 379 427 551 427 45 113 219 113
Fore
575 540 m 1
 551 427 l 1
 219 113 l 1
 493 113 l 1
 469 0 l 1
 21 0 l 1
 45 113 l 1
 379 427 l 1
 130 427 l 1
 154 540 l 1
 575 540 l 1
EndSplineSet
EndChar
StartChar: braceleft
Encoding: 123 123 92
Width: 389
Flags: W
HStem: -200 99<247.71 276> 222 93<101 111> 630 99<396 451>
VStem: 101 121<-99 -76> 155 119<184 200>
DStem: 150 150 269 159 105 -60 227 -36 243 589 357 573 198 378 316 378
Fore
472 729 m 1xf0
 451 630 l 1
 414 630 l 2
 377 630 367 620 357 573 c 2
 316 378 l 1
 300 306 268 277 195 269 c 1
 220 265 228 263 240 257 c 0
 261 248 274 227 274 200 c 0xe8
 274 190 272 174 269 159 c 1
 227 -36 l 1
 224 -53 222 -66 222 -76 c 0
 222 -92 236 -101 261 -101 c 2
 296 -101 l 1
 275 -200 l 1
 198 -200 l 2
 140 -200 101 -159 101 -99 c 0xf0
 101 -86 102 -73 105 -60 c 2
 150 150 l 2
 153 165 155 178 155 184 c 0xe8
 155 208 135 222 101 222 c 2
 88 222 l 1
 84 223 l 1
 104 315 l 1
 108 315 l 1
 120 315 l 2
 164 315 190 336 198 378 c 1
 243 589 l 2
 262 679 317 729 396 729 c 2
 472 729 l 1xf0
EndSplineSet
EndChar
StartChar: bar
Encoding: 124 124 93
Width: 280
Flags: W
HStem: 709 20G<255 335>
DStem: 255 729 335 729 57 -200 137 -200
Fore
335 729 m 1
 137 -200 l 1
 57 -200 l 1
 255 729 l 1
 335 729 l 1
EndSplineSet
EndChar
StartChar: braceright
Encoding: 125 125 94
Width: 389
Flags: W
HStem: 214 93<393 401> 709 20G<226 304>
VStem: 228 119<329 345> 280 121<605 628>
DStem: 186 151 304 151 145 -44 259 -60 275 565 397 589 233 370 352 379
Fore
29 -200 m 1xd0
 50 -101 l 1
 88 -101 l 2
 125 -101 135 -91 145 -44 c 2
 186 151 l 1
 202 223 234 252 307 260 c 1
 282 264 274 266 262 272 c 0
 241 281 228 302 228 329 c 0xe0
 228 339 230 355 233 370 c 1
 275 565 l 1
 278 582 280 595 280 605 c 0
 280 621 266 630 241 630 c 2
 205 630 l 1
 226 729 l 1
 304 729 l 2
 362 729 401 688 401 628 c 0xd0
 401 615 400 602 397 589 c 2
 352 379 l 2
 349 364 347 351 347 345 c 0xe0
 347 321 367 307 401 307 c 2
 415 307 l 1
 419 306 l 1
 399 214 l 1
 395 214 l 1
 382 214 l 2
 338 214 312 193 304 151 c 1
 259 -60 l 2
 240 -150 185 -200 106 -200 c 2
 29 -200 l 1xd0
EndSplineSet
EndChar
StartChar: asciitilde
Encoding: 126 126 95
Width: 584
Flags: W
Fore
504 288 m 1
 581 288 l 1
 558 193 503 142 423 142 c 0
 390 142 367 150 346 168 c 2
 298 210 l 2
 278 227 262 234 242 234 c 0
 204 234 188 219 175 169 c 1
 97 169 l 1
 123 266 176 314 256 314 c 0
 288 314 312 306 332 289 c 2
 381 247 l 2
 402 228 415 222 437 222 c 0
 475 222 490 237 504 288 c 1
EndSplineSet
EndChar
StartChar: exclamdown
Encoding: 161 161 96
Width: 333
Flags: W
HStem: 520 20G<181 331>
DStem: 71 24 221 24 26 -186 176 -186 181 540 331 540 150 394 300 394
Fore
26 -186 m 1
 71 24 l 1
 178 333 l 1
 245 333 l 1
 221 24 l 1
 176 -186 l 1
 26 -186 l 1
150 394 m 1
 181 540 l 1
 331 540 l 1
 300 394 l 1
 150 394 l 1
EndSplineSet
EndChar
StartChar: cent
Encoding: 162 162 97
Width: 556
Flags: W
VStem: 79 143<170 197> 460 138<338 381>
DStem: 248 -20 313 -22 226 -124 292 -124 344 435 410 435 272 93 337 89 387 634 453 634 368 548 434 547
Fore
410 435 m 1
 337 89 l 1
 378 99 404 128 428 187 c 1
 562 187 l 1
 526 65 430 -16 313 -22 c 1
 292 -124 l 1
 226 -124 l 1
 248 -20 l 1
 224 -16 207 -12 191 -5 c 0
 123 21 79 92 79 172 c 0
 79 256 113 363 163 433 c 0
 212 503 280 541 368 548 c 1
 387 634 l 1
 453 634 l 1
 434 547 l 1
 458 544 473 541 489 535 c 0
 554 509 598 447 598 381 c 0
 598 371 597 362 594 338 c 1
 460 338 l 1
 460 398 448 423 410 435 c 1
272 93 m 1
 344 435 l 1
 318 428 297 414 282 393 c 0
 246 344 222 263 222 191 c 0
 222 136 236 109 272 93 c 1
EndSplineSet
EndChar
StartChar: sterling
Encoding: 163 163 98
Width: 556
Flags: W
HStem: -23 125<388 411> 7 112<197 280> 316 55<110 188 316 443> 603 112<400 425>
VStem: 145 143<478 496> 193 130<261 290> 495 134<510 539>
Fore
455 371 m 1x7a
 443 316 l 1
 321 316 l 1
 323 303 323 297 323 290 c 0
 323 219 282 163 172 86 c 1
 236 115 250 119 280 119 c 0x76
 298 119 299 119 345 110 c 0
 371 105 395 102 411 102 c 0
 447 102 480 111 525 131 c 1
 543 22 l 1
 479 -11 437 -23 388 -23 c 0xb6
 361 -23 341 -20 292 -8 c 0
 247 3 224 7 197 7 c 0
 160 7 131 0 82 -21 c 1
 49 80 l 1
 153 141 193 191 193 261 c 0x76
 193 276 192 288 188 316 c 1
 99 316 l 1
 111 371 l 1
 171 371 l 1
 150 432 145 451 145 478 c 0
 145 534 176 597 224 642 c 0
 276 690 344 715 425 715 c 0
 559 715 629 655 629 539 c 0
 629 522 628 509 625 484 c 1
 494 484 l 1
 495 494 495 505 495 510 c 0
 495 572 464 603 402 603 c 0
 341 603 288 553 288 496 c 0
 288 482 289 475 300 436 c 0
 309 402 313 386 316 371 c 1
 455 371 l 1x7a
EndSplineSet
EndChar
StartChar: fraction
Encoding: 164 8260 99
Width: 167
Flags: W
HStem: -20 21G<-177 -92> 695 20G<404 489>
DStem: 404 715 489 715 -177 -20 -92 -20
Fore
404 715 m 1
 489 715 l 1
 -92 -20 l 1
 -177 -20 l 1
 404 715 l 1
EndSplineSet
EndChar
StartChar: yen
Encoding: 165 165 100
Width: 556
Flags: W
HStem: 0 21G<215 355> 180 60<119 253 406 537> 292 60<142 277 435 561> 684 20G<155 294 566 702>
DStem: 155 704 294 704 283 352 379 450 253 180 393 180 215 0 355 0 566 704 702 704 379 450 435 352
Fore
574 352 m 1
 561 292 l 1
 417 292 l 1
 406 240 l 1
 550 240 l 1
 537 180 l 1
 393 180 l 1
 355 0 l 1
 215 0 l 1
 253 180 l 1
 107 180 l 1
 120 240 l 1
 266 240 l 1
 277 292 l 1
 131 292 l 1
 143 352 l 1
 283 352 l 1
 155 704 l 1
 294 704 l 1
 379 450 l 1
 566 704 l 1
 702 704 l 1
 435 352 l 1
 574 352 l 1
EndSplineSet
EndChar
StartChar: florin
Encoding: 166 402 101
Width: 556
Flags: W
HStem: -220 116<65 82> 383 100<206 309 480 582> 629 115<582 605>
DStem: 309 383 445 383 170 7 305 1
Fore
603 483 m 1
 582 383 l 1
 445 383 l 1
 305 1 l 2
 274 -84 242 -137 200 -172 c 0
 165 -202 114 -220 65 -220 c 0
 33 -220 8 -214 -21 -198 c 1
 28 -83 l 1
 45 -96 64 -104 80 -104 c 0
 116 -104 139 -76 170 7 c 2
 309 383 l 1
 186 383 l 1
 207 483 l 1
 345 483 l 1
 368 542 l 2
 422 681 493 744 598 744 c 0
 629 744 650 740 690 727 c 1
 646 613 l 1
 621 626 610 629 594 629 c 0
 555 629 522 594 495 524 c 1
 480 483 l 1
 603 483 l 1
EndSplineSet
EndChar
StartChar: section
Encoding: 167 167 102
Width: 556
Flags: W
HStem: -201 112<232 258> -20 20G<65 196> 544 21G<462 589> 621 102<398 425>
VStem: 56 137<-59 -34> 89 130<247 301> 178 148<524 559> 348 148<-15 27> 448 130<247 302> 463 133<562 594>
Fore
589 544 m 1xf240
 462 544 l 1
 463 551 463 558 463 562 c 0xf240
 463 600 441 621 401 621 c 0
 358 621 326 594 326 559 c 0
 326 538 347 516 397 485 c 2
 509 415 l 2
 557 385 578 350 578 302 c 0
 578 254 564 212 539 183 c 0
 517 157 496 144 448 126 c 1xf280
 481 99 496 68 496 27 c 0
 496 -19 476 -71 441 -111 c 1
 392 -170 320 -201 232 -201 c 0
 124 -201 56 -146 56 -59 c 0
 56 -40 58 -26 65 0 c 1
 196 0 l 1
 194 -17 193 -24 193 -34 c 0xf9
 193 -70 216 -89 258 -89 c 0
 309 -89 348 -57 348 -15 c 0
 348 12 343 18 293 49 c 1
 143 149 l 2
 109 172 89 208 89 247 c 0xf5
 89 291 102 329 128 359 c 0
 149 383 163 395 216 428 c 1
 190 455 178 485 178 524 c 0
 178 571 202 622 243 659 c 0
 287 700 352 723 425 723 c 0
 532 723 596 675 596 594 c 0
 596 580 594 569 589 544 c 1xf240
258 247 m 2
 383 170 l 1
 430 192 448 214 448 247 c 0
 448 271 437 285 402 306 c 2
 275 382 l 1
 237 362 219 335 219 301 c 0xf480
 219 279 229 264 258 247 c 2
EndSplineSet
EndChar
StartChar: currency
Encoding: 168 164 103
Width: 556
Flags: W
HStem: 147 98<317 339> 460 98<377 404>
VStem: 149 100<310 330> 463 100<375 397>
DStem: 160 246 214 178 66 169 120 100 590 601 644 532 501 528 553 457
Fore
501 528 m 1
 590 601 l 1
 644 532 l 1
 553 457 l 1
 560 434 563 416 563 397 c 0
 563 346 543 292 507 246 c 1
 567 170 l 1
 484 102 l 1
 425 177 l 1
 377 153 354 147 317 147 c 0
 279 147 235 160 214 178 c 1
 120 100 l 1
 66 169 l 1
 160 246 l 1
 152 270 149 288 149 310 c 0
 149 360 170 415 204 457 c 1
 142 536 l 1
 225 604 l 1
 286 527 l 1
 320 546 365 558 404 558 c 0
 439 558 476 546 501 528 c 1
377 460 m 0
 305 460 249 403 249 330 c 0
 249 280 284 245 335 245 c 0
 406 245 463 303 463 375 c 0
 463 425 427 460 377 460 c 0
EndSplineSet
EndChar
StartChar: quotesingle
Encoding: 169 39 104
Width: 238
Flags: W
HStem: 709 20G<205 343>
Fore
343 729 m 1
 315 599 l 1
 245 470 l 1
 190 470 l 1
 177 599 l 1
 205 729 l 1
 343 729 l 1
EndSplineSet
EndChar
StartChar: quotedblleft
Encoding: 170 8220 105
Width: 500
Flags: W
Fore
306 469 m 1
 171 469 l 1
 194 578 l 1
 208 665 272 722 361 729 c 1
 351 683 l 1
 293 673 261 644 252 594 c 1
 333 594 l 1
 306 469 l 1
533 469 m 1
 398 469 l 1
 421 578 l 1
 435 665 499 722 588 729 c 1
 578 683 l 1
 520 673 488 644 479 594 c 1
 560 594 l 1
 533 469 l 1
EndSplineSet
KernsSLIF: 89 -15 1 0 87 9 1 0 84 -11 1 0 262 -72 1 0 256 -72 1 0 257 -72 1 0 225 -64 1 0 65 -72 1 0
EndChar
StartChar: guillemotleft
Encoding: 171 171 106
Width: 556
Flags: W
DStem: 135 218 213 275 271 72 295 186 348 218 426 275 484 72 508 186 358 481 333 364 159 332 213 275 571 481 546 364 372 332 426 275
Fore
135 218 m 1
 159 332 l 1
 358 481 l 1
 333 364 l 1
 213 275 l 1
 295 186 l 1
 271 72 l 1
 135 218 l 1
348 218 m 1
 372 332 l 1
 571 481 l 1
 546 364 l 1
 426 275 l 1
 508 186 l 1
 484 72 l 1
 348 218 l 1
EndSplineSet
EndChar
StartChar: guilsinglleft
Encoding: 172 8249 107
Width: 333
Flags: W
DStem: 128 218 206 275 264 72 288 186 351 481 326 364 152 332 206 275
Fore
128 218 m 1
 152 332 l 1
 351 481 l 1
 326 364 l 1
 206 275 l 1
 288 186 l 1
 264 72 l 1
 128 218 l 1
EndSplineSet
EndChar
StartChar: guilsinglright
Encoding: 173 8250 108
Width: 333
Flags: W
DStem: 159 367 183 481 241 278 319 335 241 278 295 220 121 189 96 72
Fore
319 335 m 1
 295 220 l 1
 96 72 l 1
 121 189 l 1
 241 278 l 1
 159 367 l 1
 183 481 l 1
 319 335 l 1
EndSplineSet
KernsSLIF: 89 -113 1 0 87 -60 1 0 86 -79 1 0 84 -110 1 0 262 -52 1 0 256 -52 1 0 257 -52 1 0 225 -42 1 0 65 -52 1 0
EndChar
StartChar: fi
Encoding: 174 64257 109
Width: 611
Flags: W
HStem: 0 21G<85 225 408 548> 436 93<120 178 337 400> 625 104<382 410>
DStem: 178 436 318 436 85 0 225 0 523 540 663 540 408 0 548 0
Fore
663 540 m 1
 548 0 l 1
 408 0 l 1
 523 540 l 1
 663 540 l 1
703 729 m 1
 676 604 l 1
 536 604 l 1
 563 729 l 1
 703 729 l 1
420 529 m 1
 400 436 l 1
 318 436 l 1
 225 0 l 1
 85 0 l 1
 178 436 l 1
 101 436 l 1
 121 529 l 1
 197 529 l 1
 211 594 l 2
 231 687 284 729 382 729 c 0
 400 729 417 728 459 726 c 1
 437 621 l 1
 410 624 405 625 395 625 c 0
 370 625 355 611 349 582 c 1
 337 529 l 1
 420 529 l 1
EndSplineSet
Ligature: 0 0 'liga' f i
EndChar
StartChar: fl
Encoding: 175 64258 110
Width: 611
Flags: W
HStem: 0 21G<88 228 406 546> 436 93<123 181 340 403> 625 104<385 409>
DStem: 181 436 321 436 88 0 228 0 561 729 701 729 406 0 546 0
Fore
701 729 m 1
 546 0 l 1
 406 0 l 1
 561 729 l 1
 701 729 l 1
423 529 m 1
 403 436 l 1
 321 436 l 1
 228 0 l 1
 88 0 l 1
 181 436 l 1
 104 436 l 1
 124 529 l 1
 200 529 l 1
 214 594 l 2
 234 687 287 729 385 729 c 0
 403 729 420 728 462 726 c 1
 440 621 l 1
 413 624 408 625 398 625 c 0
 373 625 358 611 352 582 c 1
 340 529 l 1
 423 529 l 1
EndSplineSet
Ligature: 0 0 'liga' f l
EndChar
StartChar: endash
Encoding: 177 8211 111
Width: 556
Flags: W
HStem: 207 104<56 602>
Fore
624 311 m 1
 602 207 l 1
 35 207 l 1
 57 311 l 1
 624 311 l 1
EndSplineSet
EndChar
StartChar: dagger
Encoding: 178 8224 112
Width: 556
Flags: W
HStem: 369 116<133 288 447 601> 689 20G<361 494>
DStem: 288 369 422 369 169 -194 303 -194 361 709 494 709 313 485 447 485
Fore
626 485 m 1
 601 369 l 1
 422 369 l 1
 303 -194 l 1
 169 -194 l 1
 288 369 l 1
 109 369 l 1
 134 485 l 1
 313 485 l 1
 361 709 l 1
 494 709 l 1
 447 485 l 1
 626 485 l 1
EndSplineSet
EndChar
StartChar: daggerdbl
Encoding: 179 8225 113
Width: 556
Flags: W
HStem: 30 116<59 214 372 526> 369 116<131 286 444 598> 689 20G<358 492>
DStem: 214 30 348 30 166 -194 300 -194 286 369 420 369 238 146 372 146 358 709 492 709 310 485 444 485
Fore
623 485 m 1
 598 369 l 1
 420 369 l 1
 372 146 l 1
 551 146 l 1
 526 30 l 1
 348 30 l 1
 300 -194 l 1
 166 -194 l 1
 214 30 l 1
 35 30 l 1
 60 146 l 1
 238 146 l 1
 286 369 l 1
 107 369 l 1
 132 485 l 1
 310 485 l 1
 358 709 l 1
 492 709 l 1
 444 485 l 1
 623 485 l 1
EndSplineSet
EndChar
StartChar: periodcentered
Encoding: 180 183 114
Width: 278
Flags: W
Fore
270 282 m 1
 248 182 l 1
 143 182 l 1
 165 282 l 1
 270 282 l 1
EndSplineSet
EndChar
StartChar: paragraph
Encoding: 182 182 115
Width: 556
Flags: W
HStem: 656 73<382 527 382 669>
DStem: 284 267 465 656 187 -191 285 -191 527 656 625 656 347 -191 445 -191
Fore
684 729 m 1
 669 656 l 1
 625 656 l 1
 445 -191 l 1
 347 -191 l 1
 527 656 l 1
 465 656 l 1
 285 -191 l 1
 187 -191 l 1
 284 267 l 1
 184 272 121 337 121 435 c 0
 121 512 153 588 210 649 c 0
 260 703 317 729 382 729 c 2
 684 729 l 1
EndSplineSet
EndChar
StartChar: bullet
Encoding: 183 8226 116
Width: 350
Flags: W
Fore
258 425 m 0
 320 425 367 380 367 321 c 0
 367 246 295 175 217 175 c 0
 156 175 111 219 111 279 c 0
 111 356 181 425 258 425 c 0
EndSplineSet
EndChar
StartChar: quotesinglbase
Encoding: 184 8218 117
Width: 278
Flags: W
HStem: -20 20G<65 146>
Fore
92 125 m 1
 228 125 l 1
 205 16 l 1
 193 -72 131 -128 37 -135 c 1
 47 -89 l 1
 105 -79 137 -50 146 0 c 1
 65 0 l 1
 92 125 l 1
EndSplineSet
EndChar
StartChar: quotedblbase
Encoding: 185 8222 118
Width: 500
Flags: W
HStem: -20 20G<65 146 300 381>
Fore
92 125 m 1
 227 125 l 1
 204 16 l 1
 190 -71 126 -128 37 -135 c 1
 47 -89 l 1
 105 -79 137 -50 146 0 c 1
 65 0 l 1
 92 125 l 1
327 125 m 1
 462 125 l 1
 439 16 l 1
 425 -71 361 -128 272 -135 c 1
 282 -89 l 1
 340 -79 372 -50 381 0 c 1
 300 0 l 1
 327 125 l 1
EndSplineSet
KernsSLIF: 89 -96 1 0 87 -54 1 0 86 -77 1 0 84 -79 1 0 225 19 1 0 65 7 1 0
EndChar
StartChar: quotedblright
Encoding: 186 8221 119
Width: 500
Flags: W
HStem: 709 20G<228 363 460 595>
Fore
228 729 m 1
 363 729 l 1
 340 620 l 1
 326 533 262 476 173 469 c 1
 183 515 l 1
 241 525 273 554 282 604 c 1
 201 604 l 1
 228 729 l 1
460 729 m 1
 595 729 l 1
 572 620 l 1
 558 533 494 476 405 469 c 1
 415 515 l 1
 473 525 505 554 514 604 c 1
 433 604 l 1
 460 729 l 1
EndSplineSet
KernsSLIF: 89 -14 1 0 87 11 1 0 86 1 1 0 84 -7 1 0 262 -72 1 0 256 -72 1 0 257 -72 1 0 225 -64 1 0 65 -72 1 0
EndChar
StartChar: guillemotright
Encoding: 187 187 120
Width: 556
Flags: W
DStem: 166 367 190 481 248 278 326 335 248 278 302 220 128 189 103 72 373 367 397 481 455 278 533 335 455 278 509 220 335 189 310 72
Fore
326 335 m 1
 302 220 l 1
 103 72 l 1
 128 189 l 1
 248 278 l 1
 166 367 l 1
 190 481 l 1
 326 335 l 1
533 335 m 1
 509 220 l 1
 310 72 l 1
 335 189 l 1
 455 278 l 1
 373 367 l 1
 397 481 l 1
 533 335 l 1
EndSplineSet
KernsSLIF: 89 -117 1 0 87 -65 1 0 86 -84 1 0 84 -115 1 0 262 -56 1 0 256 -56 1 0 257 -56 1 0 225 -46 1 0 65 -56 1 0
EndChar
StartChar: ellipsis
Encoding: 188 8230 121
Width: 1000
Flags: W
HStem: 0 146<122 242 455 575 788 908>
DStem: 123 146 273 146 92 0 242 0 456 146 606 146 425 0 575 0 789 146 939 146 758 0 908 0
Fore
273 146 m 1
 242 0 l 1
 92 0 l 1
 123 146 l 1
 273 146 l 1
606 146 m 1
 575 0 l 1
 425 0 l 1
 456 146 l 1
 606 146 l 1
939 146 m 1
 908 0 l 1
 758 0 l 1
 789 146 l 1
 939 146 l 1
EndSplineSet
Ligature: 0 1 'liga' period period period
EndChar
StartChar: perthousand
Encoding: 189 8240 122
Width: 1000
Flags: W
HStem: -20 78<469 487 838 856> 198 78<510 528 879 897> 443 78<257 275> 661 78<298 316>
VStem: 134 80<560 577> 347 80<97 114> 360 80<604 622> 572 80<141 159> 716 80<97 114> 941 80<141 159>
DStem: 654 738 721 738 72 -21 138 -21
Fore
654 738 m 1xf9c0
 721 738 l 1
 138 -21 l 1
 72 -21 l 1
 654 738 l 1xf9c0
316 739 m 0
 388 739 440 690 440 622 c 0xfbc0
 440 528 353 443 257 443 c 0
 187 443 134 493 134 560 c 0
 134 653 222 739 316 739 c 0
299 661 m 0
 255 661 214 620 214 575 c 0
 214 545 240 521 275 521 c 0
 319 521 360 561 360 604 c 0
 360 637 334 661 299 661 c 0
528 276 m 0
 600 276 652 227 652 159 c 0
 652 66 565 -20 469 -20 c 0
 399 -20 347 30 347 97 c 0xfdc0
 347 190 434 276 528 276 c 0
512 198 m 0
 468 198 427 157 427 112 c 0
 427 82 453 58 487 58 c 0
 531 58 572 98 572 141 c 0
 572 174 546 198 512 198 c 0
897 276 m 0
 969 276 1021 227 1021 159 c 0
 1021 66 934 -20 838 -20 c 0
 768 -20 716 30 716 97 c 0
 716 190 803 276 897 276 c 0
881 198 m 0
 837 198 796 157 796 112 c 0
 796 82 822 58 856 58 c 0
 900 58 941 98 941 141 c 0
 941 174 915 198 881 198 c 0
EndSplineSet
EndChar
StartChar: questiondown
Encoding: 191 191 123
Width: 611
Flags: W
HStem: -204 124<268 294> 520 20G<337 487>
VStem: 52 143<-26 7>
DStem: 337 540 487 540 306 394 456 394
Fore
310 339 m 1
 432 339 l 1
 425 262 386 207 292 141 c 0
 236 102 226 93 211 67 c 0
 201 48 195 27 195 7 c 0
 195 -44 233 -80 287 -80 c 0
 354 -80 404 -28 420 59 c 1
 556 59 l 1
 537 -25 515 -74 476 -117 c 0
 423 -174 352 -204 268 -204 c 0
 135 -204 52 -135 52 -26 c 0
 52 18 66 69 89 108 c 0
 111 144 147 175 219 220 c 0
 287 261 296 273 310 339 c 1
306 394 m 1
 337 540 l 1
 487 540 l 1
 456 394 l 1
 306 394 l 1
EndSplineSet
EndChar
StartChar: grave
Encoding: 193 96 124
Width: 333
Flags: W
HStem: 607 150<175 339>
Fore
175 757 m 1
 294 757 l 1
 339 607 l 1
 276 607 l 1
 175 757 l 1
EndSplineSet
EndChar
StartChar: acute
Encoding: 194 180 125
Width: 333
Flags: W
Fore
475 757 m 1
 317 607 l 1
 247 607 l 1
 349 757 l 1
 475 757 l 1
EndSplineSet
Ligature: 0 1 'liga' space acutecomb
EndChar
StartChar: circumflex
Encoding: 195 710 126
Width: 333
Flags: W
HStem: 610 147<274 453>
DStem: 274 757 314 707 135 610 211 610
Fore
274 757 m 1
 382 757 l 1
 453 610 l 1
 375 610 l 1
 314 707 l 1
 211 610 l 1
 135 610 l 1
 274 757 l 1
EndSplineSet
EndChar
StartChar: tilde
Encoding: 196 732 127
Width: 333
Flags: W
HStem: 724 20G<446 500>
Fore
446 744 m 1
 500 744 l 1
 489 705 478 683 459 663 c 0
 434 637 399 622 367 622 c 0
 350 622 329 627 316 633 c 2
 266 658 l 2
 251 665 230 672 222 672 c 0
 204 672 188 657 171 624 c 1
 117 624 l 1
 140 699 184 741 238 741 c 0
 263 741 277 738 309 724 c 2
 359 703 l 2
 378 694 380 693 392 693 c 0
 415 693 432 710 446 744 c 1
EndSplineSet
Ligature: 0 1 'liga' space tildecomb
EndChar
StartChar: macron
Encoding: 197 175 128
Width: 333
Flags: W
HStem: 642 80<166 450>
Fore
467 722 m 1
 450 642 l 1
 150 642 l 1
 167 722 l 1
 467 722 l 1
EndSplineSet
Ligature: 0 1 'liga' space uni0304
EndChar
StartChar: breve
Encoding: 198 728 129
Width: 333
Flags: W
VStem: 188 48<715 746>
Fore
413 754 m 1
 455 754 l 1
 441 672 373 611 294 611 c 0
 231 611 188 653 188 715 c 0
 188 727 189 736 194 754 c 1
 236 754 l 1
 236 746 l 2
 236 710 263 689 310 689 c 0
 361 689 396 711 413 754 c 1
EndSplineSet
Ligature: 0 1 'liga' space uni0306
EndChar
StartChar: dotaccent
Encoding: 199 729 130
Width: 333
Flags: W
HStem: 721 20G<267 377>
DStem: 267 741 377 741 241 621 351 621
Fore
377 741 m 1
 351 621 l 1
 241 621 l 1
 267 741 l 1
 377 741 l 1
EndSplineSet
Ligature: 0 1 'liga' space uni0307
EndChar
StartChar: dieresis
Encoding: 200 168 131
Width: 333
Flags: W
HStem: 621 120<172 257 358 443>
DStem: 173 741 283 741 147 621 257 621 359 741 469 741 333 621 443 621
Fore
283 741 m 1
 257 621 l 1
 147 621 l 1
 173 741 l 1
 283 741 l 1
469 741 m 1
 443 621 l 1
 333 621 l 1
 359 741 l 1
 469 741 l 1
EndSplineSet
Ligature: 0 1 'liga' space uni0308
EndChar
StartChar: ring
Encoding: 202 730 132
Width: 333
Flags: W
HStem: 593 50<286 299> 723 50<314 326>
VStem: 214 49<664 677> 349 49<688 702>
Fore
326 773 m 0
 368 773 398 743 398 702 c 0
 398 645 344 593 286 593 c 0
 244 593 214 623 214 664 c 0
 214 721 268 773 326 773 c 0
316 723 m 0
 289 723 263 700 263 675 c 0
 263 657 277 643 297 643 c 0
 324 643 349 667 349 692 c 0
 349 710 335 723 316 723 c 0
EndSplineSet
Ligature: 0 1 'liga' space uni030A
EndChar
StartChar: cedilla
Encoding: 203 184 133
Width: 333
Flags: W
HStem: -220 50<98 122> -20 20G<154 204>
VStem: 183 87<-128 -113>
DStem: 154 0 204 0 86 -106 163 -62
Fore
154 0 m 1
 204 0 l 1
 163 -62 l 1
 179 -58 191 -56 206 -56 c 0
 246 -56 270 -77 270 -113 c 0
 270 -178 210 -220 120 -220 c 0
 75 -220 43 -213 -13 -191 c 1
 17 -140 l 1
 64 -163 87 -170 115 -170 c 0
 153 -170 183 -150 183 -126 c 0
 183 -106 165 -93 139 -93 c 0
 122 -93 110 -96 86 -106 c 1
 154 0 l 1
EndSplineSet
Ligature: 0 1 'liga' space uni0327
EndChar
StartChar: hungarumlaut
Encoding: 205 733 134
Width: 333
Flags: W
Fore
310 757 m 1
 152 610 l 1
 82 610 l 1
 184 757 l 1
 310 757 l 1
498 757 m 1
 340 610 l 1
 270 610 l 1
 372 757 l 1
 498 757 l 1
EndSplineSet
Ligature: 0 1 'liga' space uni030B
EndChar
StartChar: ogonek
Encoding: 206 731 135
Width: 333
Flags: W
HStem: -233 50<157 177> -20 20G<174 248>
Fore
174 0 m 1
 248 0 l 1
 182 -38 176 -42 157 -66 c 0
 134 -95 123 -120 123 -143 c 0
 123 -169 140 -183 173 -183 c 0
 199 -183 224 -179 244 -172 c 1
 234 -224 l 1
 202 -230 181 -233 157 -233 c 0
 74 -233 23 -204 23 -157 c 0
 23 -115 48 -72 90 -43 c 0
 114 -26 133 -17 174 0 c 1
EndSplineSet
Ligature: 0 1 'liga' space uni0328
EndChar
StartChar: caron
Encoding: 207 711 136
Width: 333
Flags: W
HStem: 610 147<167 346>
Fore
346 610 m 1
 238 610 l 1
 167 757 l 1
 245 757 l 1
 306 660 l 1
 409 757 l 1
 485 757 l 1
 346 610 l 1
EndSplineSet
EndChar
StartChar: emdash
Encoding: 208 8212 137
Width: 1000
Flags: W
HStem: 207 104<58 1048>
Fore
1070 311 m 1
 1048 207 l 1
 37 207 l 1
 59 311 l 1
 1070 311 l 1
EndSplineSet
EndChar
StartChar: uniFFFD
Encoding: 209 65533 138
Width: 333
Flags: W
HStem: -233 50<95 114> -20 20G<23 97>
Fore
97 0 m 1
 23 0 l 1
 89 -38 95 -42 114 -66 c 0
 137 -95 148 -120 148 -143 c 0
 148 -169 131 -183 98 -183 c 0
 72 -183 47 -179 27 -172 c 1
 37 -224 l 1
 69 -230 90 -233 114 -233 c 0
 197 -233 248 -204 248 -157 c 0
 248 -115 223 -72 181 -43 c 0
 157 -26 138 -17 97 0 c 1
EndSplineSet
Colour: ffffff
EndChar
StartChar: AE
Encoding: 225 198 138
Width: 1000
Flags: W
HStem: 0 125<609 968> 0 277<310 968> 152 125<310 464> 314 125<675 988> 604 125<421 561 421 1078>
DStem: 421 729 495 604 1 0 310 277 421 729 245 152 1 0 160 0 561 604 711 604 491 277 675 439 561 604 649 314 491 277 609 125
Fore
464 152 m 1x38
 245 152 l 1x38
 160 0 l 1
 1 0 l 1x58
 421 729 l 1
 1104 729 l 1
 1078 604 l 1
 711 604 l 1
 675 439 l 1
 1014 439 l 1
 988 314 l 1
 649 314 l 1
 609 125 l 1
 995 125 l 1
 968 0 l 1x98
 432 0 l 1x58
 464 152 l 1x38
491 277 m 1x58
 561 604 l 1
 495 604 l 1
 310 277 l 1
 491 277 l 1x58
EndSplineSet
EndChar
StartChar: ordfeminine
Encoding: 227 170 139
Width: 370
Flags: W
HStem: 262 80<112 380> 385 68<217 263> 661 68<312 339>
VStem: 134 87<463 483> 366 85<636 657>
Fore
396 342 m 1
 380 262 l 1
 96 262 l 1
 113 342 l 1
 396 342 l 1
420 409 m 1
 418 399 l 1
 326 399 l 1
 323 405 322 409 322 415 c 0
 322 419 322 421 324 431 c 1
 288 399 257 385 217 385 c 0
 166 385 134 415 134 463 c 0
 134 526 182 575 256 586 c 2
 290 592 l 2
 333 598 333 598 346 604 c 0
 358 610 366 623 366 636 c 0
 366 653 353 661 322 661 c 0
 284 661 265 649 255 617 c 1
 176 617 l 1
 193 692 247 729 337 729 c 0
 408 729 451 702 451 657 c 0
 451 649 450 640 448 629 c 1
 409 449 l 2
 408 444 408 441 408 436 c 0
 408 428 412 419 420 409 c 1
344 529 m 2
 349 552 l 1
 342 549 340 548 333 546 c 0
 331 546 327 545 321 544 c 2
 311 543 l 1
 281 537 l 2
 243 531 221 511 221 483 c 0
 221 464 236 453 263 453 c 0
 304 453 334 481 344 529 c 2
EndSplineSet
EndChar
StartChar: Lslash
Encoding: 232 321 140
Width: 611
Flags: W
HStem: 0 125<275 597> 709 20G<253 403>
DStem: 154 262 318 327 98 0 275 125 253 729 403 729 174 356 338 421 525 531 505 437 338 421 318 327
Fore
338 421 m 1
 525 531 l 1
 505 437 l 1
 318 327 l 1
 275 125 l 1
 624 125 l 1
 597 0 l 1
 98 0 l 1
 154 262 l 1
 54 201 l 1
 74 295 l 1
 174 356 l 1
 253 729 l 1
 403 729 l 1
 338 421 l 1
EndSplineSet
EndChar
StartChar: Oslash
Encoding: 233 216 141
Width: 778
Flags: W
HStem: -23 128<395 423> 613 128<519 547>
VStem: 109 149<261 283> 683 149<424 458>
DStem: 145 106 181 56 34 7 75 -39 650 557 678 500 264 213 294 157 864 749 906 704 763 659 798 607
Fore
181 56 m 1
 75 -39 l 1
 34 7 l 1
 145 106 l 1
 122 150 109 204 109 263 c 0
 109 377 157 503 234 595 c 0
 317 692 422 741 547 741 c 0
 641 741 713 714 763 659 c 1
 864 749 l 1
 906 704 l 1
 798 607 l 1
 821 560 832 510 832 452 c 0
 832 339 785 215 707 123 c 0
 625 27 519 -23 395 -23 c 0
 302 -23 228 4 181 56 c 1
678 500 m 1
 294 157 l 1
 323 123 367 105 421 105 c 0
 497 105 561 140 611 210 c 0
 656 271 683 358 683 439 c 0
 683 460 682 478 678 500 c 1
264 213 m 1
 650 557 l 1
 620 594 577 613 521 613 c 0
 445 613 379 577 330 509 c 0
 286 448 258 359 258 281 c 0
 258 258 260 235 264 213 c 1
EndSplineSet
KernsSLIF: 65 -34 0 0
EndChar
StartChar: OE
Encoding: 234 338 142
Width: 1000
Flags: W
HStem: -23 128<326 383> 0 125<652 971> 314 125<719 990> 604 125<636 1080> 613 128<482 495>
VStem: 90 149<245 276>
DStem: 590 540 754 604 513 178 719 439 590 540 692 314 513 178 652 125
Fore
692 314 m 1x34
 652 125 l 1
 997 125 l 1
 971 0 l 1
 481 0 l 1x74
 493 59 l 1
 437 -1 393 -23 326 -23 c 0
 185 -23 90 84 90 245 c 0
 90 377 146 527 230 619 c 0
 303 700 388 741 482 741 c 0xac
 548 741 588 723 625 677 c 1
 636 729 l 1
 1107 729 l 1
 1080 604 l 1
 754 604 l 1
 719 439 l 1
 1017 439 l 1
 990 314 l 1
 692 314 l 1x34
513 178 m 1
 590 540 l 1
 571 591 538 613 482 613 c 0
 404 613 340 568 293 482 c 0
 259 420 239 344 239 274 c 0
 239 168 292 105 383 105 c 0xac
 436 105 474 126 513 178 c 1
EndSplineSet
EndChar
StartChar: ordmasculine
Encoding: 235 186 143
Width: 365
Flags: W
HStem: 262 80<108 393> 386 63<269 287> 661 68<324 339>
VStem: 140 87<505 522> 384 87<588 610>
Fore
410 342 m 1
 393 262 l 1
 92 262 l 1
 109 342 l 1
 410 342 l 1
339 729 m 0
 421 729 471 684 471 610 c 0
 471 558 452 497 423 460 c 0
 386 411 333 386 269 386 c 0
 190 386 140 432 140 506 c 0
 140 558 159 617 188 655 c 0
 223 702 278 729 339 729 c 0
326 661 m 0
 272 661 227 597 227 520 c 0
 227 477 250 449 285 449 c 0
 339 449 384 514 384 590 c 0
 384 633 361 661 326 661 c 0
EndSplineSet
EndChar
StartChar: ae
Encoding: 241 230 144
Width: 889
Flags: W
HStem: -23 112<209 268 606 636> 226 93<568 909> 437 112<363 392 693 718>
VStem: 54 143<106 139> 784 143<319 364>
Fore
750 152 m 1
 888 152 l 1
 835 45 726 -23 606 -23 c 0
 518 -23 453 13 425 77 c 1
 355 2 301 -23 209 -23 c 0
 112 -23 54 25 54 106 c 0
 54 168 86 228 139 266 c 0
 171 289 208 303 256 311 c 2
 313 320 l 2
 385 330 385 330 406 341 c 0
 426 351 440 373 440 394 c 0
 440 424 418 437 367 437 c 0
 303 437 272 417 255 362 c 1
 124 362 l 1
 137 425 154 459 187 488 c 0
 232 528 302 549 392 549 c 0
 469 549 521 533 553 500 c 1
 599 531 659 549 718 549 c 0
 789 549 845 525 881 480 c 0
 910 445 927 397 927 351 c 0
 927 313 921 271 909 226 c 1
 547 226 l 1
 541 200 540 189 540 175 c 0
 540 124 579 89 636 89 c 0
 685 89 730 114 750 152 c 1
404 216 m 1
 412 254 l 1
 400 248 397 247 386 244 c 0
 382 244 375 242 365 241 c 2
 349 238 l 1
 299 230 l 2
 234 219 197 186 197 139 c 0
 197 106 222 89 268 89 c 0
 338 89 386 134 404 216 c 1
784 319 m 1
 784 346 l 2
 784 404 753 437 699 437 c 0
 635 437 589 396 568 319 c 1
 784 319 l 1
EndSplineSet
KernsSLIF: 121 -23 0 0 119 -7 0 0 118 -21 0 0
EndChar
StartChar: dotlessi
Encoding: 245 305 145
Width: 278
Flags: W
HStem: 0 21G<67 207> 520 20G<182 322>
DStem: 182 540 322 540 67 0 207 0
Fore
322 540 m 1
 207 0 l 1
 67 0 l 1
 182 540 l 1
 322 540 l 1
EndSplineSet
EndChar
StartChar: lslash
Encoding: 248 322 146
Width: 278
Flags: W
HStem: 0 21G<64 204> 709 20G<219 359>
DStem: 126 294 279 353 64 0 204 0 219 729 359 729 143 376 296 435
Fore
296 435 m 1
 372 480 l 1
 355 398 l 1
 279 353 l 1
 204 0 l 1
 64 0 l 1
 126 294 l 1
 50 246 l 1
 67 329 l 1
 143 376 l 1
 219 729 l 1
 359 729 l 1
 296 435 l 1
EndSplineSet
EndChar
StartChar: oslash
Encoding: 249 248 147
Width: 611
Flags: W
HStem: -23 112<304 330> 437 112<393 417>
VStem: 84 143<178 208> 494 142<319 344>
DStem: 105 80 135 36 12 2 46 -38 478 392 493 336 228 183 246 129 675 557 709 516 590 486 618 440
Fore
135 36 m 1
 46 -38 l 1
 12 2 l 1
 105 80 l 1
 91 110 84 143 84 178 c 0
 84 263 116 363 164 426 c 0
 224 505 314 549 417 549 c 0
 490 549 551 527 590 486 c 1
 675 557 l 1
 709 516 l 1
 618 440 l 1
 630 411 636 379 636 344 c 0
 636 263 603 161 556 100 c 0
 496 21 406 -23 304 -23 c 0
 233 -23 175 -2 135 36 c 1
493 336 m 1
 246 129 l 1
 263 104 294 89 328 89 c 0
 387 89 439 131 469 203 c 0
 485 239 494 283 494 321 c 0
 494 324 494 329 493 336 c 1
228 183 m 1
 478 392 l 1
 460 421 430 437 395 437 c 0
 342 437 296 406 265 350 c 0
 242 309 227 253 227 208 c 0
 227 199 227 194 228 183 c 1
EndSplineSet
EndChar
StartChar: oe
Encoding: 250 339 148
Width: 944
Flags: W
HStem: -23 112<288 315 666 695> 226 93<627 968> 437 112<378 403 756 778>
VStem: 71 143<176 205> 843 143<319 362>
Fore
809 152 m 1
 947 152 l 1
 894 45 785 -23 666 -23 c 0
 592 -23 526 6 498 50 c 1
 446 4 369 -23 288 -23 c 0
 154 -23 71 53 71 176 c 0
 71 263 103 363 151 426 c 0
 211 505 301 549 403 549 c 0
 482 549 549 522 583 477 c 1
 629 522 703 549 778 549 c 0
 848 549 905 525 941 480 c 0
 969 444 986 397 986 351 c 0
 986 313 980 271 968 226 c 1
 606 226 l 1
 600 200 599 188 599 174 c 0
 599 124 638 89 695 89 c 0
 744 89 789 114 809 152 c 1
380 437 m 0
 290 437 214 332 214 205 c 0
 214 135 253 89 313 89 c 0
 365 89 411 120 442 176 c 0
 466 218 480 271 480 320 c 0
 480 391 441 437 380 437 c 0
843 319 m 1
 843 347 l 2
 843 404 812 437 758 437 c 0
 694 437 648 396 627 319 c 1
 843 319 l 1
EndSplineSet
EndChar
StartChar: germandbls
Encoding: 251 223 149
Width: 611
Flags: W
HStem: -23 119<319 349> 349 95<374 396.196> 617 112<422 452>
VStem: 487 143<251 277> 511 143<552 582>
DStem: 186 558 321 537 67 0 207 0
Fore
359 349 m 1xf0
 379 444 l 1
 420 444 449 453 471 471 c 0
 495 490 511 522 511 552 c 0
 511 593 477 617 422 617 c 0
 367 617 332 590 321 537 c 1
 207 0 l 1
 67 0 l 1
 186 558 l 2
 208 662 312 729 452 729 c 0
 574 729 654 670 654 582 c 0xe8
 654 504 606 437 532 411 c 1
 594 397 630 348 630 277 c 0
 630 223 607 153 574 103 c 0
 519 22 439 -23 349 -23 c 0
 329 -23 313 -21 281 -16 c 1
 305 96 l 1
 319 96 l 2
 374 97 402 106 433 133 c 0
 467 163 487 207 487 251 c 0
 487 316 449 349 374 349 c 2
 359 349 l 1xf0
EndSplineSet
EndChar
StartChar: Adieresis
Encoding: 256 196 150
Width: 722
Flags: W
HStem: 0 21G<26 179 550 703> 147 125<329 532> 709 20G<433 606> 800 120<411 496 597 682>
DStem: 412 920 522 920 386 800 496 800 433 729 483 555 26 0 329 272 433 729 260 147 26 0 179 0 483 555 606 729 518 272 703 0 532 147 606 729 550 0 703 0 598 920 708 920 572 800 682 800
Fore
532 147 m 1
 260 147 l 1
 179 0 l 1
 26 0 l 1
 433 729 l 1
 606 729 l 1
 703 0 l 1
 550 0 l 1
 532 147 l 1
518 272 m 1
 483 555 l 1
 329 272 l 1
 518 272 l 1
522 920 m 1
 496 800 l 1
 386 800 l 1
 412 920 l 1
 522 920 l 1
708 920 m 1
 682 800 l 1
 572 800 l 1
 598 920 l 1
 708 920 l 1
EndSplineSet
KernsSLIF: 121 -41 0 0 119 -28 0 0 118 -42 0 0 117 -17 0 0 116 -22 0 0 39 -67 0 0 186 -71 0 0 113 -13 0 0 46 12 0 0 111 -20 0 0 45 2 0 0 172 -44 0 0 171 -48 0 0 103 -20 0 0 100 -17 0 0 44 9 0 0 99 -17 0 0 98 -10 0 0 97 -11 0 0 89 -96 0 0 87 -57 0 0 86 -74 0 0 85 -38 0 0 84 -91 0 0 81 -39 0 0 79 -38 0 0 71 -38 0 0 67 -37 0 0
Ligature: 0 0 'liga' A uni0308
EndChar
StartChar: Aacute
Encoding: 257 193 151
Width: 722
Flags: W
HStem: 0 21G<26 179 550 703> 147 125<329 532> 709 20G<433 606>
DStem: 433 729 483 555 26 0 329 272 433 729 260 147 26 0 179 0 483 555 606 729 518 272 703 0 532 147 606 729 550 0 703 0
Fore
532 147 m 1
 260 147 l 1
 179 0 l 1
 26 0 l 1
 433 729 l 1
 606 729 l 1
 703 0 l 1
 550 0 l 1
 532 147 l 1
518 272 m 1
 483 555 l 1
 329 272 l 1
 518 272 l 1
714 936 m 1
 556 786 l 1
 486 786 l 1
 588 936 l 1
 714 936 l 1
EndSplineSet
KernsSLIF: 121 -41 0 0 119 -29 0 0 118 -42 0 0 117 -18 0 0 116 -22 0 0 39 -67 0 0 113 -14 0 0 46 12 0 0 111 -20 0 0 45 2 0 0 172 -45 0 0 171 -48 0 0 103 -20 0 0 101 -11 0 0 100 -17 0 0 44 9 0 0 99 -17 0 0 98 -10 0 0 97 -11 0 0 89 -96 0 0 87 -57 0 0 86 -74 0 0 85 -38 0 0 84 -91 0 0 81 -40 0 0 79 -38 0 0 71 -38 0 0 67 -37 0 0
Ligature: 0 0 'liga' A acutecomb
EndChar
StartChar: Agrave
Encoding: 258 192 152
Width: 722
Flags: W
HStem: 0 21G<26 179 550 703> 147 125<329 532> 709 20G<433 606> 786 150<407 571>
DStem: 433 729 483 555 26 0 329 272 433 729 260 147 26 0 179 0 483 555 606 729 518 272 703 0 532 147 606 729 550 0 703 0
Fore
532 147 m 1
 260 147 l 1
 179 0 l 1
 26 0 l 1
 433 729 l 1
 606 729 l 1
 703 0 l 1
 550 0 l 1
 532 147 l 1
518 272 m 1
 483 555 l 1
 329 272 l 1
 518 272 l 1
407 936 m 1
 526 936 l 1
 571 786 l 1
 508 786 l 1
 407 936 l 1
EndSplineSet
KernsSLIF: 46 13 0 0 44 9 0 0 89 -96 0 0 87 -57 0 0 86 -74 0 0 85 -37 0 0 84 -91 0 0 81 -39 0 0 79 -37 0 0 71 -38 0 0 67 -36 0 0
Ligature: 0 0 'liga' A gravecomb
EndChar
StartChar: Acircumflex
Encoding: 259 194 153
Width: 722
Flags: W
HStem: 0 21G<26 179 550 703> 147 125<329 532> 709 20G<433 606> 789 147<511 690>
DStem: 433 729 483 555 26 0 329 272 433 729 260 147 26 0 179 0 483 555 606 729 518 272 703 0 511 936 551 886 372 789 448 789 532 147 606 729 550 0 703 0
Fore
532 147 m 1
 260 147 l 1
 179 0 l 1
 26 0 l 1
 433 729 l 1
 606 729 l 1
 703 0 l 1
 550 0 l 1
 532 147 l 1
518 272 m 1
 483 555 l 1
 329 272 l 1
 518 272 l 1
511 936 m 1
 619 936 l 1
 690 789 l 1
 612 789 l 1
 551 886 l 1
 448 789 l 1
 372 789 l 1
 511 936 l 1
EndSplineSet
KernsSLIF: 46 13 0 0 44 9 0 0 89 -96 0 0 87 -57 0 0 86 -74 0 0 85 -37 0 0 84 -91 0 0 81 -39 0 0 79 -37 0 0 71 -38 0 0 67 -36 0 0
Ligature: 0 0 'liga' A uni0302
EndChar
StartChar: Abreve
Encoding: 260 258 154
Width: 722
Flags: W
HStem: 0 21G<26 179 550 703> 147 125<329 532> 709 20G<433 606> 791 78<531 550>
VStem: 426 48<895 926>
DStem: 433 729 483 555 26 0 329 272 433 729 260 147 26 0 179 0 483 555 606 729 518 272 703 0 532 147 606 729 550 0 703 0
Fore
532 147 m 1
 260 147 l 1
 179 0 l 1
 26 0 l 1
 433 729 l 1
 606 729 l 1
 703 0 l 1
 550 0 l 1
 532 147 l 1
518 272 m 1
 483 555 l 1
 329 272 l 1
 518 272 l 1
651 934 m 1
 693 934 l 1
 679 852 611 791 532 791 c 0
 469 791 426 833 426 895 c 0
 426 907 427 916 432 934 c 1
 474 934 l 1
 474 926 l 2
 474 890 501 869 548 869 c 0
 599 869 634 891 651 934 c 1
EndSplineSet
Ligature: 0 0 'liga' A uni0306
EndChar
StartChar: Atilde
Encoding: 261 195 155
Width: 722
Flags: W
HStem: 0 21G<26 179 550 703> 147 125<329 532> 709 20G<433 606> 801 72<606 631> 852 69<461 477>
DStem: 433 729 483 555 26 0 329 272 433 729 260 147 26 0 179 0 483 555 606 729 518 272 703 0 532 147 606 729 550 0 703 0
Fore
532 147 m 1xe0
 260 147 l 1
 179 0 l 1
 26 0 l 1
 433 729 l 1
 606 729 l 1
 703 0 l 1
 550 0 l 1
 532 147 l 1xe0
518 272 m 1
 483 555 l 1
 329 272 l 1
 518 272 l 1
685 923 m 1
 739 923 l 1
 728 883 717 862 698 842 c 0
 673 816 638 801 606 801 c 0xf0
 589 801 568 806 555 812 c 2
 505 837 l 2
 488 846 469 852 461 852 c 0
 443 852 427 837 410 803 c 1
 356 803 l 1
 380 879 422 921 477 921 c 0xe8
 503 921 512 919 548 903 c 2
 598 882 l 2
 616 874 619 873 631 873 c 0xf0
 653 873 671 889 685 923 c 1
EndSplineSet
KernsSLIF: 46 11 0 0 44 9 0 0 89 -96 0 0 87 -57 0 0 86 -74 0 0 85 -39 0 0 84 -92 0 0 81 -41 0 0 79 -39 0 0 71 -40 0 0 67 -38 0 0
Ligature: 0 0 'liga' A tildecomb
EndChar
StartChar: Aring
Encoding: 262 197 156
Width: 722
Flags: W
HStem: 0 21G<26 179 550 703> 147 125<329 532> 709 20G<433 606> 773 50<524 537> 903 50<550 564>
VStem: 452 49<844 857> 587 49<870 882>
DStem: 433 729 483 555 26 0 329 272 433 729 260 147 26 0 179 0 483 555 606 729 518 272 703 0 532 147 606 729 550 0 703 0
Fore
532 147 m 1
 260 147 l 1
 179 0 l 1
 26 0 l 1
 433 729 l 1
 606 729 l 1
 703 0 l 1
 550 0 l 1
 532 147 l 1
518 272 m 1
 483 555 l 1
 329 272 l 1
 518 272 l 1
564 953 m 0
 606 953 636 923 636 882 c 0
 636 825 582 773 524 773 c 0
 482 773 452 803 452 844 c 0
 452 901 506 953 564 953 c 0
554 903 m 0
 527 903 501 880 501 855 c 0
 501 837 515 823 535 823 c 0
 562 823 587 847 587 872 c 0
 587 890 573 903 554 903 c 0
EndSplineSet
KernsSLIF: 121 -41 0 0 119 -28 0 0 118 -42 0 0 117 -17 0 0 116 -21 0 0 39 -67 0 0 186 -71 0 0 113 -13 0 0 46 13 0 0 111 -19 0 0 45 2 0 0 172 -44 0 0 171 -48 0 0 103 -20 0 0 101 -10 0 0 100 -17 0 0 44 9 0 0 99 -17 0 0 98 -10 0 0 97 -11 0 0 89 -96 0 0 87 -57 0 0 86 -74 0 0 85 -37 0 0 84 -91 0 0 81 -39 0 0 79 -37 0 0 71 -38 0 0 67 -36 0 0
Ligature: 0 0 'liga' A uni030A
EndChar
StartChar: Aogonek
Encoding: 263 260 157
Width: 722
Flags: W
HStem: -233 50<605 635> -20 20G<550 625> 0 21G<26 179> 147 125<329 532> 709 20G<433 606>
VStem: 469 100<-155 -140>
DStem: 433 729 483 555 26 0 329 272 433 729 260 147 26 0 179 0 483 555 606 729 518 272 703 0 532 147 606 729 550 0 703 0
Fore
532 147 m 1
 260 147 l 1
 179 0 l 1
 26 0 l 1
 433 729 l 1
 606 729 l 1
 703 0 l 1
 625 -32 569 -91 569 -140 c 0
 569 -170 586 -183 624 -183 c 0
 650 -183 672 -180 696 -172 c 1
 685 -224 l 1
 654 -231 633 -233 605 -233 c 0
 518 -233 469 -205 469 -155 c 0
 469 -115 494 -74 537 -43 c 0
 561 -25 581 -15 625 0 c 1
 550 0 l 1
 532 147 l 1
518 272 m 1
 483 555 l 1
 329 272 l 1
 518 272 l 1
EndSplineSet
Ligature: 0 0 'liga' A uni0328
EndChar
StartChar: Ccedilla
Encoding: 264 199 158
Width: 722
Flags: W
HStem: -220 50<298 329> -93 198<339 403> -23 128<389 412> 613 128<506 535>
VStem: 107 149<235 267> 383 87<-128 -113> 648 145<482 531>
DStem: 340 -22 389 -23 285 -106 363 -63
Fore
389 -23 m 1xbe
 363 -63 l 1
 377 -58 391 -56 406 -56 c 0
 446 -56 470 -77 470 -113 c 0
 470 -178 410 -220 319 -220 c 0
 275 -220 243 -213 186 -191 c 1
 216 -140 l 1
 264 -163 287 -170 315 -170 c 0
 353 -170 383 -150 383 -126 c 0
 383 -106 365 -93 339 -93 c 0
 322 -93 310 -96 285 -106 c 1
 340 -22 l 1
 199 -11 107 90 107 235 c 0
 107 363 151 499 222 586 c 1
 303 688 410 741 533 741 c 0
 688 741 793 656 793 531 c 0
 793 520 792 508 789 482 c 1
 648 482 l 1
 648 521 644 540 631 560 c 0
 610 594 569 613 516 613 c 0
 436 613 374 578 327 504 c 0
 282 434 256 347 256 265 c 0
 256 159 306 105 403 105 c 0xde
 499 105 570 157 599 249 c 1
 742 249 l 1
 701 82 565 -22 389 -23 c 1xbe
EndSplineSet
KernsSLIF: 65 -34 0 0
Ligature: 0 0 'liga' C uni0327
EndChar
StartChar: Cacute
Encoding: 265 262 159
Width: 722
Flags: W
HStem: -23 128<380 412> 613 128<506 535>
VStem: 107 149<235 266> 648 145<482 532>
Fore
789 482 m 1
 648 482 l 1
 648 521 644 540 631 560 c 0
 610 594 569 613 516 613 c 0
 436 613 374 578 327 504 c 0
 282 434 256 346 256 264 c 0
 256 159 306 105 403 105 c 0
 499 105 570 157 599 249 c 1
 742 249 l 1
 698 78 564 -23 382 -23 c 0
 211 -23 107 75 107 235 c 0
 107 364 151 499 222 587 c 0
 303 688 410 741 533 741 c 0
 688 741 793 656 793 532 c 0
 793 521 792 510 789 482 c 1
730 936 m 1
 572 786 l 1
 502 786 l 1
 604 936 l 1
 730 936 l 1
EndSplineSet
Ligature: 0 0 'liga' C acutecomb
EndChar
StartChar: Ccaron
Encoding: 266 268 160
Width: 722
Flags: W
HStem: -23 128<380 412> 613 128<506 535> 789 147<431 610>
VStem: 107 149<235 266> 648 145<482 532>
Fore
789 482 m 1
 648 482 l 1
 648 521 644 540 631 560 c 0
 610 594 569 613 516 613 c 0
 436 613 374 578 327 504 c 0
 282 434 256 346 256 264 c 0
 256 159 306 105 403 105 c 0
 499 105 570 157 599 249 c 1
 742 249 l 1
 698 78 564 -23 382 -23 c 0
 211 -23 107 75 107 235 c 0
 107 364 151 499 222 587 c 0
 303 688 410 741 533 741 c 0
 688 741 793 656 793 532 c 0
 793 521 792 510 789 482 c 1
610 789 m 1
 502 789 l 1
 431 936 l 1
 509 936 l 1
 570 839 l 1
 673 936 l 1
 749 936 l 1
 610 789 l 1
EndSplineSet
Ligature: 0 0 'liga' C uni030C
EndChar
StartChar: Dcaron
Encoding: 267 270 161
Width: 722
Flags: W
HStem: 0 125<254 398> 604 125<232 509> 789 147<368 547>
VStem: 627 149<447 481>
DStem: 232 729 355 604 77 0 254 125
Fore
77 0 m 1
 232 729 l 1
 517 729 l 2
 698 729 776 654 776 479 c 0
 776 361 735 238 664 140 c 0
 591 39 507 0 362 0 c 2
 77 0 l 1
254 125 m 1
 388 125 l 2
 475 125 524 153 567 228 c 0
 601 287 627 390 627 469 c 0
 627 560 582 604 490 604 c 2
 355 604 l 1
 254 125 l 1
547 789 m 1
 439 789 l 1
 368 936 l 1
 446 936 l 1
 507 839 l 1
 610 936 l 1
 686 936 l 1
 547 789 l 1
EndSplineSet
Ligature: 0 0 'liga' D uni030C
EndChar
StartChar: Edieresis
Encoding: 268 203 162
Width: 667
Flags: W
HStem: 0 125<256 624> 314 125<322 645> 604 125<234 735> 800 120<391 476 577 662>
DStem: 234 729 357 604 79 0 322 439 234 729 296 314 79 0 256 125 392 920 502 920 366 800 476 800 578 920 688 920 552 800 662 800
Fore
296 314 m 1
 256 125 l 1
 651 125 l 1
 624 0 l 1
 79 0 l 1
 234 729 l 1
 762 729 l 1
 735 604 l 1
 357 604 l 1
 322 439 l 1
 671 439 l 1
 645 314 l 1
 296 314 l 1
502 920 m 1
 476 800 l 1
 366 800 l 1
 392 920 l 1
 502 920 l 1
688 920 m 1
 662 800 l 1
 552 800 l 1
 578 920 l 1
 688 920 l 1
EndSplineSet
Ligature: 0 0 'liga' E uni0308
EndChar
StartChar: Eacute
Encoding: 269 201 163
Width: 667
Flags: W
HStem: 0 125<256 624> 314 125<322 645> 604 125<234 735>
DStem: 234 729 357 604 79 0 322 439 234 729 296 314 79 0 256 125
Fore
296 314 m 1
 256 125 l 1
 651 125 l 1
 624 0 l 1
 79 0 l 1
 234 729 l 1
 762 729 l 1
 735 604 l 1
 357 604 l 1
 322 439 l 1
 671 439 l 1
 645 314 l 1
 296 314 l 1
675 936 m 1
 517 786 l 1
 447 786 l 1
 549 936 l 1
 675 936 l 1
EndSplineSet
Ligature: 0 0 'liga' E acutecomb
EndChar
StartChar: Egrave
Encoding: 270 200 164
Width: 667
Flags: W
HStem: 0 125<256 624> 314 125<322 645> 604 125<234 735> 786 150<400 564>
DStem: 234 729 357 604 79 0 322 439 234 729 296 314 79 0 256 125
Fore
296 314 m 1
 256 125 l 1
 651 125 l 1
 624 0 l 1
 79 0 l 1
 234 729 l 1
 762 729 l 1
 735 604 l 1
 357 604 l 1
 322 439 l 1
 671 439 l 1
 645 314 l 1
 296 314 l 1
400 936 m 1
 519 936 l 1
 564 786 l 1
 501 786 l 1
 400 936 l 1
EndSplineSet
Ligature: 0 0 'liga' E gravecomb
EndChar
StartChar: Ecircumflex
Encoding: 271 202 165
Width: 667
Flags: W
HStem: 0 125<256 624> 314 125<322 645> 604 125<234 735> 789 147<494 673>
DStem: 234 729 357 604 79 0 322 439 234 729 296 314 79 0 256 125 494 936 534 886 355 789 431 789
Fore
296 314 m 1
 256 125 l 1
 651 125 l 1
 624 0 l 1
 79 0 l 1
 234 729 l 1
 762 729 l 1
 735 604 l 1
 357 604 l 1
 322 439 l 1
 671 439 l 1
 645 314 l 1
 296 314 l 1
494 936 m 1
 602 936 l 1
 673 789 l 1
 595 789 l 1
 534 886 l 1
 431 789 l 1
 355 789 l 1
 494 936 l 1
EndSplineSet
Ligature: 0 0 'liga' E uni0302
EndChar
StartChar: Ecaron
Encoding: 272 282 166
Width: 667
Flags: W
HStem: 0 125<256 624> 314 125<322 645> 604 125<234 735> 789 147<384 563>
DStem: 234 729 357 604 79 0 322 439 234 729 296 314 79 0 256 125
Fore
296 314 m 1
 256 125 l 1
 651 125 l 1
 624 0 l 1
 79 0 l 1
 234 729 l 1
 762 729 l 1
 735 604 l 1
 357 604 l 1
 322 439 l 1
 671 439 l 1
 645 314 l 1
 296 314 l 1
563 789 m 1
 455 789 l 1
 384 936 l 1
 462 936 l 1
 523 839 l 1
 626 936 l 1
 702 936 l 1
 563 789 l 1
EndSplineSet
Ligature: 0 0 'liga' E uni030C
EndChar
StartChar: Edotaccent
Encoding: 273 278 167
Width: 667
Flags: W
HStem: 0 125<256 624> 314 125<322 645> 604 125<234 735>
DStem: 234 729 357 604 79 0 322 439 234 729 296 314 79 0 256 125 482 918 592 918 456 798 566 798
Fore
296 314 m 1
 256 125 l 1
 651 125 l 1
 624 0 l 1
 79 0 l 1
 234 729 l 1
 762 729 l 1
 735 604 l 1
 357 604 l 1
 322 439 l 1
 671 439 l 1
 645 314 l 1
 296 314 l 1
592 918 m 1
 566 798 l 1
 456 798 l 1
 482 918 l 1
 592 918 l 1
EndSplineSet
Ligature: 0 0 'liga' E uni0307
EndChar
StartChar: Eogonek
Encoding: 274 280 168
Width: 667
Flags: W
HStem: -233 50<531 560> 0 125<256 551> 314 125<322 645> 604 125<234 735>
VStem: 395 100<-156 -141>
DStem: 234 729 357 604 79 0 322 439 234 729 296 314 79 0 256 125
Fore
296 314 m 1
 256 125 l 1
 651 125 l 1
 624 0 l 1
 533 -51 495 -93 495 -143 c 0
 495 -170 512 -183 549 -183 c 0
 576 -183 598 -180 622 -172 c 1
 611 -224 l 1
 580 -231 559 -233 531 -233 c 0
 444 -233 395 -205 395 -156 c 0
 395 -115 419 -74 463 -43 c 0
 487 -25 507 -15 551 0 c 1
 79 0 l 1
 234 729 l 1
 762 729 l 1
 735 604 l 1
 357 604 l 1
 322 439 l 1
 671 439 l 1
 645 314 l 1
 296 314 l 1
EndSplineSet
Ligature: 0 0 'liga' E uni0328
EndChar
StartChar: Gbreve
Encoding: 275 286 169
Width: 778
Flags: W
HStem: -23 128<395 426> 267 125<502 642> 613 128<517 547> 791 78<559 578>
VStem: 107 149<262 286> 454 48<895 926>
Fore
795 392 m 1
 711 -2 l 1
 621 -2 l 1
 628 88 l 1
 554 9 488 -23 395 -23 c 0
 219 -23 107 88 107 262 c 0
 107 378 155 505 233 596 c 0
 315 691 424 741 547 741 c 0
 710 741 819 655 819 529 c 0
 819 521 818 510 817 496 c 1
 679 496 l 1
 671 571 614 613 519 613 c 0
 434 613 366 575 318 501 c 0
 282 446 256 355 256 284 c 0
 256 181 328 105 426 105 c 0
 484 105 543 130 588 175 c 0
 615 201 629 226 642 267 c 1
 476 267 l 1
 503 392 l 1
 795 392 l 1
679 934 m 1
 721 934 l 1
 707 852 639 791 560 791 c 0
 497 791 454 833 454 895 c 0
 454 907 455 916 460 934 c 1
 502 934 l 1
 502 926 l 2
 502 890 529 869 576 869 c 0
 627 869 662 891 679 934 c 1
EndSplineSet
Ligature: 0 0 'liga' G uni0306
EndChar
StartChar: Idieresis
Encoding: 276 207 170
Width: 278
Flags: W
HStem: 0 21G<63 213> 709 20G<218 368> 800 120<186 271 372 457>
DStem: 187 920 297 920 161 800 271 800 218 729 368 729 63 0 213 0 373 920 483 920 347 800 457 800
Fore
368 729 m 1
 213 0 l 1
 63 0 l 1
 218 729 l 1
 368 729 l 1
297 920 m 1
 271 800 l 1
 161 800 l 1
 187 920 l 1
 297 920 l 1
483 920 m 1
 457 800 l 1
 347 800 l 1
 373 920 l 1
 483 920 l 1
EndSplineSet
Ligature: 0 0 'liga' I uni0308
EndChar
StartChar: Iacute
Encoding: 277 205 171
Width: 278
Flags: W
HStem: 0 21G<63 213> 709 20G<218 368>
DStem: 218 729 368 729 63 0 213 0
Fore
368 729 m 1
 213 0 l 1
 63 0 l 1
 218 729 l 1
 368 729 l 1
489 936 m 1
 331 786 l 1
 261 786 l 1
 363 936 l 1
 489 936 l 1
EndSplineSet
Ligature: 0 0 'liga' I acutecomb
EndChar
StartChar: Igrave
Encoding: 278 204 172
Width: 278
Flags: W
HStem: 0 21G<63 213> 709 20G<218 368> 786 150<181 345>
DStem: 218 729 368 729 63 0 213 0
Fore
368 729 m 1
 213 0 l 1
 63 0 l 1
 218 729 l 1
 368 729 l 1
181 936 m 1
 300 936 l 1
 345 786 l 1
 282 786 l 1
 181 936 l 1
EndSplineSet
Ligature: 0 0 'liga' I gravecomb
EndChar
StartChar: Icircumflex
Encoding: 279 206 173
Width: 278
Flags: W
HStem: 0 21G<63 213> 709 20G<218 368> 789 147<288 467>
DStem: 218 729 368 729 63 0 213 0 288 936 328 886 149 789 225 789
Fore
368 729 m 1
 213 0 l 1
 63 0 l 1
 218 729 l 1
 368 729 l 1
288 936 m 1
 396 936 l 1
 467 789 l 1
 389 789 l 1
 328 886 l 1
 225 789 l 1
 149 789 l 1
 288 936 l 1
EndSplineSet
Ligature: 0 0 'liga' I uni0302
EndChar
StartChar: Idotaccent
Encoding: 280 304 174
Width: 278
Flags: W
HStem: 0 21G<63 213> 709 20G<218 368>
DStem: 218 729 368 729 63 0 213 0 278 918 388 918 252 798 362 798
Fore
368 729 m 1
 213 0 l 1
 63 0 l 1
 218 729 l 1
 368 729 l 1
388 918 m 1
 362 798 l 1
 252 798 l 1
 278 918 l 1
 388 918 l 1
EndSplineSet
Ligature: 0 0 'liga' I uni0307
EndChar
StartChar: Lacute
Encoding: 281 313 175
Width: 611
Flags: W
HStem: 0 125<257 579> 709 20G<235 385>
DStem: 235 729 385 729 80 0 257 125
Fore
385 729 m 1
 257 125 l 1
 606 125 l 1
 579 0 l 1
 80 0 l 1
 235 729 l 1
 385 729 l 1
494 936 m 1
 336 786 l 1
 266 786 l 1
 368 936 l 1
 494 936 l 1
EndSplineSet
Ligature: 0 0 'liga' L acutecomb
EndChar
StartChar: Lcaron
Encoding: 282 317 176
Width: 611
Flags: W
HStem: 0 125<257 579> 709 20G<235 385 485 607>
DStem: 235 729 385 729 80 0 257 125
Fore
385 729 m 1
 257 125 l 1
 606 125 l 1
 579 0 l 1
 80 0 l 1
 235 729 l 1
 385 729 l 1
485 729 m 1
 607 729 l 1
 586 633 l 1
 576 555 509 488 433 482 c 1
 443 528 l 1
 487 536 522 572 528 617 c 1
 461 617 l 1
 485 729 l 1
EndSplineSet
Ligature: 0 0 'liga' L uni030C
EndChar
StartChar: Nacute
Encoding: 283 323 177
Width: 722
Flags: W
HStem: 0 21G<68 210 513 661> 709 20G<223 373 674 816>
DStem: 223 729 321 523 68 0 210 0 321 523 373 729 513 0 565 214 674 729 816 729 565 214 661 0
Fore
816 729 m 1
 661 0 l 1
 513 0 l 1
 321 523 l 1
 210 0 l 1
 68 0 l 1
 223 729 l 1
 373 729 l 1
 565 214 l 1
 674 729 l 1
 816 729 l 1
690 936 m 1
 532 786 l 1
 462 786 l 1
 564 936 l 1
 690 936 l 1
EndSplineSet
Ligature: 0 0 'liga' N acutecomb
EndChar
StartChar: Ncaron
Encoding: 284 327 178
Width: 722
Flags: W
HStem: 0 21G<68 210 513 661> 709 20G<223 373 674 816> 789 147<398 577>
DStem: 223 729 321 523 68 0 210 0 321 523 373 729 513 0 565 214 674 729 816 729 565 214 661 0
Fore
816 729 m 1
 661 0 l 1
 513 0 l 1
 321 523 l 1
 210 0 l 1
 68 0 l 1
 223 729 l 1
 373 729 l 1
 565 214 l 1
 674 729 l 1
 816 729 l 1
577 789 m 1
 469 789 l 1
 398 936 l 1
 476 936 l 1
 537 839 l 1
 640 936 l 1
 716 936 l 1
 577 789 l 1
EndSplineSet
Ligature: 0 0 'liga' N uni030C
EndChar
StartChar: Ntilde
Encoding: 285 209 179
Width: 722
Flags: W
HStem: 0 21G<68 210 513 661> 709 20G<223 373 674 816> 801 72<604 629> 852 69<459 475>
DStem: 223 729 321 523 68 0 210 0 321 523 373 729 513 0 565 214 674 729 816 729 565 214 661 0
Fore
816 729 m 1xc0
 661 0 l 1
 513 0 l 1
 321 523 l 1
 210 0 l 1
 68 0 l 1
 223 729 l 1
 373 729 l 1
 565 214 l 1
 674 729 l 1
 816 729 l 1xc0
683 923 m 1
 737 923 l 1
 726 883 715 862 696 842 c 0
 671 816 636 801 604 801 c 0xe0
 587 801 566 806 553 812 c 2
 503 837 l 2
 486 846 467 852 459 852 c 0
 441 852 425 837 408 803 c 1
 354 803 l 1
 378 879 420 921 475 921 c 0xd0
 501 921 510 919 546 903 c 2
 596 882 l 2
 614 874 617 873 629 873 c 0xe0
 651 873 669 889 683 923 c 1
EndSplineSet
Ligature: 0 0 'liga' N tildecomb
EndChar
StartChar: Odieresis
Encoding: 286 214 180
Width: 778
Flags: W
HStem: -23 128<395 427> 613 128<517 540> 800 120<439 524 625 710>
VStem: 106 149<259 284> 679 149<424 457>
DStem: 440 920 550 920 414 800 524 800 626 920 736 920 600 800 710 800
Fore
538 741 m 0
 721 741 828 635 828 455 c 0
 828 337 783 215 705 124 c 0
 619 22 523 -23 395 -23 c 0
 217 -23 106 86 106 261 c 0
 106 376 153 502 231 594 c 0
 313 693 414 741 538 741 c 0
519 613 m 0
 443 613 377 577 327 509 c 0
 283 448 255 360 255 282 c 0
 255 173 318 105 419 105 c 0
 496 105 559 140 609 210 c 0
 652 270 679 358 679 437 c 0
 679 547 619 613 519 613 c 0
550 920 m 1
 524 800 l 1
 414 800 l 1
 440 920 l 1
 550 920 l 1
736 920 m 1
 710 800 l 1
 600 800 l 1
 626 920 l 1
 736 920 l 1
EndSplineSet
KernsSLIF: 89 -65 0 0 88 -43 0 0 87 -24 0 0 86 -40 0 0 84 -32 0 0 65 -42 0 0
Ligature: 0 0 'liga' O uni0308
EndChar
StartChar: Oacute
Encoding: 287 211 181
Width: 778
Flags: W
HStem: -23 128<395 427> 613 128<517 540>
VStem: 106 149<259 284> 679 149<424 457>
Fore
538 741 m 0
 721 741 828 635 828 455 c 0
 828 337 783 215 705 124 c 0
 619 22 523 -23 395 -23 c 0
 217 -23 106 86 106 261 c 0
 106 376 153 502 231 594 c 0
 313 693 414 741 538 741 c 0
519 613 m 0
 443 613 377 577 327 509 c 0
 283 448 255 360 255 282 c 0
 255 173 318 105 419 105 c 0
 496 105 559 140 609 210 c 0
 652 270 679 358 679 437 c 0
 679 547 619 613 519 613 c 0
732 936 m 1
 574 786 l 1
 504 786 l 1
 606 936 l 1
 732 936 l 1
EndSplineSet
KernsSLIF: 89 -65 0 0 87 -24 0 0 86 -40 0 0 84 -32 0 0 65 -42 0 0
Ligature: 0 0 'liga' O acutecomb
EndChar
StartChar: Ograve
Encoding: 288 210 182
Width: 778
Flags: W
HStem: -23 128<395 427> 613 128<517 540> 786 150<450 614>
VStem: 106 149<259 284> 679 149<424 457>
Fore
538 741 m 0
 721 741 828 635 828 455 c 0
 828 337 783 215 705 124 c 0
 619 22 523 -23 395 -23 c 0
 217 -23 106 86 106 261 c 0
 106 376 153 502 231 594 c 0
 313 693 414 741 538 741 c 0
519 613 m 0
 443 613 377 577 327 509 c 0
 283 448 255 360 255 282 c 0
 255 173 318 105 419 105 c 0
 496 105 559 140 609 210 c 0
 652 270 679 358 679 437 c 0
 679 547 619 613 519 613 c 0
450 936 m 1
 569 936 l 1
 614 786 l 1
 551 786 l 1
 450 936 l 1
EndSplineSet
KernsSLIF: 89 -65 0 0 86 -40 0 0 84 -32 0 0
Ligature: 0 0 'liga' O gravecomb
EndChar
StartChar: Ocircumflex
Encoding: 289 212 183
Width: 778
Flags: W
HStem: -23 128<395 427> 613 128<517 540> 789 147<541 720>
VStem: 106 149<259 284> 679 149<424 457>
DStem: 541 936 581 886 402 789 478 789
Fore
538 741 m 0
 721 741 828 635 828 455 c 0
 828 337 783 215 705 124 c 0
 619 22 523 -23 395 -23 c 0
 217 -23 106 86 106 261 c 0
 106 376 153 502 231 594 c 0
 313 693 414 741 538 741 c 0
519 613 m 0
 443 613 377 577 327 509 c 0
 283 448 255 360 255 282 c 0
 255 173 318 105 419 105 c 0
 496 105 559 140 609 210 c 0
 652 270 679 358 679 437 c 0
 679 547 619 613 519 613 c 0
541 936 m 1
 649 936 l 1
 720 789 l 1
 642 789 l 1
 581 886 l 1
 478 789 l 1
 402 789 l 1
 541 936 l 1
EndSplineSet
KernsSLIF: 89 -65 0 0 86 -40 0 0 84 -32 0 0
Ligature: 0 0 'liga' O uni0302
EndChar
StartChar: Otilde
Encoding: 290 213 184
Width: 778
Flags: W
HStem: -23 128<395 427> 613 128<507 540> 801 72<636 661> 852 69<491 507>
VStem: 106 149<259 284> 679 149<424 457>
Fore
538 741 m 0xcc
 721 741 828 635 828 455 c 0
 828 337 783 215 705 124 c 0
 619 22 523 -23 395 -23 c 0
 217 -23 106 86 106 261 c 0
 106 376 153 502 231 594 c 0
 313 693 414 741 538 741 c 0xcc
519 613 m 0
 443 613 377 577 327 509 c 0
 283 448 255 360 255 282 c 0
 255 173 318 105 419 105 c 0
 496 105 559 140 609 210 c 0
 652 270 679 358 679 437 c 0
 679 547 619 613 519 613 c 0
715 923 m 1
 769 923 l 1
 758 883 747 862 728 842 c 0
 703 816 668 801 636 801 c 0xec
 619 801 598 806 585 812 c 2
 535 837 l 2
 518 846 499 852 491 852 c 0
 473 852 457 837 440 803 c 1
 386 803 l 1
 410 879 452 921 507 921 c 0xdc
 533 921 542 919 578 903 c 2
 628 882 l 2
 646 874 649 873 661 873 c 0xec
 683 873 701 889 715 923 c 1
EndSplineSet
KernsSLIF: 89 -65 0 0 86 -40 0 0 84 -32 0 0
Ligature: 0 0 'liga' O tildecomb
EndChar
StartChar: Ohungarumlaut
Encoding: 291 336 185
Width: 778
Flags: W
HStem: -23 128<395 427> 613 128<517 540>
VStem: 106 149<259 284> 679 149<424 457>
Fore
538 741 m 0
 721 741 828 635 828 455 c 0
 828 337 783 215 705 124 c 0
 619 22 523 -23 395 -23 c 0
 217 -23 106 86 106 261 c 0
 106 376 153 502 231 594 c 0
 313 693 414 741 538 741 c 0
519 613 m 0
 443 613 377 577 327 509 c 0
 283 448 255 360 255 282 c 0
 255 173 318 105 419 105 c 0
 496 105 559 140 609 210 c 0
 652 270 679 358 679 437 c 0
 679 547 619 613 519 613 c 0
653 936 m 1
 495 789 l 1
 425 789 l 1
 527 936 l 1
 653 936 l 1
841 936 m 1
 683 789 l 1
 613 789 l 1
 715 936 l 1
 841 936 l 1
EndSplineSet
Ligature: 0 0 'liga' O uni030B
EndChar
StartChar: Racute
Encoding: 292 340 186
Width: 722
Flags: W
HStem: 0 21G<80 230 518 677> 289 125<318 481> 604 125<235 551>
VStem: 510 155<41 61> 548 148<234 270> 636 149<534 579>
DStem: 235 729 358 604 80 0 318 414 235 729 291 289 80 0 230 0
Fore
291 289 m 1xe8
 230 0 l 1
 80 0 l 1
 235 729 l 1
 612 729 l 2
 670 729 710 715 742 683 c 0
 769 656 785 617 785 579 c 0xe4
 785 523 760 460 721 420 c 0
 697 395 671 378 618 352 c 1
 670 335 696 308 696 270 c 0xe8
 696 245 691 210 668 87 c 0
 666 77 665 67 665 61 c 0
 665 47 670 37 683 27 c 1
 677 0 l 1
 518 0 l 1
 512 19 510 29 510 41 c 0xf0
 510 67 517 104 536 173 c 0
 545 209 548 222 548 234 c 0
 548 271 520 289 463 289 c 2
 291 289 l 1xe8
318 414 m 1
 499 414 l 2
 549 414 580 426 606 455 c 0
 624 475 636 506 636 534 c 0
 636 553 628 570 614 583 c 1
 595 598 572 604 526 604 c 2
 358 604 l 1
 318 414 l 1
673 936 m 1
 515 786 l 1
 445 786 l 1
 547 936 l 1
 673 936 l 1
EndSplineSet
Ligature: 0 0 'liga' R acutecomb
EndChar
StartChar: Rcaron
Encoding: 293 344 187
Width: 722
Flags: W
HStem: 0 21G<80 230 518 677> 289 125<318 481> 604 125<235 550> 789 147<385 564>
VStem: 510 155<41 61> 548 148<234 270> 636 149<534 579>
DStem: 235 729 358 604 80 0 318 414 235 729 291 289 80 0 230 0
Fore
291 289 m 1xf4
 230 0 l 1
 80 0 l 1
 235 729 l 1
 612 729 l 2
 670 729 710 715 742 683 c 0
 769 656 785 617 785 579 c 0xf2
 785 523 760 460 721 420 c 0
 697 395 671 378 618 352 c 1
 670 335 696 308 696 270 c 0xf4
 696 245 691 210 668 87 c 0
 666 77 665 67 665 61 c 0
 665 47 670 37 683 27 c 1
 677 0 l 1
 518 0 l 1
 512 19 510 29 510 41 c 0xf8
 510 67 517 104 536 173 c 0
 545 209 548 222 548 234 c 0
 548 271 520 289 463 289 c 2
 291 289 l 1xf4
318 414 m 1
 499 414 l 2
 549 414 580 426 606 455 c 0
 624 475 636 506 636 534 c 0
 636 553 628 570 614 583 c 1
 595 598 572 604 526 604 c 2
 358 604 l 1
 318 414 l 1
564 789 m 1
 456 789 l 1
 385 936 l 1
 463 936 l 1
 524 839 l 1
 627 936 l 1
 703 936 l 1
 564 789 l 1
EndSplineSet
Ligature: 0 0 'liga' R uni030C
EndChar
StartChar: Sacute
Encoding: 294 346 188
Width: 667
Flags: W
HStem: -23 128<343 369> 613 128<443 473>
VStem: 76 148<174 196> 151 149<472 509> 538 149<216 265> 579 146<530 569>
Fore
717 507 m 1xd4
 577 507 l 1
 578 516 579 525 579 530 c 0
 579 584 532 613 447 613 c 0
 356 613 300 573 300 509 c 0xd4
 300 471 327 455 421 436 c 2
 530 414 l 2
 632 394 687 342 687 265 c 0
 687 199 660 126 618 79 c 0
 560 12 467 -23 345 -23 c 0
 249 -23 180 -2 132 42 c 0
 96 75 76 122 76 174 c 0
 76 188 77 198 80 218 c 1
 226 218 l 1
 225 209 224 200 224 196 c 0
 224 138 276 105 367 105 c 0
 471 105 538 149 538 216 c 0xe8
 538 262 509 283 418 301 c 2
 320 321 l 2
 201 345 151 389 151 472 c 0
 151 543 186 618 243 667 c 0
 300 717 376 741 473 741 c 0
 631 741 725 677 725 569 c 0
 725 549 723 535 717 507 c 1xd4
649 936 m 1
 491 786 l 1
 421 786 l 1
 522 936 l 1
 649 936 l 1
EndSplineSet
Ligature: 0 0 'liga' S acutecomb
EndChar
StartChar: Scaron
Encoding: 295 352 189
Width: 667
Flags: W
HStem: -23 128<343 369> 613 128<443 473> 789 147<358 537>
VStem: 76 148<174 196> 151 149<472 509> 538 149<216 265> 579 146<530 569>
Fore
537 789 m 1xe0
 429 789 l 1
 358 936 l 1
 436 936 l 1
 497 839 l 1
 600 936 l 1
 676 936 l 1
 537 789 l 1xe0
717 507 m 1
 577 507 l 1
 578 516 579 525 579 530 c 0
 579 584 532 613 447 613 c 0
 356 613 300 573 300 509 c 0xea
 300 471 327 455 421 436 c 2
 530 414 l 2
 632 394 687 342 687 265 c 0
 687 199 660 126 618 79 c 0
 560 12 467 -23 345 -23 c 0
 249 -23 180 -2 132 42 c 0
 96 75 76 122 76 174 c 0
 76 188 77 198 80 218 c 1
 226 218 l 1
 225 209 224 200 224 196 c 0
 224 138 276 105 367 105 c 0
 471 105 538 149 538 216 c 0xf4
 538 262 509 283 418 301 c 2
 320 321 l 2
 201 345 151 389 151 472 c 0
 151 543 186 618 243 667 c 0
 300 717 376 741 473 741 c 0
 631 741 725 677 725 569 c 0xea
 725 549 723 535 717 507 c 1
EndSplineSet
Ligature: 0 0 'liga' S uni030C
EndChar
StartChar: Scedilla
Encoding: 296 350 190
Width: 667
Flags: W
HStem: -220 50<267 285> -23 128<347 369> 613 128<443 473>
VStem: 76 148<174 196> 151 149<472 509> 340 87<-128 -113> 538 149<216 265> 579 146<530 569>
DStem: 298 -22 347 -23 243 -106 320 -62
Fore
347 -23 m 1xee
 320 -62 l 1
 335 -58 349 -56 364 -56 c 0
 403 -56 427 -77 427 -113 c 0
 427 -178 367 -220 277 -220 c 0
 232 -220 200 -213 144 -191 c 1
 174 -140 l 1
 221 -163 244 -170 273 -170 c 0
 310 -170 340 -150 340 -126 c 0
 340 -106 322 -93 296 -93 c 0
 279 -93 267 -96 243 -106 c 1
 298 -22 l 1
 220 -10 189 -1 156 22 c 0
 104 58 76 112 76 174 c 0
 76 188 77 198 80 218 c 1
 226 218 l 1
 225 209 224 200 224 196 c 0
 224 138 276 105 367 105 c 0
 471 105 538 149 538 216 c 0xf6
 538 262 509 283 418 301 c 2
 320 321 l 2
 201 345 151 389 151 472 c 0
 151 543 186 618 243 667 c 0
 300 717 376 741 473 741 c 0
 631 741 725 677 725 569 c 0
 725 549 723 535 717 507 c 1
 577 507 l 1
 578 516 579 525 579 530 c 0xed
 579 584 532 613 447 613 c 0
 356 613 300 573 300 509 c 0
 300 471 327 455 421 436 c 2
 530 414 l 2
 632 394 687 342 687 265 c 0
 687 182 647 96 586 48 c 0
 525 0 451 -22 347 -23 c 1xee
EndSplineSet
Ligature: 0 0 'liga' S uni0327
EndChar
StartChar: Tcaron
Encoding: 297 356 191
Width: 611
Flags: W
HStem: 0 21G<235 385> 604 125<168 364 169 726> 789 147<353 532>
DStem: 364 604 514 604 235 0 385 0
Fore
514 604 m 1
 385 0 l 1
 235 0 l 1
 364 604 l 1
 142 604 l 1
 169 729 l 1
 753 729 l 1
 726 604 l 1
 514 604 l 1
532 789 m 1
 424 789 l 1
 353 936 l 1
 431 936 l 1
 492 839 l 1
 595 936 l 1
 671 936 l 1
 532 789 l 1
EndSplineSet
Ligature: 0 0 'liga' T uni030C
EndChar
StartChar: Udieresis
Encoding: 298 220 192
Width: 722
Flags: W
HStem: -23 128<366 396> 709 20G<231 381 659 809> 800 120<408 493 594 679>
VStem: 119 152<167 190>
DStem: 231 729 381 729 130 255 276 235 409 920 519 920 383 800 493 800 595 920 705 920 569 800 679 800 659 729 809 729 554 235 704 235
Fore
659 729 m 1
 809 729 l 1
 704 235 l 1
 686 152 654 96 597 51 c 0
 536 3 454 -23 366 -23 c 0
 215 -23 119 51 119 167 c 0
 119 189 123 222 130 255 c 2
 231 729 l 1
 381 729 l 1
 276 235 l 1
 273 219 271 205 271 190 c 0
 271 137 316 105 394 105 c 0
 485 105 535 145 554 235 c 2
 659 729 l 1
519 920 m 1
 493 800 l 1
 383 800 l 1
 409 920 l 1
 519 920 l 1
705 920 m 1
 679 800 l 1
 569 800 l 1
 595 920 l 1
 705 920 l 1
EndSplineSet
KernsSLIF: 114 -5 0 0 46 -12 0 0 112 -3 0 0 110 -5 0 0 109 -3 0 0 44 -17 0 0 98 -4 0 0 65 -40 0 0
Ligature: 0 0 'liga' U uni0308
EndChar
StartChar: Uacute
Encoding: 299 218 193
Width: 722
Flags: W
HStem: -23 128<366 396> 709 20G<231 381 659 809>
VStem: 119 152<167 190>
DStem: 231 729 381 729 130 255 276 235 659 729 809 729 554 235 704 235
Fore
659 729 m 1
 809 729 l 1
 704 235 l 1
 686 152 654 96 597 51 c 0
 536 3 454 -23 366 -23 c 0
 215 -23 119 51 119 167 c 0
 119 189 123 222 130 255 c 2
 231 729 l 1
 381 729 l 1
 276 235 l 1
 273 219 271 205 271 190 c 0
 271 137 316 105 394 105 c 0
 485 105 535 145 554 235 c 2
 659 729 l 1
692 936 m 1
 534 786 l 1
 464 786 l 1
 566 936 l 1
 692 936 l 1
EndSplineSet
KernsSLIF: 114 -5 0 0 46 -12 0 0 112 -3 0 0 110 -5 0 0 109 -3 0 0 44 -17 0 0 65 -40 0 0
Ligature: 0 0 'liga' U acutecomb
EndChar
StartChar: Ugrave
Encoding: 300 217 194
Width: 722
Flags: W
HStem: -23 128<366 396> 709 20G<231 381 659 809> 786 150<430 594>
VStem: 119 152<167 190>
DStem: 231 729 381 729 130 255 276 235 659 729 809 729 554 235 704 235
Fore
659 729 m 1
 809 729 l 1
 704 235 l 1
 686 152 654 96 597 51 c 0
 536 3 454 -23 366 -23 c 0
 215 -23 119 51 119 167 c 0
 119 189 123 222 130 255 c 2
 231 729 l 1
 381 729 l 1
 276 235 l 1
 273 219 271 205 271 190 c 0
 271 137 316 105 394 105 c 0
 485 105 535 145 554 235 c 2
 659 729 l 1
430 936 m 1
 549 936 l 1
 594 786 l 1
 531 786 l 1
 430 936 l 1
EndSplineSet
KernsSLIF: 65 -40 0 0
Ligature: 0 0 'liga' U gravecomb
EndChar
StartChar: Ucircumflex
Encoding: 301 219 195
Width: 722
Flags: W
HStem: -23 128<366 396> 709 20G<231 381 659 809> 789 147<516 695>
VStem: 119 152<167 190>
DStem: 231 729 381 729 130 255 276 235 516 936 556 886 377 789 453 789 659 729 809 729 554 235 704 235
Fore
659 729 m 1
 809 729 l 1
 704 235 l 1
 686 152 654 96 597 51 c 0
 536 3 454 -23 366 -23 c 0
 215 -23 119 51 119 167 c 0
 119 189 123 222 130 255 c 2
 231 729 l 1
 381 729 l 1
 276 235 l 1
 273 219 271 205 271 190 c 0
 271 137 316 105 394 105 c 0
 485 105 535 145 554 235 c 2
 659 729 l 1
516 936 m 1
 624 936 l 1
 695 789 l 1
 617 789 l 1
 556 886 l 1
 453 789 l 1
 377 789 l 1
 516 936 l 1
EndSplineSet
KernsSLIF: 65 -40 0 0
Ligature: 0 0 'liga' U uni0302
EndChar
StartChar: Uring
Encoding: 302 366 196
Width: 722
Flags: W
HStem: -23 128<366 396> 709 20G<231 381 659 809> 773 50<527 540> 903 50<553 567>
VStem: 119 152<167 190> 455 49<844 857> 590 49<870 882>
DStem: 231 729 381 729 130 255 276 235 659 729 809 729 554 235 704 235
Fore
659 729 m 1
 809 729 l 1
 704 235 l 1
 686 152 654 96 597 51 c 0
 536 3 454 -23 366 -23 c 0
 215 -23 119 51 119 167 c 0
 119 189 123 222 130 255 c 2
 231 729 l 1
 381 729 l 1
 276 235 l 1
 273 219 271 205 271 190 c 0
 271 137 316 105 394 105 c 0
 485 105 535 145 554 235 c 2
 659 729 l 1
567 953 m 0
 609 953 639 923 639 882 c 0
 639 825 585 773 527 773 c 0
 485 773 455 803 455 844 c 0
 455 901 509 953 567 953 c 0
557 903 m 0
 530 903 504 880 504 855 c 0
 504 837 518 823 538 823 c 0
 565 823 590 847 590 872 c 0
 590 890 576 903 557 903 c 0
EndSplineSet
Ligature: 0 0 'liga' U uni030A
EndChar
StartChar: Uhungarumlaut
Encoding: 303 368 197
Width: 722
Flags: W
HStem: -23 128<366 396> 709 20G<231 381 659 809>
VStem: 119 152<167 190>
DStem: 231 729 381 729 130 255 276 235 659 729 809 729 554 235 704 235
Fore
659 729 m 1
 809 729 l 1
 704 235 l 1
 686 152 654 96 597 51 c 0
 536 3 454 -23 366 -23 c 0
 215 -23 119 51 119 167 c 0
 119 189 123 222 130 255 c 2
 231 729 l 1
 381 729 l 1
 276 235 l 1
 273 219 271 205 271 190 c 0
 271 137 316 105 394 105 c 0
 485 105 535 145 554 235 c 2
 659 729 l 1
608 936 m 1
 450 789 l 1
 380 789 l 1
 482 936 l 1
 608 936 l 1
796 936 m 1
 638 789 l 1
 568 789 l 1
 670 936 l 1
 796 936 l 1
EndSplineSet
Ligature: 0 0 'liga' U uni030B
EndChar
StartChar: Yacute
Encoding: 304 221 198
Width: 667
Flags: W
HStem: 0 21G<269 419> 709 20G<182 349 638 805>
DStem: 327 270 477 270 269 0 419 0
Fore
477 270 m 1
 419 0 l 1
 269 0 l 1
 327 270 l 1
 182 729 l 1
 349 729 l 1
 431 414 l 1
 638 729 l 1
 805 729 l 1
 477 270 l 1
668 936 m 1
 510 786 l 1
 440 786 l 1
 542 936 l 1
 668 936 l 1
EndSplineSet
MinimumDistance: x4,8 
Ligature: 0 0 'liga' Y acutecomb
EndChar
StartChar: Zacute
Encoding: 305 377 199
Width: 611
Flags: W
HStem: 0 125<232 578> 604 125<184 531>
DStem: 531 604 706 604 57 125 232 125
Fore
733 729 m 1
 706 604 l 1
 232 125 l 1
 605 125 l 1
 578 0 l 1
 30 0 l 1
 57 125 l 1
 531 604 l 1
 158 604 l 1
 185 729 l 1
 733 729 l 1
624 936 m 1
 466 786 l 1
 396 786 l 1
 498 936 l 1
 624 936 l 1
EndSplineSet
Ligature: 0 0 'liga' Z acutecomb
EndChar
StartChar: Zcaron
Encoding: 306 381 200
Width: 611
Flags: W
HStem: 0 125<232 578> 604 125<184 531> 789 147<344 523>
DStem: 531 604 706 604 57 125 232 125
Fore
733 729 m 1
 706 604 l 1
 232 125 l 1
 605 125 l 1
 578 0 l 1
 30 0 l 1
 57 125 l 1
 531 604 l 1
 158 604 l 1
 185 729 l 1
 733 729 l 1
523 789 m 1
 415 789 l 1
 344 936 l 1
 422 936 l 1
 483 839 l 1
 586 936 l 1
 662 936 l 1
 523 789 l 1
EndSplineSet
Ligature: 0 0 'liga' Z uni030C
EndChar
StartChar: Zdotaccent
Encoding: 307 379 201
Width: 611
Flags: W
HStem: 0 125<232 578> 604 125<184 531>
DStem: 439 918 549 918 413 798 523 798 531 604 706 604 57 125 232 125
Fore
733 729 m 1
 706 604 l 1
 232 125 l 1
 605 125 l 1
 578 0 l 1
 30 0 l 1
 57 125 l 1
 531 604 l 1
 158 604 l 1
 185 729 l 1
 733 729 l 1
549 918 m 1
 523 798 l 1
 413 798 l 1
 439 918 l 1
 549 918 l 1
EndSplineSet
Ligature: 0 0 'liga' Z uni0307
EndChar
StartChar: Amacron
Encoding: 308 256 202
Width: 722
Flags: W
HStem: 0 21G<26 179 550 703> 147 125<329 532> 709 20G<433 606> 821 80<405 689>
DStem: 433 729 483 555 26 0 329 272 433 729 260 147 26 0 179 0 483 555 606 729 518 272 703 0 532 147 606 729 550 0 703 0
Fore
532 147 m 1
 260 147 l 1
 179 0 l 1
 26 0 l 1
 433 729 l 1
 606 729 l 1
 703 0 l 1
 550 0 l 1
 532 147 l 1
518 272 m 1
 483 555 l 1
 329 272 l 1
 518 272 l 1
706 901 m 1
 689 821 l 1
 389 821 l 1
 406 901 l 1
 706 901 l 1
EndSplineSet
Ligature: 0 0 'liga' A uni0304
EndChar
StartChar: Tcommaaccent
Encoding: 309 354 203
Width: 611
Flags: W
HStem: 0 21G<235 385> 604 125<168 364 169 726>
DStem: 364 604 514 604 235 0 385 0
Fore
514 604 m 1
 385 0 l 1
 235 0 l 1
 364 604 l 1
 142 604 l 1
 169 729 l 1
 753 729 l 1
 726 604 l 1
 514 604 l 1
237 -60 m 1
 359 -60 l 1
 338 -156 l 1
 328 -234 261 -301 185 -307 c 1
 195 -261 l 1
 239 -253 274 -217 280 -172 c 1
 213 -172 l 1
 237 -60 l 1
EndSplineSet
Ligature: 0 0 'liga' T uni0327
EndChar
StartChar: Ydieresis
Encoding: 310 376 204
Width: 667
Flags: W
HStem: 0 21G<269 419> 709 20G<182 349 638 805> 800 120<384 469 570 655>
DStem: 327 270 477 270 269 0 419 0 385 920 495 920 359 800 469 800 571 920 681 920 545 800 655 800
Fore
477 270 m 1
 419 0 l 1
 269 0 l 1
 327 270 l 1
 182 729 l 1
 349 729 l 1
 431 414 l 1
 638 729 l 1
 805 729 l 1
 477 270 l 1
495 920 m 1
 469 800 l 1
 359 800 l 1
 385 920 l 1
 495 920 l 1
681 920 m 1
 655 800 l 1
 545 800 l 1
 571 920 l 1
 681 920 l 1
EndSplineSet
MinimumDistance: x4,8 
Ligature: 0 0 'liga' Y uni0308
EndChar
StartChar: Emacron
Encoding: 311 274 205
Width: 667
Flags: W
HStem: 0 125<256 624> 314 125<322 645> 604 125<234 735> 821 80<385 669>
DStem: 234 729 357 604 79 0 322 439 234 729 296 314 79 0 256 125
Fore
296 314 m 1
 256 125 l 1
 651 125 l 1
 624 0 l 1
 79 0 l 1
 234 729 l 1
 762 729 l 1
 735 604 l 1
 357 604 l 1
 322 439 l 1
 671 439 l 1
 645 314 l 1
 296 314 l 1
686 901 m 1
 669 821 l 1
 369 821 l 1
 386 901 l 1
 686 901 l 1
EndSplineSet
Ligature: 0 0 'liga' E uni0304
EndChar
StartChar: Imacron
Encoding: 312 298 206
Width: 278
Flags: W
HStem: 0 21G<63 213> 709 20G<218 368> 821 80<192 449>
DStem: 218 729 368 729 63 0 213 0
Fore
368 729 m 1
 213 0 l 1
 63 0 l 1
 218 729 l 1
 368 729 l 1
466 901 m 1
 449 821 l 1
 176 821 l 1
 193 901 l 1
 466 901 l 1
EndSplineSet
Ligature: 0 0 'liga' I uni0304
EndChar
StartChar: Iogonek
Encoding: 313 302 207
Width: 278
Flags: W
HStem: -233 50<128 152> -20 20G<63 139> 709 20G<218 368>
VStem: 7 97<-155 -139>
DStem: 218 729 368 729 63 0 213 0
Fore
368 729 m 1
 213 0 l 1
 153 -32 104 -95 104 -139 c 0
 104 -167 121 -183 150 -183 c 0
 164 -183 192 -178 210 -172 c 1
 199 -224 l 1
 165 -231 151 -233 128 -233 c 0
 53 -233 7 -204 7 -155 c 0
 7 -98 49 -50 139 0 c 1
 63 0 l 1
 218 729 l 1
 368 729 l 1
EndSplineSet
Ligature: 0 0 'liga' I uni0328
EndChar
StartChar: Kcommaaccent
Encoding: 314 310 208
Width: 722
Flags: W
HStem: 0 21G<74 224 538 717> 709 20G<229 379 665 843>
DStem: 229 729 379 729 74 0 311 409 229 729 274 234 74 0 224 0 365 314 482 410 538 0 717 0 665 729 843 729 311 409 482 410
Fore
274 234 m 1
 224 0 l 1
 74 0 l 1
 229 729 l 1
 379 729 l 1
 311 409 l 1
 665 729 l 1
 843 729 l 1
 482 410 l 1
 717 0 l 1
 538 0 l 1
 365 314 l 1
 274 234 l 1
305 -60 m 1
 427 -60 l 1
 406 -156 l 1
 396 -234 329 -301 253 -307 c 1
 263 -261 l 1
 307 -253 342 -217 348 -172 c 1
 281 -172 l 1
 305 -60 l 1
EndSplineSet
Ligature: 0 0 'liga' K uni0327
EndChar
StartChar: Lcommaaccent
Encoding: 315 315 209
Width: 611
Flags: W
HStem: 0 125<257 579> 709 20G<235 385>
DStem: 235 729 385 729 80 0 257 125
Fore
385 729 m 1
 257 125 l 1
 606 125 l 1
 579 0 l 1
 80 0 l 1
 235 729 l 1
 385 729 l 1
265 -62 m 1
 387 -62 l 1
 366 -158 l 1
 356 -236 289 -303 213 -309 c 1
 223 -263 l 1
 267 -255 302 -219 308 -174 c 1
 241 -174 l 1
 265 -62 l 1
EndSplineSet
Ligature: 0 0 'liga' L uni0327
EndChar
StartChar: Ncommaaccent
Encoding: 316 325 210
Width: 722
Flags: W
HStem: 0 21G<68 210 513 661> 709 20G<223 373 674 816>
DStem: 223 729 321 523 68 0 210 0 321 523 373 729 513 0 565 214 674 729 816 729 565 214 661 0
Fore
816 729 m 1
 661 0 l 1
 513 0 l 1
 321 523 l 1
 210 0 l 1
 68 0 l 1
 223 729 l 1
 373 729 l 1
 565 214 l 1
 674 729 l 1
 816 729 l 1
288 -60 m 1
 410 -60 l 1
 389 -156 l 1
 379 -234 312 -301 236 -307 c 1
 246 -261 l 1
 290 -253 325 -217 331 -172 c 1
 264 -172 l 1
 288 -60 l 1
EndSplineSet
Ligature: 0 0 'liga' N uni0327
EndChar
StartChar: Omacron
Encoding: 317 332 211
Width: 778
Flags: W
HStem: -23 128<395 427> 613 128<517 540> 821 80<432 716>
VStem: 106 149<259 284> 679 149<424 457>
Fore
538 741 m 0
 721 741 828 635 828 455 c 0
 828 337 783 215 705 124 c 0
 619 22 523 -23 395 -23 c 0
 217 -23 106 86 106 261 c 0
 106 376 153 502 231 594 c 0
 313 693 414 741 538 741 c 0
519 613 m 0
 443 613 377 577 327 509 c 0
 283 448 255 360 255 282 c 0
 255 173 318 105 419 105 c 0
 496 105 559 140 609 210 c 0
 652 270 679 358 679 437 c 0
 679 547 619 613 519 613 c 0
733 901 m 1
 716 821 l 1
 416 821 l 1
 433 901 l 1
 733 901 l 1
EndSplineSet
Ligature: 0 0 'liga' O uni0304
EndChar
StartChar: Rcommaaccent
Encoding: 318 342 212
Width: 722
Flags: W
HStem: 0 21G<80 230 518 677> 289 125<318 481> 604 125<235 550>
VStem: 510 155<41 61> 548 148<234 270> 636 149<534 579>
DStem: 235 729 358 604 80 0 318 414 235 729 291 289 80 0 230 0
Fore
291 289 m 1xe8
 230 0 l 1
 80 0 l 1
 235 729 l 1
 612 729 l 2
 670 729 710 715 742 683 c 0
 769 656 785 617 785 579 c 0xe4
 785 523 760 460 721 420 c 0
 697 395 671 378 618 352 c 1
 670 335 696 308 696 270 c 0xe8
 696 245 691 210 668 87 c 0
 666 77 665 67 665 61 c 0
 665 47 670 37 683 27 c 1
 677 0 l 1
 518 0 l 1
 512 19 510 29 510 41 c 0xf0
 510 67 517 104 536 173 c 0
 545 209 548 222 548 234 c 0
 548 271 520 289 463 289 c 2
 291 289 l 1xe8
318 414 m 1
 499 414 l 2
 549 414 580 426 606 455 c 0
 624 475 636 506 636 534 c 0
 636 553 628 570 614 583 c 1
 595 598 572 604 526 604 c 2
 358 604 l 1
 318 414 l 1
298 -60 m 1
 420 -60 l 1
 399 -156 l 1
 389 -234 322 -301 246 -307 c 1
 256 -261 l 1
 300 -253 335 -217 341 -172 c 1
 274 -172 l 1
 298 -60 l 1
EndSplineSet
Ligature: 0 0 'liga' R uni0327
EndChar
StartChar: Gcommaaccent
Encoding: 319 290 213
Width: 778
Flags: W
HStem: -23 128<395 426> 267 125<502 642> 613 128<517 547>
VStem: 107 149<262 286>
Fore
795 392 m 1
 711 -2 l 1
 621 -2 l 1
 628 88 l 1
 554 9 488 -23 395 -23 c 0
 219 -23 107 88 107 262 c 0
 107 378 155 505 233 596 c 0
 315 691 424 741 547 741 c 0
 710 741 819 655 819 529 c 0
 819 521 818 510 817 496 c 1
 679 496 l 1
 671 571 614 613 519 613 c 0
 434 613 366 575 318 501 c 0
 282 446 256 355 256 284 c 0
 256 181 328 105 426 105 c 0
 484 105 543 130 588 175 c 0
 615 201 629 226 642 267 c 1
 476 267 l 1
 503 392 l 1
 795 392 l 1
323 -60 m 1
 445 -60 l 1
 424 -156 l 1
 414 -234 347 -301 271 -307 c 1
 281 -261 l 1
 325 -253 360 -217 366 -172 c 1
 299 -172 l 1
 323 -60 l 1
EndSplineSet
Ligature: 0 0 'liga' G uni0327
EndChar
StartChar: Umacron
Encoding: 320 362 214
Width: 722
Flags: W
HStem: -23 128<366 396> 709 20G<231 381 659 809> 821 80<406 690>
VStem: 119 152<167 190>
DStem: 231 729 381 729 130 255 276 235 659 729 809 729 554 235 704 235
Fore
659 729 m 1
 809 729 l 1
 704 235 l 1
 686 152 654 96 597 51 c 0
 536 3 454 -23 366 -23 c 0
 215 -23 119 51 119 167 c 0
 119 189 123 222 130 255 c 2
 231 729 l 1
 381 729 l 1
 276 235 l 1
 273 219 271 205 271 190 c 0
 271 137 316 105 394 105 c 0
 485 105 535 145 554 235 c 2
 659 729 l 1
707 901 m 1
 690 821 l 1
 390 821 l 1
 407 901 l 1
 707 901 l 1
EndSplineSet
Ligature: 0 0 'liga' U uni0304
EndChar
StartChar: Uogonek
Encoding: 321 370 215
Width: 722
Flags: W
HStem: -233 50<481 504> -23 128<368 396> 709 20G<231 381 659 809>
VStem: 119 152<167 190> 342 100<-157 -139>
DStem: 231 729 381 729 130 255 276 235 659 729 809 729 554 235 704 235
Fore
569 -172 m 1
 558 -224 l 1
 528 -230 506 -233 482 -233 c 0
 393 -233 342 -205 342 -157 c 0
 342 -123 358 -88 389 -60 c 0
 405 -45 431 -29 473 -10 c 1
 423 -20 400 -23 368 -23 c 0
 215 -23 119 50 119 167 c 0
 119 189 123 222 130 255 c 2
 231 729 l 1
 381 729 l 1
 276 235 l 1
 273 219 271 205 271 190 c 0
 271 137 316 105 394 105 c 0
 485 105 535 145 554 235 c 2
 659 729 l 1
 809 729 l 1
 704 235 l 1
 682 138 649 87 571 28 c 0
 512 -18 496 -33 474 -63 c 0
 452 -93 442 -117 442 -139 c 0
 442 -169 460 -183 498 -183 c 0
 524 -183 548 -179 569 -172 c 1
EndSplineSet
Ligature: 0 0 'liga' U uni0328
EndChar
StartChar: adieresis
Encoding: 322 228 216
Width: 556
Flags: W
HStem: -23 112<199 266> 437 112<353 386> 621 120<284 369 470 555>
VStem: 50 143<108 139> 436 142<394 428>
DStem: 285 741 395 741 259 621 369 621 471 741 581 741 445 621 555 621
Fore
527 17 m 1
 523 0 l 1
 370 0 l 1
 365 11 363 17 363 27 c 0
 363 34 363 39 366 54 c 1
 306 0 257 -23 199 -23 c 0
 156 -23 122 -13 97 8 c 0
 68 32 50 70 50 108 c 0
 50 168 83 229 136 267 c 0
 167 289 204 303 252 311 c 2
 310 320 l 2
 382 330 382 330 402 341 c 0
 422 351 436 373 436 394 c 0
 436 424 414 437 363 437 c 0
 299 437 268 417 251 362 c 1
 120 362 l 1
 148 492 229 549 386 549 c 0
 456 549 505 537 537 511 c 0
 560 492 578 457 578 428 c 0
 578 416 576 401 572 383 c 2
 509 83 l 1
 507 75 506 68 506 62 c 0
 506 47 512 34 527 17 c 1
400 217 m 1
 408 255 l 1
 396 248 393 247 382 245 c 0
 378 244 371 243 361 241 c 2
 345 238 l 1
 295 230 l 2
 230 219 193 186 193 139 c 0
 193 106 218 89 266 89 c 0
 334 89 382 135 400 217 c 1
395 741 m 1
 369 621 l 1
 259 621 l 1
 285 741 l 1
 395 741 l 1
581 741 m 1
 555 621 l 1
 445 621 l 1
 471 741 l 1
 581 741 l 1
EndSplineSet
KernsSLIF: 121 -24 0 0 119 -10 0 0 118 -23 0 0
Ligature: 0 0 'liga' a uni0308
EndChar
StartChar: aacute
Encoding: 323 225 217
Width: 556
Flags: W
HStem: -23 112<199 266> 437 112<353 386>
VStem: 50 143<108 139> 436 142<394 428>
Fore
527 17 m 1
 523 0 l 1
 370 0 l 1
 365 11 363 17 363 27 c 0
 363 34 363 39 366 54 c 1
 306 0 257 -23 199 -23 c 0
 156 -23 122 -13 97 8 c 0
 68 32 50 70 50 108 c 0
 50 168 83 229 136 267 c 0
 167 289 204 303 252 311 c 2
 310 320 l 2
 382 330 382 330 402 341 c 0
 422 351 436 373 436 394 c 0
 436 424 414 437 363 437 c 0
 299 437 268 417 251 362 c 1
 120 362 l 1
 148 492 229 549 386 549 c 0
 456 549 505 537 537 511 c 0
 560 492 578 457 578 428 c 0
 578 416 576 401 572 383 c 2
 509 83 l 1
 507 75 506 68 506 62 c 0
 506 47 512 34 527 17 c 1
400 217 m 1
 408 255 l 1
 396 248 393 247 382 245 c 0
 378 244 371 243 361 241 c 2
 345 238 l 1
 295 230 l 2
 230 219 193 186 193 139 c 0
 193 106 218 89 266 89 c 0
 334 89 382 135 400 217 c 1
587 757 m 1
 429 607 l 1
 359 607 l 1
 461 757 l 1
 587 757 l 1
EndSplineSet
KernsSLIF: 121 -24 0 0 119 -10 0 0 118 -23 0 0
Ligature: 0 0 'liga' a acutecomb
EndChar
StartChar: agrave
Encoding: 324 224 218
Width: 556
Flags: W
HStem: -23 112<199 266> 437 112<353 386> 607 150<303 467>
VStem: 50 143<108 139> 436 142<394 428>
Fore
527 17 m 1
 523 0 l 1
 370 0 l 1
 365 11 363 17 363 27 c 0
 363 34 363 39 366 54 c 1
 306 0 257 -23 199 -23 c 0
 156 -23 122 -13 97 8 c 0
 68 32 50 70 50 108 c 0
 50 168 83 229 136 267 c 0
 167 289 204 303 252 311 c 2
 310 320 l 2
 382 330 382 330 402 341 c 0
 422 351 436 373 436 394 c 0
 436 424 414 437 363 437 c 0
 299 437 268 417 251 362 c 1
 120 362 l 1
 148 492 229 549 386 549 c 0
 456 549 505 537 537 511 c 0
 560 492 578 457 578 428 c 0
 578 416 576 401 572 383 c 2
 509 83 l 1
 507 75 506 68 506 62 c 0
 506 47 512 34 527 17 c 1
400 217 m 1
 408 255 l 1
 396 248 393 247 382 245 c 0
 378 244 371 243 361 241 c 2
 345 238 l 1
 295 230 l 2
 230 219 193 186 193 139 c 0
 193 106 218 89 266 89 c 0
 334 89 382 135 400 217 c 1
303 757 m 1
 422 757 l 1
 467 607 l 1
 404 607 l 1
 303 757 l 1
EndSplineSet
KernsSLIF: 121 -24 0 0 119 -10 0 0 118 -23 0 0
Ligature: 0 0 'liga' a gravecomb
EndChar
StartChar: acircumflex
Encoding: 325 226 219
Width: 556
Flags: W
HStem: -23 112<199 266> 437 112<353 386> 610 147<386 565>
VStem: 50 143<108 139> 436 142<394 428>
DStem: 386 757 426 707 247 610 323 610
Fore
527 17 m 1
 523 0 l 1
 370 0 l 1
 365 11 363 17 363 27 c 0
 363 34 363 39 366 54 c 1
 306 0 257 -23 199 -23 c 0
 156 -23 122 -13 97 8 c 0
 68 32 50 70 50 108 c 0
 50 168 83 229 136 267 c 0
 167 289 204 303 252 311 c 2
 310 320 l 2
 382 330 382 330 402 341 c 0
 422 351 436 373 436 394 c 0
 436 424 414 437 363 437 c 0
 299 437 268 417 251 362 c 1
 120 362 l 1
 148 492 229 549 386 549 c 0
 456 549 505 537 537 511 c 0
 560 492 578 457 578 428 c 0
 578 416 576 401 572 383 c 2
 509 83 l 1
 507 75 506 68 506 62 c 0
 506 47 512 34 527 17 c 1
400 217 m 1
 408 255 l 1
 396 248 393 247 382 245 c 0
 378 244 371 243 361 241 c 2
 345 238 l 1
 295 230 l 2
 230 219 193 186 193 139 c 0
 193 106 218 89 266 89 c 0
 334 89 382 135 400 217 c 1
386 757 m 1
 494 757 l 1
 565 610 l 1
 487 610 l 1
 426 707 l 1
 323 610 l 1
 247 610 l 1
 386 757 l 1
EndSplineSet
Ligature: 0 0 'liga' a uni0302
EndChar
StartChar: abreve
Encoding: 326 259 220
Width: 556
Flags: W
HStem: -23 112<199 266> 437 112<353 386> 611 78<404 423>
VStem: 50 143<108 139> 299 48<715 746> 436 142<394 428>
Fore
527 17 m 1
 523 0 l 1
 370 0 l 1
 365 11 363 17 363 27 c 0
 363 34 363 39 366 54 c 1
 306 0 257 -23 199 -23 c 0
 156 -23 122 -13 97 8 c 0
 68 32 50 70 50 108 c 0
 50 168 83 229 136 267 c 0
 167 289 204 303 252 311 c 2
 310 320 l 2
 382 330 382 330 402 341 c 0
 422 351 436 373 436 394 c 0
 436 424 414 437 363 437 c 0
 299 437 268 417 251 362 c 1
 120 362 l 1
 148 492 229 549 386 549 c 0
 456 549 505 537 537 511 c 0
 560 492 578 457 578 428 c 0
 578 416 576 401 572 383 c 2
 509 83 l 1
 507 75 506 68 506 62 c 0
 506 47 512 34 527 17 c 1
400 217 m 1
 408 255 l 1
 396 248 393 247 382 245 c 0
 378 244 371 243 361 241 c 2
 345 238 l 1
 295 230 l 2
 230 219 193 186 193 139 c 0
 193 106 218 89 266 89 c 0
 334 89 382 135 400 217 c 1
524 754 m 1
 566 754 l 1
 552 672 484 611 405 611 c 0
 342 611 299 653 299 715 c 0
 299 727 300 736 305 754 c 1
 347 754 l 1
 347 746 l 2
 347 710 374 689 421 689 c 0
 472 689 507 711 524 754 c 1
EndSplineSet
Ligature: 0 0 'liga' a uni0306
EndChar
StartChar: atilde
Encoding: 327 227 221
Width: 556
Flags: W
HStem: -23 112<199 266> 437 112<351 386> 622 71<479 504> 672 69<334 350>
VStem: 50 143<108 139> 436 142<394 428>
Fore
527 17 m 1xcc
 523 0 l 1
 370 0 l 1
 365 11 363 17 363 27 c 0
 363 34 363 39 366 54 c 1
 306 0 257 -23 199 -23 c 0
 156 -23 122 -13 97 8 c 0
 68 32 50 70 50 108 c 0
 50 168 83 229 136 267 c 0
 167 289 204 303 252 311 c 2
 310 320 l 2
 382 330 382 330 402 341 c 0
 422 351 436 373 436 394 c 0
 436 424 414 437 363 437 c 0
 299 437 268 417 251 362 c 1
 120 362 l 1
 148 492 229 549 386 549 c 0
 456 549 505 537 537 511 c 0
 560 492 578 457 578 428 c 0
 578 416 576 401 572 383 c 2
 509 83 l 1
 507 75 506 68 506 62 c 0
 506 47 512 34 527 17 c 1xcc
400 217 m 1
 408 255 l 1
 396 248 393 247 382 245 c 0
 378 244 371 243 361 241 c 2
 345 238 l 1
 295 230 l 2
 230 219 193 186 193 139 c 0
 193 106 218 89 266 89 c 0
 334 89 382 135 400 217 c 1
558 744 m 1
 612 744 l 1
 601 705 590 683 571 663 c 0
 546 637 511 622 479 622 c 0xec
 462 622 441 627 428 633 c 2
 378 658 l 2
 363 665 342 672 334 672 c 0
 316 672 300 657 283 624 c 1
 229 624 l 1
 252 699 296 741 350 741 c 0xdc
 375 741 389 738 421 724 c 2
 471 703 l 2
 490 694 492 693 504 693 c 0xec
 527 693 544 710 558 744 c 1
EndSplineSet
Ligature: 0 0 'liga' a tildecomb
EndChar
StartChar: aring
Encoding: 328 229 222
Width: 556
Flags: W
HStem: -23 112<199 266> 437 112<353 386> 593 50<401 414> 723 50<429 441>
VStem: 50 143<108 139> 329 49<664 677> 436 142<394 428> 464 49<690 702>
Fore
527 17 m 1xfe
 523 0 l 1
 370 0 l 1
 365 11 363 17 363 27 c 0
 363 34 363 39 366 54 c 1
 306 0 257 -23 199 -23 c 0
 156 -23 122 -13 97 8 c 0
 68 32 50 70 50 108 c 0
 50 168 83 229 136 267 c 0
 167 289 204 303 252 311 c 2
 310 320 l 2
 382 330 382 330 402 341 c 0
 422 351 436 373 436 394 c 0
 436 424 414 437 363 437 c 0
 299 437 268 417 251 362 c 1
 120 362 l 1
 148 492 229 549 386 549 c 0
 456 549 505 537 537 511 c 0
 560 492 578 457 578 428 c 0
 578 416 576 401 572 383 c 2
 509 83 l 1
 507 75 506 68 506 62 c 0
 506 47 512 34 527 17 c 1xfe
400 217 m 1
 408 255 l 1
 396 248 393 247 382 245 c 0
 378 244 371 243 361 241 c 2
 345 238 l 1
 295 230 l 2
 230 219 193 186 193 139 c 0
 193 106 218 89 266 89 c 0
 334 89 382 135 400 217 c 1
441 773 m 0
 483 773 513 743 513 702 c 0xfd
 513 645 459 593 401 593 c 0
 359 593 329 623 329 664 c 0
 329 721 383 773 441 773 c 0
431 723 m 0
 404 723 378 700 378 675 c 0
 378 657 392 643 412 643 c 0
 439 643 464 667 464 692 c 0
 464 710 450 723 431 723 c 0
EndSplineSet
KernsSLIF: 121 -24 0 0 119 -10 0 0 118 -23 0 0
Ligature: 0 0 'liga' a uni030A
EndChar
StartChar: aogonek
Encoding: 329 261 223
Width: 556
Flags: W
HStem: -233 50<428 451> -23 112<199 266> 437 112<353 386>
VStem: 50 143<108 139> 293 99<-154 -140> 436 142<394 428>
Fore
527 17 m 1
 523 0 l 1
 435 -47 392 -93 392 -140 c 0
 392 -169 408 -183 443 -183 c 0
 474 -183 495 -180 519 -172 c 1
 509 -224 l 1
 477 -231 457 -233 428 -233 c 0
 340 -233 293 -206 293 -154 c 0
 293 -92 346 -39 449 0 c 1
 370 0 l 1
 365 11 363 17 363 27 c 0
 363 34 363 39 366 54 c 1
 306 0 257 -23 199 -23 c 0
 156 -23 122 -13 97 8 c 0
 68 32 50 70 50 108 c 0
 50 168 83 229 136 267 c 0
 167 289 204 303 252 311 c 2
 310 320 l 2
 382 330 382 330 402 341 c 0
 422 351 436 373 436 394 c 0
 436 424 414 437 363 437 c 0
 299 437 268 417 251 362 c 1
 120 362 l 1
 148 492 229 549 386 549 c 0
 456 549 505 537 537 511 c 0
 560 492 578 457 578 428 c 0
 578 416 576 401 572 383 c 2
 509 83 l 1
 507 75 506 68 506 62 c 0
 506 47 512 34 527 17 c 1
400 217 m 1
 408 255 l 1
 396 248 393 247 382 245 c 0
 378 244 371 243 361 241 c 2
 345 238 l 1
 295 230 l 2
 230 219 193 186 193 139 c 0
 193 106 218 89 266 89 c 0
 334 89 382 135 400 217 c 1
EndSplineSet
Ligature: 0 0 'liga' a uni0328
EndChar
StartChar: cacute
Encoding: 330 263 224
Width: 556
Flags: W
HStem: -23 112<292 318> 437 112<375 398>
VStem: 77 143<171 194>
Fore
593 338 m 1
 459 338 l 1
 458 377 456 389 448 404 c 0
 435 425 410 437 377 437 c 0
 322 437 285 411 257 352 c 0
 233 304 220 245 220 192 c 0
 220 123 249 89 309 89 c 0
 363 89 396 116 427 187 c 1
 561 187 l 1
 519 53 421 -23 292 -23 c 0
 218 -23 163 -3 127 38 c 0
 95 73 77 122 77 172 c 0
 77 267 119 384 178 454 c 0
 230 517 304 549 398 549 c 0
 465 549 511 532 549 494 c 0
 580 463 597 423 597 381 c 0
 597 371 596 362 593 338 c 1
573 757 m 1
 415 607 l 1
 345 607 l 1
 447 757 l 1
 573 757 l 1
EndSplineSet
Ligature: 0 0 'liga' c acutecomb
EndChar
StartChar: ccaron
Encoding: 331 269 225
Width: 556
Flags: W
HStem: -23 112<292 318> 437 112<375 398> 610 147<289 468>
VStem: 77 143<171 194>
Fore
593 338 m 1
 459 338 l 1
 458 377 456 389 448 404 c 0
 435 425 410 437 377 437 c 0
 322 437 285 411 257 352 c 0
 233 304 220 245 220 192 c 0
 220 123 249 89 309 89 c 0
 363 89 396 116 427 187 c 1
 561 187 l 1
 519 53 421 -23 292 -23 c 0
 218 -23 163 -3 127 38 c 0
 95 73 77 122 77 172 c 0
 77 267 119 384 178 454 c 0
 230 517 304 549 398 549 c 0
 465 549 511 532 549 494 c 0
 580 463 597 423 597 381 c 0
 597 371 596 362 593 338 c 1
468 610 m 1
 360 610 l 1
 289 757 l 1
 367 757 l 1
 428 660 l 1
 531 757 l 1
 607 757 l 1
 468 610 l 1
EndSplineSet
Ligature: 0 0 'liga' c uni030C
EndChar
StartChar: ccedilla
Encoding: 332 231 226
Width: 556
Flags: W
HStem: -220 50<204 222> -93 182<238 309> 437 112<369 398>
VStem: 77 143<171 197> 282 87<-128 -113>
DStem: 241 -19 288 -23 184 -106 262 -62
Fore
288 -23 m 1
 262 -62 l 1
 277 -58 289 -56 305 -56 c 0
 345 -56 369 -77 369 -113 c 0
 369 -178 309 -220 218 -220 c 0
 174 -220 141 -213 85 -191 c 1
 115 -139 l 1
 162 -163 186 -170 214 -170 c 0
 252 -170 282 -150 282 -126 c 0
 282 -106 264 -93 238 -93 c 0
 221 -93 209 -96 184 -106 c 1
 241 -19 l 1
 205 -12 187 -6 168 4 c 0
 113 34 77 101 77 173 c 0
 77 267 119 384 177 454 c 0
 230 517 304 549 398 549 c 0
 465 549 511 532 549 494 c 0
 580 463 597 423 597 381 c 0
 597 371 596 362 593 338 c 1
 459 338 l 1
 458 377 456 389 448 404 c 0
 435 425 410 437 377 437 c 0
 322 437 285 411 257 352 c 0
 233 304 220 245 220 192 c 0
 220 123 249 89 309 89 c 0
 363 89 396 116 427 187 c 1
 561 187 l 1
 539 117 506 68 456 30 c 0
 411 -4 338 -27 289 -23 c 2
 288 -23 l 1
EndSplineSet
Ligature: 0 0 'liga' c uni0327
EndChar
StartChar: dcaron
Encoding: 333 271 227
Width: 722
Flags: W
HStem: -23 112<251 309> 437 112<366 384> 709 20G<560 700 760 882>
VStem: 79 143<185 208>
DStem: 560 729 700 729 505 470 545 0
Fore
405 0 m 1
 417 55 l 1
 371 2 318 -23 251 -23 c 0
 147 -23 79 59 79 185 c 0
 79 267 108 357 157 428 c 0
 209 503 291 549 372 549 c 0
 440 549 482 524 505 470 c 1
 560 729 l 1
 700 729 l 1
 545 0 l 1
 405 0 l 1
380 437 m 0
 297 437 222 327 222 206 c 0
 222 134 256 89 309 89 c 0
 394 89 468 197 468 323 c 0
 468 393 434 437 380 437 c 0
760 729 m 1
 882 729 l 1
 861 633 l 1
 851 555 784 488 708 482 c 1
 718 528 l 1
 762 536 797 572 803 617 c 1
 736 617 l 1
 760 729 l 1
EndSplineSet
Ligature: 0 0 'liga' d uni030C
EndChar
StartChar: edieresis
Encoding: 334 235 228
Width: 556
Flags: W
HStem: -23 112<275 302> 226 93<228 573> 437 112<360 379> 621 120<281 366 467 552>
VStem: 64 143<168 202> 448 143<319 362>
DStem: 282 741 392 741 256 621 366 621 468 741 578 741 442 621 552 621
Fore
573 226 m 1
 210 226 l 1
 207 198 207 190 207 181 c 0
 207 126 245 89 302 89 c 0
 350 89 394 114 414 152 c 1
 552 152 l 1
 497 41 396 -23 275 -23 c 0
 150 -23 64 61 64 185 c 0
 64 285 110 402 174 469 c 0
 221 518 301 549 379 549 c 0
 452 549 510 525 546 480 c 0
 574 444 591 397 591 351 c 0
 591 313 585 271 573 226 c 1
448 319 m 1
 448 334 l 2
 448 366 446 377 439 392 c 0
 426 420 397 437 362 437 c 0
 322 437 282 418 258 386 c 0
 245 369 237 351 228 319 c 1
 448 319 l 1
392 741 m 1
 366 621 l 1
 256 621 l 1
 282 741 l 1
 392 741 l 1
578 741 m 1
 552 621 l 1
 442 621 l 1
 468 741 l 1
 578 741 l 1
EndSplineSet
Ligature: 0 0 'liga' e uni0308
EndChar
StartChar: eacute
Encoding: 335 233 229
Width: 556
Flags: W
HStem: -23 112<275 302> 226 93<228 573> 437 112<360 379>
VStem: 64 143<168 202> 448 143<319 362>
Fore
573 226 m 1
 210 226 l 1
 207 198 207 190 207 181 c 0
 207 126 245 89 302 89 c 0
 350 89 394 114 414 152 c 1
 552 152 l 1
 497 41 396 -23 275 -23 c 0
 150 -23 64 61 64 185 c 0
 64 285 110 402 174 469 c 0
 221 518 301 549 379 549 c 0
 452 549 510 525 546 480 c 0
 574 444 591 397 591 351 c 0
 591 313 585 271 573 226 c 1
448 319 m 1
 448 334 l 2
 448 366 446 377 439 392 c 0
 426 420 397 437 362 437 c 0
 322 437 282 418 258 386 c 0
 245 369 237 351 228 319 c 1
 448 319 l 1
562 757 m 1
 404 607 l 1
 334 607 l 1
 436 757 l 1
 562 757 l 1
EndSplineSet
KernsSLIF: 121 -25 0 0 119 -9 0 0 118 -22 0 0
Ligature: 0 0 'liga' e acutecomb
EndChar
StartChar: egrave
Encoding: 336 232 230
Width: 556
Flags: W
HStem: -23 112<275 302> 226 93<228 573> 437 112<360 379> 607 150<297 461>
VStem: 64 143<168 202> 448 143<319 362>
Fore
573 226 m 1
 210 226 l 1
 207 198 207 190 207 181 c 0
 207 126 245 89 302 89 c 0
 350 89 394 114 414 152 c 1
 552 152 l 1
 497 41 396 -23 275 -23 c 0
 150 -23 64 61 64 185 c 0
 64 285 110 402 174 469 c 0
 221 518 301 549 379 549 c 0
 452 549 510 525 546 480 c 0
 574 444 591 397 591 351 c 0
 591 313 585 271 573 226 c 1
448 319 m 1
 448 334 l 2
 448 366 446 377 439 392 c 0
 426 420 397 437 362 437 c 0
 322 437 282 418 258 386 c 0
 245 369 237 351 228 319 c 1
 448 319 l 1
297 757 m 1
 416 757 l 1
 461 607 l 1
 398 607 l 1
 297 757 l 1
EndSplineSet
Ligature: 0 0 'liga' e gravecomb
EndChar
StartChar: ecircumflex
Encoding: 337 234 231
Width: 556
Flags: W
HStem: -23 112<275 302> 226 93<228 573> 437 112<360 379> 610 147<377 556>
VStem: 64 143<168 202> 448 143<319 362>
DStem: 377 757 417 707 238 610 314 610
Fore
573 226 m 1
 210 226 l 1
 207 198 207 190 207 181 c 0
 207 126 245 89 302 89 c 0
 350 89 394 114 414 152 c 1
 552 152 l 1
 497 41 396 -23 275 -23 c 0
 150 -23 64 61 64 185 c 0
 64 285 110 402 174 469 c 0
 221 518 301 549 379 549 c 0
 452 549 510 525 546 480 c 0
 574 444 591 397 591 351 c 0
 591 313 585 271 573 226 c 1
448 319 m 1
 448 334 l 2
 448 366 446 377 439 392 c 0
 426 420 397 437 362 437 c 0
 322 437 282 418 258 386 c 0
 245 369 237 351 228 319 c 1
 448 319 l 1
377 757 m 1
 485 757 l 1
 556 610 l 1
 478 610 l 1
 417 707 l 1
 314 610 l 1
 238 610 l 1
 377 757 l 1
EndSplineSet
KernsSLIF: 121 -25 0 0 119 -9 0 0 118 -22 0 0
Ligature: 0 0 'liga' e uni0302
EndChar
StartChar: ecaron
Encoding: 338 283 232
Width: 556
Flags: W
HStem: -23 112<275 302> 226 93<228 573> 437 112<354 379> 610 147<275 454>
VStem: 64 143<168 202> 448 143<319 362>
Fore
573 226 m 1
 210 226 l 1
 207 198 207 190 207 181 c 0
 207 126 245 89 302 89 c 0
 350 89 394 114 414 152 c 1
 552 152 l 1
 497 41 396 -23 275 -23 c 0
 150 -23 64 61 64 185 c 0
 64 285 110 402 174 469 c 0
 221 518 301 549 379 549 c 0
 452 549 510 525 546 480 c 0
 574 444 591 397 591 351 c 0
 591 313 585 271 573 226 c 1
448 319 m 1
 448 334 l 2
 448 366 446 377 439 392 c 0
 426 420 397 437 362 437 c 0
 322 437 282 418 258 386 c 0
 245 369 237 351 228 319 c 1
 448 319 l 1
454 610 m 1
 346 610 l 1
 275 757 l 1
 353 757 l 1
 414 660 l 1
 517 757 l 1
 593 757 l 1
 454 610 l 1
EndSplineSet
Ligature: 0 0 'liga' e uni030C
EndChar
StartChar: edotaccent
Encoding: 339 279 233
Width: 556
Flags: W
HStem: -23 112<275 302> 226 93<228 573> 437 112<360 379> 721 20G<372 482>
VStem: 64 143<168 202> 448 143<319 362>
DStem: 372 741 482 741 346 621 456 621
Fore
573 226 m 1
 210 226 l 1
 207 198 207 190 207 181 c 0
 207 126 245 89 302 89 c 0
 350 89 394 114 414 152 c 1
 552 152 l 1
 497 41 396 -23 275 -23 c 0
 150 -23 64 61 64 185 c 0
 64 285 110 402 174 469 c 0
 221 518 301 549 379 549 c 0
 452 549 510 525 546 480 c 0
 574 444 591 397 591 351 c 0
 591 313 585 271 573 226 c 1
448 319 m 1
 448 334 l 2
 448 366 446 377 439 392 c 0
 426 420 397 437 362 437 c 0
 322 437 282 418 258 386 c 0
 245 369 237 351 228 319 c 1
 448 319 l 1
482 741 m 1
 456 621 l 1
 346 621 l 1
 372 741 l 1
 482 741 l 1
EndSplineSet
Ligature: 0 0 'liga' e uni0307
EndChar
StartChar: eogonek
Encoding: 340 281 234
Width: 556
Flags: W
HStem: -233 50<356 379> -24 113<276 302> 226 93<228 573> 437 112<354 379>
VStem: 64 143<166 200> 222 99<-152 -136> 448 143<319 360>
Fore
443 -172 m 1
 432 -224 l 1
 401 -230 380 -233 356 -233 c 0
 271 -233 222 -203 222 -152 c 0
 222 -101 249 -69 335 -17 c 1
 308 -22 295 -24 276 -24 c 0
 150 -24 64 61 64 184 c 0
 64 284 110 402 174 469 c 0
 221 518 301 549 379 549 c 0
 452 549 510 525 546 480 c 0
 574 444 591 397 591 351 c 0
 591 313 585 271 573 226 c 1
 210 226 l 1
 207 198 207 190 207 181 c 0
 207 126 245 89 302 89 c 0
 350 89 394 114 414 152 c 1
 552 152 l 1
 526 98 486 53 415 -1 c 1
 359 -46 321 -102 321 -140 c 0
 321 -168 339 -183 372 -183 c 0
 398 -183 423 -179 443 -172 c 1
448 319 m 1
 448 334 l 2
 448 366 446 377 439 392 c 0
 426 420 397 437 362 437 c 0
 322 437 282 418 258 386 c 0
 245 369 237 351 228 319 c 1
 448 319 l 1
EndSplineSet
Ligature: 0 0 'liga' e uni0328
EndChar
StartChar: gbreve
Encoding: 341 287 235
Width: 611
Flags: W
HStem: -218 90<235 267> -23 112<254 306> 437 112<365.518 381> 611 78<435 454>
VStem: 26 146<-96 -77> 79 143<167 201> 330 48<715 746>
Fore
523 540 m 1xf6
 656 540 l 1
 537 -18 l 1
 510 -146 401 -218 235 -218 c 0
 173 -218 129 -210 93 -192 c 0
 52 -172 26 -134 26 -96 c 0
 26 -88 27 -77 29 -65 c 1
 173 -65 l 1
 172 -77 l 1xfa
 172 -106 209 -128 258 -128 c 0
 331 -128 390 -83 404 -18 c 2
 420 55 l 1
 356 -4 316 -23 254 -23 c 0
 153 -23 79 57 79 167 c 0
 79 264 116 374 174 445 c 0
 227 511 302 549 378 549 c 0
 437 549 478 519 505 457 c 1
 523 540 l 1xf6
379 437 m 0
 297 437 222 324 222 201 c 0xf6
 222 132 254 89 306 89 c 0
 395 89 471 193 471 315 c 0
 471 389 435 437 379 437 c 0
555 754 m 1
 597 754 l 1
 583 672 515 611 436 611 c 0
 373 611 330 653 330 715 c 0
 330 727 331 736 336 754 c 1
 378 754 l 1
 378 746 l 2
 378 710 405 689 452 689 c 0
 503 689 538 711 555 754 c 1
EndSplineSet
Ligature: 0 0 'liga' g uni0306
EndChar
StartChar: idieresis
Encoding: 342 239 236
Width: 278
Flags: W
HStem: 0 21G<67 207> 520 20G<182 322> 621 120<145 230 331 416>
DStem: 146 741 256 741 120 621 230 621 182 540 322 540 67 0 207 0 332 741 442 741 306 621 416 621
Fore
322 540 m 1
 207 0 l 1
 67 0 l 1
 182 540 l 1
 322 540 l 1
256 741 m 1
 230 621 l 1
 120 621 l 1
 146 741 l 1
 256 741 l 1
442 741 m 1
 416 621 l 1
 306 621 l 1
 332 741 l 1
 442 741 l 1
EndSplineSet
Ligature: 0 0 'liga' i uni0308
EndChar
StartChar: iacute
Encoding: 343 237 237
Width: 278
Flags: W
HStem: 0 21G<67 207> 520 20G<182 322>
DStem: 182 540 322 540 67 0 207 0
Fore
322 540 m 1
 207 0 l 1
 67 0 l 1
 182 540 l 1
 322 540 l 1
448 757 m 1
 290 607 l 1
 220 607 l 1
 322 757 l 1
 448 757 l 1
EndSplineSet
Ligature: 0 0 'liga' i acutecomb
EndChar
StartChar: igrave
Encoding: 344 236 238
Width: 278
Flags: W
HStem: 0 21G<67 207> 520 20G<182 322> 607 150<147 311>
DStem: 182 540 322 540 67 0 207 0
Fore
322 540 m 1
 207 0 l 1
 67 0 l 1
 182 540 l 1
 322 540 l 1
147 757 m 1
 266 757 l 1
 311 607 l 1
 248 607 l 1
 147 757 l 1
EndSplineSet
Ligature: 0 0 'liga' i gravecomb
EndChar
StartChar: icircumflex
Encoding: 345 238 239
Width: 278
Flags: W
HStem: 0 21G<67 207> 520 20G<182 322> 610 147<247 426>
DStem: 182 540 322 540 67 0 207 0 247 757 287 707 108 610 184 610
Fore
322 540 m 1
 207 0 l 1
 67 0 l 1
 182 540 l 1
 322 540 l 1
247 757 m 1
 355 757 l 1
 426 610 l 1
 348 610 l 1
 287 707 l 1
 184 610 l 1
 108 610 l 1
 247 757 l 1
EndSplineSet
Ligature: 0 0 'liga' i uni0302
EndChar
StartChar: lacute
Encoding: 346 314 240
Width: 278
Flags: W
HStem: 0 21G<67 207> 709 20G<222 362>
DStem: 222 729 362 729 67 0 207 0
Fore
362 729 m 1
 207 0 l 1
 67 0 l 1
 222 729 l 1
 362 729 l 1
474 936 m 1
 316 786 l 1
 246 786 l 1
 348 936 l 1
 474 936 l 1
EndSplineSet
Ligature: 0 0 'liga' l acutecomb
EndChar
StartChar: lcaron
Encoding: 347 318 241
Width: 384
Flags: W
HStem: 0 21G<67 207> 709 20G<222 362 422 544>
DStem: 222 729 362 729 67 0 207 0
Fore
362 729 m 1
 207 0 l 1
 67 0 l 1
 222 729 l 1
 362 729 l 1
422 729 m 1
 544 729 l 1
 523 633 l 1
 513 555 446 488 370 482 c 1
 380 528 l 1
 424 536 459 572 465 617 c 1
 398 617 l 1
 422 729 l 1
EndSplineSet
Ligature: 0 0 'liga' l uni030C
EndChar
StartChar: nacute
Encoding: 348 324 242
Width: 611
Flags: W
HStem: 0 21G<63 203 406 546> 437 112<405 482>
VStem: 479 150<362 417>
DStem: 178 540 268 304 63 0 203 0 473 313 623 362 406 0 546 0
Fore
178 540 m 1
 318 540 l 1
 300 458 l 1
 354 522 408 549 482 549 c 0
 571 549 629 497 629 417 c 0
 629 399 627 381 623 362 c 2
 546 0 l 1
 406 0 l 1
 473 313 l 1
 477 335 479 349 479 362 c 0
 479 410 453 437 405 437 c 0
 338 437 285 386 268 304 c 1
 203 0 l 1
 63 0 l 1
 178 540 l 1
594 757 m 1
 436 607 l 1
 366 607 l 1
 468 757 l 1
 594 757 l 1
EndSplineSet
Ligature: 0 0 'liga' n acutecomb
EndChar
StartChar: ncaron
Encoding: 349 328 243
Width: 611
Flags: W
HStem: 0 21G<63 203 406 546> 437 112<405 482> 610 147<299 478>
VStem: 479 150<362 417>
DStem: 178 540 268 304 63 0 203 0 473 313 623 362 406 0 546 0
Fore
178 540 m 1
 318 540 l 1
 300 458 l 1
 354 522 408 549 482 549 c 0
 571 549 629 497 629 417 c 0
 629 399 627 381 623 362 c 2
 546 0 l 1
 406 0 l 1
 473 313 l 1
 477 335 479 349 479 362 c 0
 479 410 453 437 405 437 c 0
 338 437 285 386 268 304 c 1
 203 0 l 1
 63 0 l 1
 178 540 l 1
478 610 m 1
 370 610 l 1
 299 757 l 1
 377 757 l 1
 438 660 l 1
 541 757 l 1
 617 757 l 1
 478 610 l 1
EndSplineSet
Ligature: 0 0 'liga' n uni030C
EndChar
StartChar: ntilde
Encoding: 350 241 244
Width: 611
Flags: W
HStem: 0 21G<63 203 406 546> 437 112<405 482> 622 71<513 538> 672 69<368 384>
VStem: 479 150<362 417>
DStem: 178 540 268 304 63 0 203 0 473 313 623 362 406 0 546 0
Fore
178 540 m 1xc8
 318 540 l 1
 300 458 l 1
 354 522 408 549 482 549 c 0
 571 549 629 497 629 417 c 0
 629 399 627 381 623 362 c 2
 546 0 l 1
 406 0 l 1
 473 313 l 1
 477 335 479 349 479 362 c 0
 479 410 453 437 405 437 c 0
 338 437 285 386 268 304 c 1
 203 0 l 1
 63 0 l 1
 178 540 l 1xc8
592 744 m 1
 646 744 l 1
 635 705 624 683 605 663 c 0
 580 637 545 622 513 622 c 0xe8
 496 622 475 627 462 633 c 2
 412 658 l 2
 397 665 376 672 368 672 c 0
 350 672 334 657 317 624 c 1
 263 624 l 1
 286 699 330 741 384 741 c 0xd8
 409 741 423 738 455 724 c 2
 505 703 l 2
 524 694 526 693 538 693 c 0xe8
 561 693 578 710 592 744 c 1
EndSplineSet
Ligature: 0 0 'liga' n tildecomb
EndChar
StartChar: odieresis
Encoding: 351 246 245
Width: 611
Flags: W
HStem: -23 112<299 326> 437 112<389 413> 621 120<310 395 496 581>
VStem: 82 143<177 205> 491 143<320 349>
DStem: 311 741 421 741 285 621 395 621 497 741 607 741 471 621 581 621
Fore
413 549 m 0
 550 549 634 473 634 349 c 0
 634 263 602 163 555 100 c 0
 494 19 407 -23 299 -23 c 0
 167 -23 82 55 82 177 c 0
 82 263 113 363 161 426 c 0
 220 505 310 549 413 549 c 0
391 437 m 0
 301 437 225 332 225 205 c 0
 225 134 264 89 324 89 c 0
 376 89 422 120 453 176 c 0
 477 218 491 271 491 320 c 0
 491 391 452 437 391 437 c 0
421 741 m 1
 395 621 l 1
 285 621 l 1
 311 741 l 1
 421 741 l 1
607 741 m 1
 581 621 l 1
 471 621 l 1
 497 741 l 1
 607 741 l 1
EndSplineSet
KernsSLIF: 121 -29 0 0 120 -30 0 0 119 -13 0 0 118 -27 0 0 116 -13 0 0
Ligature: 0 0 'liga' o uni0308
EndChar
StartChar: oacute
Encoding: 352 243 246
Width: 611
Flags: W
HStem: -23 112<299 326> 437 112<389 413>
VStem: 82 143<177 205> 491 143<320 349>
Fore
413 549 m 0
 550 549 634 473 634 349 c 0
 634 263 602 163 555 100 c 0
 494 19 407 -23 299 -23 c 0
 167 -23 82 55 82 177 c 0
 82 263 113 363 161 426 c 0
 220 505 310 549 413 549 c 0
391 437 m 0
 301 437 225 332 225 205 c 0
 225 134 264 89 324 89 c 0
 376 89 422 120 453 176 c 0
 477 218 491 271 491 320 c 0
 491 391 452 437 391 437 c 0
599 757 m 1
 441 607 l 1
 371 607 l 1
 473 757 l 1
 599 757 l 1
EndSplineSet
KernsSLIF: 121 -29 0 0 119 -13 0 0 118 -27 0 0
Ligature: 0 0 'liga' o acutecomb
EndChar
StartChar: ograve
Encoding: 353 242 247
Width: 611
Flags: W
HStem: -23 112<299 328> 437 112<389 413> 607 150<327 491>
VStem: 82 143<177 205> 491 143<320 349>
Fore
413 549 m 0
 550 549 634 473 634 349 c 0
 634 263 602 163 555 100 c 0
 494 19 407 -23 299 -23 c 0
 167 -23 82 55 82 177 c 0
 82 263 113 363 161 426 c 0
 220 505 310 549 413 549 c 0
391 437 m 0
 301 437 225 332 225 205 c 0
 225 134 264 89 324 89 c 0
 376 89 422 120 453 176 c 0
 477 218 491 271 491 320 c 0
 491 391 452 437 391 437 c 0
327 757 m 1
 446 757 l 1
 491 607 l 1
 428 607 l 1
 327 757 l 1
EndSplineSet
KernsSLIF: 121 -29 0 0 119 -13 0 0 118 -27 0 0
Ligature: 0 0 'liga' o gravecomb
EndChar
StartChar: ocircumflex
Encoding: 354 244 248
Width: 611
Flags: W
HStem: -23 112<299 326> 437 112<389 413> 610 147<415 594>
VStem: 82 143<177 205> 491 143<320 349>
DStem: 415 757 455 707 276 610 352 610
Fore
413 549 m 0
 550 549 634 473 634 349 c 0
 634 263 602 163 555 100 c 0
 494 19 407 -23 299 -23 c 0
 167 -23 82 55 82 177 c 0
 82 263 113 363 161 426 c 0
 220 505 310 549 413 549 c 0
391 437 m 0
 301 437 225 332 225 205 c 0
 225 134 264 89 324 89 c 0
 376 89 422 120 453 176 c 0
 477 218 491 271 491 320 c 0
 491 391 452 437 391 437 c 0
415 757 m 1
 523 757 l 1
 594 610 l 1
 516 610 l 1
 455 707 l 1
 352 610 l 1
 276 610 l 1
 415 757 l 1
EndSplineSet
KernsSLIF: 116 -13 0 0
Ligature: 0 0 'liga' o uni0302
EndChar
StartChar: otilde
Encoding: 355 245 249
Width: 611
Flags: W
HStem: -23 112<299 326> 437 112<386 413> 672 70<345 377>
VStem: 82 143<177 205> 491 143<320 349>
Fore
413 549 m 0
 550 549 634 473 634 349 c 0
 634 263 602 163 555 100 c 0
 494 19 407 -23 299 -23 c 0
 167 -23 82 55 82 177 c 0
 82 263 113 363 161 426 c 0
 220 505 310 549 413 549 c 0
391 437 m 0
 301 437 225 332 225 205 c 0
 225 135 264 89 324 89 c 0
 376 89 422 120 453 176 c 0
 477 218 491 271 491 320 c 0
 491 391 452 437 391 437 c 0
585 744 m 1
 639 744 l 1
 602 667 544 622 480 622 c 0
 463 622 443 627 432 633 c 2
 387 658 l 2
 374 665 353 672 345 672 c 0
 327 672 308 657 285 624 c 1
 231 624 l 1
 270 700 322 742 377 742 c 0
 402 742 411 739 444 724 c 2
 489 703 l 2
 506 694 509 693 520 693 c 0
 543 693 564 710 585 744 c 1
EndSplineSet
Ligature: 0 0 'liga' o tildecomb
EndChar
StartChar: ohungarumlaut
Encoding: 356 337 250
Width: 611
Flags: W
HStem: -23 112<299 326> 437 112<389 413>
VStem: 82 143<177 205> 491 143<320 349>
Fore
413 549 m 0
 550 549 634 473 634 349 c 0
 634 263 602 163 555 100 c 0
 494 19 407 -23 299 -23 c 0
 167 -23 82 55 82 177 c 0
 82 263 113 363 161 426 c 0
 220 505 310 549 413 549 c 0
391 437 m 0
 301 437 225 332 225 205 c 0
 225 134 264 89 324 89 c 0
 376 89 422 120 453 176 c 0
 477 218 491 271 491 320 c 0
 491 391 452 437 391 437 c 0
522 757 m 1
 364 610 l 1
 294 610 l 1
 396 757 l 1
 522 757 l 1
710 757 m 1
 552 610 l 1
 482 610 l 1
 584 757 l 1
 710 757 l 1
EndSplineSet
Ligature: 0 0 'liga' o uni030B
EndChar
StartChar: racute
Encoding: 357 341 251
Width: 389
Flags: W
HStem: 0 21G<63 203> 410 139<414 470>
DStem: 178 540 264 287 63 0 203 0
Fore
178 540 m 1
 318 540 l 1
 295 434 l 1
 342 507 406 549 470 549 c 0
 474 549 479 549 487 548 c 1
 457 406 l 1
 439 409 429 410 414 410 c 0
 332 410 281 369 264 287 c 1
 203 0 l 1
 63 0 l 1
 178 540 l 1
500 757 m 1
 342 607 l 1
 272 607 l 1
 374 757 l 1
 500 757 l 1
EndSplineSet
Ligature: 0 0 'liga' r acutecomb
EndChar
StartChar: sacute
Encoding: 358 347 252
Width: 556
Flags: W
HStem: -23 112<281 309> 437 112<362 387>
VStem: 127 149<345 384> 411 148<144 187> 452 137<385 404>
Fore
584 366 m 1xe8
 449 366 l 1
 451 375 452 379 452 385 c 0xe8
 452 417 419 437 364 437 c 0
 311 437 276 416 276 384 c 0
 276 364 290 354 341 339 c 2
 437 311 l 2
 520 286 559 247 559 187 c 0
 559 59 451 -23 281 -23 c 0
 219 -23 172 -13 133 10 c 0
 89 35 60 82 60 127 c 0
 60 136 61 142 64 157 c 1
 201 157 l 1
 202 134 208 123 222 111 c 0
 241 97 272 89 307 89 c 0
 368 89 411 112 411 144 c 0xf0
 411 167 398 176 335 196 c 2
 256 221 l 2
 168 250 127 289 127 345 c 0
 127 395 155 452 198 490 c 0
 241 528 308 549 387 549 c 0
 513 549 589 494 589 404 c 0
 589 393 588 384 584 366 c 1xe8
570 757 m 1
 412 607 l 1
 342 607 l 1
 444 757 l 1
 570 757 l 1
EndSplineSet
Ligature: 0 0 'liga' s acutecomb
EndChar
StartChar: scaron
Encoding: 359 353 253
Width: 556
Flags: W
HStem: -23 112<281 309> 437 112<357 387> 610 147<279 458>
VStem: 127 149<345 384> 411 148<144 187> 452 137<385 404>
Fore
584 366 m 1xf4
 449 366 l 1
 451 375 452 379 452 385 c 0xf4
 452 417 419 437 364 437 c 0
 311 437 276 416 276 384 c 0
 276 364 290 354 341 339 c 2
 437 311 l 2
 520 286 559 247 559 187 c 0
 559 59 451 -23 281 -23 c 0
 219 -23 172 -13 133 10 c 0
 89 35 60 82 60 127 c 0
 60 136 61 142 64 157 c 1
 201 157 l 1
 202 134 208 123 222 111 c 0
 241 97 272 89 307 89 c 0
 368 89 411 112 411 144 c 0xf8
 411 167 398 176 335 196 c 2
 256 221 l 2
 168 250 127 289 127 345 c 0
 127 395 155 452 198 490 c 0
 241 528 308 549 387 549 c 0
 513 549 589 494 589 404 c 0
 589 393 588 384 584 366 c 1xf4
458 610 m 1
 350 610 l 1
 279 757 l 1
 357 757 l 1
 418 660 l 1
 521 757 l 1
 597 757 l 1
 458 610 l 1
EndSplineSet
Ligature: 0 0 'liga' s uni030C
EndChar
StartChar: scommaaccent
Encoding: 360 537 254
Width: 556
Flags: W
HStem: -23 112<281 313> 437 112<362 387>
VStem: 127 149<345 384> 411 148<144 187> 452 137<385 404>
Fore
584 366 m 1xe8
 449 366 l 1
 451 375 452 379 452 385 c 0xe8
 452 417 419 437 364 437 c 0
 311 437 276 416 276 384 c 0
 276 364 290 354 341 339 c 2
 437 311 l 2
 520 286 559 247 559 187 c 0
 559 59 451 -23 281 -23 c 0
 219 -23 172 -13 133 10 c 0
 89 35 60 82 60 127 c 0
 60 136 61 142 64 157 c 1
 201 157 l 1
 202 134 208 123 222 111 c 0
 241 97 272 89 307 89 c 0
 368 89 411 112 411 144 c 0xf0
 411 167 398 176 335 196 c 2
 256 221 l 2
 168 250 127 289 127 345 c 0
 127 395 155 452 198 490 c 0
 241 528 308 549 387 549 c 0
 513 549 589 494 589 404 c 0
 589 393 588 384 584 366 c 1xe8
210 -60 m 1
 332 -60 l 1
 311 -156 l 1
 301 -234 234 -301 158 -307 c 1
 168 -261 l 1
 212 -253 247 -217 253 -172 c 1
 186 -172 l 1
 210 -60 l 1
EndSplineSet
Ligature: 0 0 'liga' s uni0326
EndChar
StartChar: tcaron
Encoding: 361 357 255
Width: 404
Flags: W
HStem: -23 106<214 286> 436 93<126 176 336 394> 697 20G<432 499>
VStem: 101 147<63 108>
DStem: 176 436 316 436 106 104 254 142 227 674 367 674 196 529 336 529
Fore
414 529 m 1
 394 436 l 1
 316 436 l 1
 254 142 l 1
 250 125 248 113 248 108 c 0
 248 93 263 83 286 83 c 0
 297 83 305 84 319 86 c 1
 299 -12 l 1
 271 -20 247 -23 214 -23 c 0
 141 -23 101 8 101 63 c 0
 101 76 103 90 106 104 c 2
 176 436 l 1
 107 436 l 1
 127 529 l 1
 196 529 l 1
 227 674 l 1
 367 674 l 1
 336 529 l 1
 414 529 l 1
456 829 m 1
 578 829 l 1
 557 733 l 1
 547 655 480 588 404 582 c 1
 414 628 l 1
 458 636 493 672 499 717 c 1
 432 717 l 1
 456 829 l 1
EndSplineSet
Ligature: 0 0 'liga' t uni030C
EndChar
StartChar: udieresis
Encoding: 362 252 256
Width: 611
Flags: W
HStem: -23 112<234 314> 520 20G<174 314 516 656> 621 120<309 394 495 580>
VStem: 88 150<109 164>
DStem: 174 540 314 540 94 164 244 213 310 741 420 741 284 621 394 621 496 741 606 741 470 621 580 621 516 540 656 540 448 222 541 0
Fore
541 0 m 1
 401 0 l 1
 416 68 l 1
 362 4 308 -23 234 -23 c 0
 146 -23 88 29 88 109 c 0
 88 127 90 145 94 164 c 2
 174 540 l 1
 314 540 l 1
 244 213 l 1
 240 190 238 178 238 164 c 0
 238 115 264 89 314 89 c 0
 379 89 431 141 448 222 c 1
 516 540 l 1
 656 540 l 1
 541 0 l 1
420 741 m 1
 394 621 l 1
 284 621 l 1
 310 741 l 1
 420 741 l 1
606 741 m 1
 580 621 l 1
 470 621 l 1
 496 741 l 1
 606 741 l 1
EndSplineSet
Ligature: 0 0 'liga' u uni0308
EndChar
StartChar: uacute
Encoding: 363 250 257
Width: 611
Flags: W
HStem: -23 112<234 314> 520 20G<174 314 516 656>
VStem: 88 150<109 164>
DStem: 174 540 314 540 94 164 244 213 516 540 656 540 448 222 541 0
Fore
541 0 m 1
 401 0 l 1
 416 68 l 1
 362 4 308 -23 234 -23 c 0
 146 -23 88 29 88 109 c 0
 88 127 90 145 94 164 c 2
 174 540 l 1
 314 540 l 1
 244 213 l 1
 240 190 238 178 238 164 c 0
 238 115 264 89 314 89 c 0
 379 89 431 141 448 222 c 1
 516 540 l 1
 656 540 l 1
 541 0 l 1
587 757 m 1
 429 607 l 1
 359 607 l 1
 461 757 l 1
 587 757 l 1
EndSplineSet
Ligature: 0 0 'liga' u acutecomb
EndChar
StartChar: ugrave
Encoding: 364 249 258
Width: 611
Flags: W
HStem: -23 112<234 314> 520 20G<174 314 516 656> 607 150<325 489>
VStem: 88 150<109 164>
DStem: 174 540 314 540 94 164 244 213 516 540 656 540 448 222 541 0
Fore
541 0 m 1
 401 0 l 1
 416 68 l 1
 362 4 308 -23 234 -23 c 0
 146 -23 88 29 88 109 c 0
 88 127 90 145 94 164 c 2
 174 540 l 1
 314 540 l 1
 244 213 l 1
 240 190 238 178 238 164 c 0
 238 115 264 89 314 89 c 0
 379 89 431 141 448 222 c 1
 516 540 l 1
 656 540 l 1
 541 0 l 1
325 757 m 1
 444 757 l 1
 489 607 l 1
 426 607 l 1
 325 757 l 1
EndSplineSet
Ligature: 0 0 'liga' u gravecomb
EndChar
StartChar: ucircumflex
Encoding: 365 251 259
Width: 611
Flags: W
HStem: -23 112<234 314> 520 20G<174 314 516 656> 610 147<405 584>
VStem: 88 150<109 164>
DStem: 174 540 314 540 94 164 244 213 405 757 445 707 266 610 342 610 516 540 656 540 448 222 541 0
Fore
541 0 m 1
 401 0 l 1
 416 68 l 1
 362 4 308 -23 234 -23 c 0
 146 -23 88 29 88 109 c 0
 88 127 90 145 94 164 c 2
 174 540 l 1
 314 540 l 1
 244 213 l 1
 240 190 238 178 238 164 c 0
 238 115 264 89 314 89 c 0
 379 89 431 141 448 222 c 1
 516 540 l 1
 656 540 l 1
 541 0 l 1
405 757 m 1
 513 757 l 1
 584 610 l 1
 506 610 l 1
 445 707 l 1
 342 610 l 1
 266 610 l 1
 405 757 l 1
EndSplineSet
Ligature: 0 0 'liga' u uni0302
EndChar
StartChar: uring
Encoding: 366 367 260
Width: 611
Flags: W
HStem: -23 112<234 314> 520 20G<174 314 516 656> 593 50<425 438> 723 50<453 465>
VStem: 88 150<109 164> 353 49<664 677> 488 49<690 702>
DStem: 174 540 314 540 94 164 244 213 516 540 656 540 448 222 541 0
Fore
541 0 m 1
 401 0 l 1
 416 68 l 1
 362 4 308 -23 234 -23 c 0
 146 -23 88 29 88 109 c 0
 88 127 90 145 94 164 c 2
 174 540 l 1
 314 540 l 1
 244 213 l 1
 240 190 238 178 238 164 c 0
 238 115 264 89 314 89 c 0
 379 89 431 141 448 222 c 1
 516 540 l 1
 656 540 l 1
 541 0 l 1
465 773 m 0
 507 773 537 743 537 702 c 0
 537 645 483 593 425 593 c 0
 383 593 353 623 353 664 c 0
 353 721 407 773 465 773 c 0
455 723 m 0
 428 723 402 700 402 675 c 0
 402 657 416 643 436 643 c 0
 463 643 488 667 488 692 c 0
 488 710 474 723 455 723 c 0
EndSplineSet
Ligature: 0 0 'liga' u uni030A
EndChar
StartChar: uhungarumlaut
Encoding: 367 369 261
Width: 611
Flags: W
HStem: -23 112<234 314> 520 20G<174 314 516 656>
VStem: 88 150<109 164>
DStem: 174 540 314 540 94 164 244 213 516 540 656 540 448 222 541 0
Fore
541 0 m 1
 401 0 l 1
 416 68 l 1
 362 4 308 -23 234 -23 c 0
 146 -23 88 29 88 109 c 0
 88 127 90 145 94 164 c 2
 174 540 l 1
 314 540 l 1
 244 213 l 1
 240 190 238 178 238 164 c 0
 238 115 264 89 314 89 c 0
 379 89 431 141 448 222 c 1
 516 540 l 1
 656 540 l 1
 541 0 l 1
509 757 m 1
 351 610 l 1
 281 610 l 1
 383 757 l 1
 509 757 l 1
697 757 m 1
 539 610 l 1
 469 610 l 1
 571 757 l 1
 697 757 l 1
EndSplineSet
Ligature: 0 0 'liga' u uni030B
EndChar
StartChar: yacute
Encoding: 368 253 262
Width: 556
Flags: W
HStem: -219 111<68 102> 520 20G<124 278 509 653>
Fore
509 540 m 1
 653 540 l 1
 295 -98 l 2
 259 -163 237 -185 194 -202 c 0
 164 -213 125 -219 81 -219 c 0
 60 -219 50 -218 37 -215 c 1
 60 -106 l 1
 71 -108 76 -108 88 -108 c 0
 157 -108 201 -72 201 -15 c 1
 200 0 l 1
 124 540 l 1
 278 540 l 1
 314 147 l 1
 509 540 l 1
566 757 m 1
 408 607 l 1
 338 607 l 1
 440 757 l 1
 566 757 l 1
EndSplineSet
Ligature: 0 0 'liga' y acutecomb
EndChar
StartChar: zacute
Encoding: 369 378 263
Width: 500
Flags: W
HStem: 0 113<219 469> 427 113<153 379>
DStem: 379 427 551 427 45 113 219 113
Fore
575 540 m 1
 551 427 l 1
 219 113 l 1
 493 113 l 1
 469 0 l 1
 21 0 l 1
 45 113 l 1
 379 427 l 1
 130 427 l 1
 154 540 l 1
 575 540 l 1
542 757 m 1
 384 607 l 1
 314 607 l 1
 416 757 l 1
 542 757 l 1
EndSplineSet
Ligature: 0 0 'liga' z acutecomb
EndChar
StartChar: zcaron
Encoding: 370 382 264
Width: 500
Flags: W
HStem: 0 113<219 469> 427 113<153 379> 610 147<256 435>
DStem: 379 427 551 427 45 113 219 113
Fore
575 540 m 1
 551 427 l 1
 219 113 l 1
 493 113 l 1
 469 0 l 1
 21 0 l 1
 45 113 l 1
 379 427 l 1
 130 427 l 1
 154 540 l 1
 575 540 l 1
435 610 m 1
 327 610 l 1
 256 757 l 1
 334 757 l 1
 395 660 l 1
 498 757 l 1
 574 757 l 1
 435 610 l 1
EndSplineSet
Ligature: 0 0 'liga' z uni030C
EndChar
StartChar: zdotaccent
Encoding: 371 380 265
Width: 500
Flags: W
HStem: 0 113<219 469> 427 113<153 379> 721 20G<354 464>
DStem: 354 741 464 741 328 621 438 621 379 427 551 427 45 113 219 113
Fore
575 540 m 1
 551 427 l 1
 219 113 l 1
 493 113 l 1
 469 0 l 1
 21 0 l 1
 45 113 l 1
 379 427 l 1
 130 427 l 1
 154 540 l 1
 575 540 l 1
464 741 m 1
 438 621 l 1
 328 621 l 1
 354 741 l 1
 464 741 l 1
EndSplineSet
Ligature: 0 0 'liga' z uni0307
EndChar
StartChar: ydieresis
Encoding: 372 255 266
Width: 556
Flags: W
HStem: -219 111<68 102> 520 20G<124 278 509 653> 621 120<286 371 472 557>
DStem: 287 741 397 741 261 621 371 621 473 741 583 741 447 621 557 621
Fore
509 540 m 1
 653 540 l 1
 295 -98 l 2
 259 -163 237 -185 194 -202 c 0
 164 -213 125 -219 81 -219 c 0
 60 -219 50 -218 37 -215 c 1
 60 -106 l 1
 71 -108 76 -108 88 -108 c 0
 157 -108 201 -72 201 -15 c 1
 200 0 l 1
 124 540 l 1
 278 540 l 1
 314 147 l 1
 509 540 l 1
397 741 m 1
 371 621 l 1
 261 621 l 1
 287 741 l 1
 397 741 l 1
583 741 m 1
 557 621 l 1
 447 621 l 1
 473 741 l 1
 583 741 l 1
EndSplineSet
Ligature: 0 0 'liga' y uni0308
EndChar
StartChar: tcommaaccent
Encoding: 373 355 267
Width: 333
Flags: W
HStem: -23 106<214 286> 436 93<125 176 336 394>
DStem: 176 436 316 436 106 104 253 142 227 674 367 674 196 529 336 529
Fore
414 529 m 1
 394 436 l 1
 316 436 l 1
 253 142 l 1
 250 125 248 113 248 108 c 0
 248 93 263 83 286 83 c 0
 296 83 305 84 319 86 c 1
 298 -12 l 1
 271 -20 247 -23 214 -23 c 0
 141 -23 101 8 101 63 c 0
 101 77 102 90 106 104 c 1
 176 436 l 1
 107 436 l 1
 126 529 l 1
 196 529 l 1
 227 674 l 1
 367 674 l 1
 336 529 l 1
 414 529 l 1
114 -60 m 1
 236 -60 l 1
 215 -156 l 1
 205 -234 138 -301 62 -307 c 1
 72 -261 l 1
 116 -253 151 -217 157 -172 c 1
 90 -172 l 1
 114 -60 l 1
EndSplineSet
Ligature: 0 0 'liga' t uni0327
EndChar
StartChar: amacron
Encoding: 374 257 268
Width: 556
Flags: W
HStem: -23 112<199 266> 437 112<353 386> 642 80<278 562>
VStem: 50 143<108 139> 436 142<394 428>
Fore
527 17 m 1
 523 0 l 1
 370 0 l 1
 365 11 363 17 363 27 c 0
 363 34 363 39 366 54 c 1
 306 0 257 -23 199 -23 c 0
 156 -23 122 -13 97 8 c 0
 68 32 50 70 50 108 c 0
 50 168 83 229 136 267 c 0
 167 289 204 303 252 311 c 2
 310 320 l 2
 382 330 382 330 402 341 c 0
 422 351 436 373 436 394 c 0
 436 424 414 437 363 437 c 0
 299 437 268 417 251 362 c 1
 120 362 l 1
 148 492 229 549 386 549 c 0
 456 549 505 537 537 511 c 0
 560 492 578 457 578 428 c 0
 578 416 576 401 572 383 c 2
 509 83 l 1
 507 75 506 68 506 62 c 0
 506 47 512 34 527 17 c 1
400 217 m 1
 408 255 l 1
 396 248 393 247 382 245 c 0
 378 244 371 243 361 241 c 2
 345 238 l 1
 295 230 l 2
 230 219 193 186 193 139 c 0
 193 106 218 89 266 89 c 0
 334 89 382 135 400 217 c 1
579 722 m 1
 562 642 l 1
 262 642 l 1
 279 722 l 1
 579 722 l 1
EndSplineSet
Ligature: 0 0 'liga' a uni0304
EndChar
StartChar: emacron
Encoding: 375 275 269
Width: 556
Flags: W
HStem: -23 112<275 302> 226 93<228 573> 437 112<360 379> 642 80<276 560>
VStem: 64 143<168 202> 448 143<319 362>
Fore
573 226 m 1
 210 226 l 1
 207 198 207 190 207 181 c 0
 207 126 245 89 302 89 c 0
 350 89 394 114 414 152 c 1
 552 152 l 1
 497 41 396 -23 275 -23 c 0
 150 -23 64 61 64 185 c 0
 64 285 110 402 174 469 c 0
 221 518 301 549 379 549 c 0
 452 549 510 525 546 480 c 0
 574 444 591 397 591 351 c 0
 591 313 585 271 573 226 c 1
448 319 m 1
 448 334 l 2
 448 366 446 377 439 392 c 0
 426 420 397 437 362 437 c 0
 322 437 282 418 258 386 c 0
 245 369 237 351 228 319 c 1
 448 319 l 1
577 722 m 1
 560 642 l 1
 260 642 l 1
 277 722 l 1
 577 722 l 1
EndSplineSet
Ligature: 0 0 'liga' e uni0304
EndChar
StartChar: imacron
Encoding: 376 299 270
Width: 278
Flags: W
HStem: 0 21G<67 207> 520 20G<182 322> 642 80<156 407>
DStem: 182 540 322 540 67 0 207 0
Fore
322 540 m 1
 207 0 l 1
 67 0 l 1
 182 540 l 1
 322 540 l 1
424 722 m 1
 407 642 l 1
 140 642 l 1
 157 722 l 1
 424 722 l 1
EndSplineSet
Ligature: 0 0 'liga' i uni0304
EndChar
StartChar: kcommaaccent
Encoding: 377 311 271
Width: 556
Flags: W
HStem: 0 21G<59 199 384 548> 520 20G<492 651> 709 20G<214 354>
DStem: 214 729 354 729 59 0 269 330 214 729 237 177 59 0 199 0
Fore
354 729 m 1
 269 330 l 1
 492 540 l 1
 651 540 l 1
 419 334 l 1
 548 0 l 1
 384 0 l 1
 305 239 l 1
 237 177 l 1
 199 0 l 1
 59 0 l 1
 214 729 l 1
 354 729 l 1
220 -60 m 1
 342 -60 l 1
 321 -156 l 1
 311 -234 244 -301 168 -307 c 1
 178 -261 l 1
 222 -253 257 -217 263 -172 c 1
 196 -172 l 1
 220 -60 l 1
EndSplineSet
Ligature: 0 0 'liga' k uni0327
EndChar
StartChar: lcommaaccent
Encoding: 378 316 272
Width: 278
Flags: W
HStem: 0 21G<67 207> 709 20G<222 362>
DStem: 222 729 362 729 67 0 207 0
Fore
362 729 m 1
 207 0 l 1
 67 0 l 1
 222 729 l 1
 362 729 l 1
63 -60 m 1
 185 -60 l 1
 164 -156 l 1
 154 -234 87 -301 11 -307 c 1
 21 -261 l 1
 65 -253 100 -217 106 -172 c 1
 39 -172 l 1
 63 -60 l 1
EndSplineSet
Ligature: 0 0 'liga' l uni0327
EndChar
StartChar: ncommaaccent
Encoding: 379 326 273
Width: 611
Flags: W
HStem: 0 21G<63 203 406 546> 437 112<405 482>
VStem: 479 150<362 417>
DStem: 178 540 268 304 63 0 203 0 473 313 623 362 406 0 546 0
Fore
178 540 m 1
 318 540 l 1
 300 458 l 1
 354 522 408 549 482 549 c 0
 571 549 629 497 629 417 c 0
 629 399 627 381 623 362 c 2
 546 0 l 1
 406 0 l 1
 473 313 l 1
 477 335 479 349 479 362 c 0
 479 410 453 437 405 437 c 0
 338 437 285 386 268 304 c 1
 203 0 l 1
 63 0 l 1
 178 540 l 1
231 -60 m 1
 353 -60 l 1
 332 -156 l 1
 322 -234 255 -301 179 -307 c 1
 189 -261 l 1
 233 -253 268 -217 274 -172 c 1
 207 -172 l 1
 231 -60 l 1
EndSplineSet
Ligature: 0 0 'liga' n uni0327
EndChar
StartChar: omacron
Encoding: 380 333 274
Width: 611
Flags: W
HStem: -23 112<299 326> 437 112<389 413> 642 80<305 589>
VStem: 82 143<177 205> 491 143<320 349>
Fore
413 549 m 0
 550 549 634 473 634 349 c 0
 634 263 602 163 555 100 c 0
 494 19 407 -23 299 -23 c 0
 167 -23 82 55 82 177 c 0
 82 263 113 363 161 426 c 0
 220 505 310 549 413 549 c 0
391 437 m 0
 301 437 225 332 225 205 c 0
 225 134 264 89 324 89 c 0
 376 89 422 120 453 176 c 0
 477 218 491 271 491 320 c 0
 491 391 452 437 391 437 c 0
606 722 m 1
 589 642 l 1
 289 642 l 1
 306 722 l 1
 606 722 l 1
EndSplineSet
Ligature: 0 0 'liga' o uni0304
EndChar
StartChar: rcommaaccent
Encoding: 381 343 275
Width: 389
Flags: W
HStem: 0 21G<63 203> 410 139<414 470>
DStem: 178 540 264 287 63 0 203 0
Fore
178 540 m 1
 318 540 l 1
 296 434 l 1
 342 507 406 549 470 549 c 0
 474 549 479 549 487 548 c 1
 457 406 l 1
 439 409 429 410 414 410 c 0
 332 410 282 369 264 287 c 1
 203 0 l 1
 63 0 l 1
 178 540 l 1
60 -60 m 1
 182 -60 l 1
 161 -156 l 1
 151 -234 84 -301 8 -307 c 1
 18 -261 l 1
 62 -253 97 -217 103 -172 c 1
 36 -172 l 1
 60 -60 l 1
EndSplineSet
Ligature: 0 0 'liga' r uni0327
EndChar
StartChar: umacron
Encoding: 382 363 276
Width: 611
Flags: W
HStem: -23 112<234 314> 520 20G<174 314 516 656> 642 80<303 587>
VStem: 88 150<109 164>
DStem: 174 540 314 540 94 164 244 213 516 540 656 540 448 222 541 0
Fore
541 0 m 1
 401 0 l 1
 416 68 l 1
 362 4 308 -23 234 -23 c 0
 146 -23 88 29 88 109 c 0
 88 127 90 145 94 164 c 2
 174 540 l 1
 314 540 l 1
 244 213 l 1
 240 190 238 178 238 164 c 0
 238 115 264 89 314 89 c 0
 379 89 431 141 448 222 c 1
 516 540 l 1
 656 540 l 1
 541 0 l 1
604 722 m 1
 587 642 l 1
 287 642 l 1
 304 722 l 1
 604 722 l 1
EndSplineSet
Ligature: 0 0 'liga' u uni0304
EndChar
StartChar: uogonek
Encoding: 383 371 277
Width: 611
Flags: W
HStem: -233 50<454 473> -23 112<234 314> 520 20G<174 314 516 656>
VStem: 88 150<109 164> 317 99<-154 -140>
DStem: 174 540 314 540 94 164 244 213 516 540 656 540 448 222 541 0
Fore
656 540 m 1
 541 0 l 1
 461 -41 416 -92 416 -142 c 0
 416 -169 434 -183 469 -183 c 0
 491 -183 515 -179 537 -172 c 1
 526 -224 l 1
 483 -233 482 -233 456 -233 c 0
 364 -233 317 -206 317 -154 c 0
 317 -94 365 -45 466 0 c 1
 401 0 l 1
 416 68 l 1
 362 4 308 -23 234 -23 c 0
 146 -23 88 29 88 109 c 0
 88 127 90 145 94 164 c 2
 174 540 l 1
 314 540 l 1
 244 213 l 1
 240 190 238 178 238 164 c 0
 238 115 264 89 314 89 c 0
 379 89 431 141 448 222 c 1
 516 540 l 1
 656 540 l 1
EndSplineSet
Ligature: 0 0 'liga' u uni0328
EndChar
StartChar: rcaron
Encoding: 384 345 278
Width: 389
Flags: W
HStem: 0 21G<63 203> 410 139<414 470> 610 147<215 394>
DStem: 178 540 264 287 63 0 203 0
Fore
178 540 m 1
 318 540 l 1
 295 434 l 1
 342 507 406 549 470 549 c 0
 474 549 479 549 487 548 c 1
 457 406 l 1
 439 409 429 410 414 410 c 0
 332 410 281 369 264 287 c 1
 203 0 l 1
 63 0 l 1
 178 540 l 1
394 610 m 1
 286 610 l 1
 215 757 l 1
 293 757 l 1
 354 660 l 1
 457 757 l 1
 533 757 l 1
 394 610 l 1
EndSplineSet
Ligature: 0 0 'liga' r uni030C
EndChar
StartChar: scedilla
Encoding: 385 351 279
Width: 556
Flags: W
HStem: -220 50<196 224> -22 111<288 317> 437 112<362 387>
VStem: 127 149<345 384> 281 87<-128 -113> 411 148<144 187> 452 137<385 404>
DStem: 238 -21 288 -22 184 -106 262 -62
Fore
288 -22 m 1xfc
 262 -62 l 1
 277 -58 290 -56 305 -56 c 0
 344 -56 368 -77 368 -113 c 0
 368 -178 308 -220 218 -220 c 0
 173 -220 142 -213 85 -191 c 1
 115 -140 l 1
 162 -163 185 -170 213 -170 c 0
 251 -170 281 -150 281 -126 c 0
 281 -106 263 -93 237 -93 c 0
 220 -93 208 -96 184 -106 c 1
 238 -21 l 1
 215 -21 191 -15 159 -2 c 0
 99 21 60 72 60 127 c 0
 60 135 61 143 64 157 c 1
 201 157 l 1
 202 134 208 123 222 111 c 0
 241 97 272 89 307 89 c 0
 368 89 411 112 411 144 c 0xfc
 411 167 398 176 335 196 c 2
 256 221 l 2
 168 250 127 289 127 345 c 0
 127 395 155 452 198 490 c 0
 241 528 308 549 387 549 c 0
 513 549 589 494 589 404 c 0
 589 393 588 384 584 366 c 1
 449 366 l 1
 451 375 452 379 452 385 c 0xfa
 452 417 419 437 364 437 c 0
 311 437 276 416 276 384 c 0
 276 364 290 354 341 339 c 2
 437 311 l 2
 520 286 559 247 559 187 c 0
 559 60 454 -22 288 -22 c 1xfc
EndSplineSet
Ligature: 0 0 'liga' s uni0327
EndChar
StartChar: gcommaaccent
Encoding: 386 291 280
Width: 611
Flags: W
HStem: -218 90<235 267> -23 112<254 306> 437 112<369 393> 719 21G<450 516>
VStem: 26 146<-96 -77> 79 143<167 201>
Fore
523 540 m 1xf4
 656 540 l 1
 537 -18 l 1
 510 -146 401 -218 235 -218 c 0
 173 -218 129 -210 93 -192 c 0
 52 -172 26 -134 26 -96 c 0
 26 -88 27 -77 29 -65 c 1
 173 -65 l 1
 172 -77 l 1xf8
 172 -106 209 -128 258 -128 c 0
 331 -128 390 -83 404 -18 c 2
 420 55 l 1
 356 -4 316 -23 254 -23 c 0
 153 -23 79 57 79 167 c 0
 79 264 116 374 174 445 c 0
 227 511 302 549 378 549 c 0
 437 549 478 519 505 457 c 1
 523 540 l 1xf4
379 437 m 0
 297 437 222 324 222 201 c 0xf4
 222 132 254 89 306 89 c 0
 395 89 471 193 471 315 c 0
 471 389 435 437 379 437 c 0
493 607 m 1
 371 607 l 1
 391 703 l 1
 402 781 469 848 545 854 c 1
 535 808 l 1
 490 800 456 764 450 719 c 1
 516 719 l 1
 493 607 l 1
EndSplineSet
Ligature: 0 0 'liga' g uni0327
EndChar
StartChar: iogonek
Encoding: 387 303 281
Width: 268
Flags: W
HStem: -233 51<119 143> -20 20G<56 129> 520 20G<171 311> 709 20G<211 351>
VStem: 0 96<-151 -136>
DStem: 171 540 311 540 56 0 196 0
Fore
311 540 m 1
 196 0 l 1
 132 -45 96 -95 96 -140 c 0
 96 -167 112 -182 143 -182 c 0
 158 -182 163 -181 193 -172 c 1
 182 -224 l 1
 141 -233 138 -233 119 -233 c 0
 45 -233 0 -202 0 -150 c 0
 0 -98 36 -56 129 0 c 1
 56 0 l 1
 171 540 l 1
 311 540 l 1
351 729 m 1
 325 604 l 1
 185 604 l 1
 211 729 l 1
 351 729 l 1
EndSplineSet
Ligature: 0 0 'liga' i uni0328
EndChar
StartChar: Scommaaccent
Encoding: 388 536 282
Width: 667
Flags: W
HStem: -23 128<343 375> 613 128<443 473>
VStem: 76 148<174 196> 151 149<472 509> 538 149<216 265> 579 146<530 569>
Fore
717 507 m 1xd4
 577 507 l 1
 578 516 579 525 579 530 c 0
 579 584 532 613 447 613 c 0
 356 613 300 573 300 509 c 0xd4
 300 471 327 455 421 436 c 2
 530 414 l 2
 632 394 687 342 687 265 c 0
 687 199 660 126 618 79 c 0
 560 12 467 -23 345 -23 c 0
 249 -23 180 -2 132 42 c 0
 96 75 76 122 76 174 c 0
 76 188 77 198 80 218 c 1
 226 218 l 1
 225 209 224 200 224 196 c 0
 224 138 276 105 367 105 c 0
 471 105 538 149 538 216 c 0xe8
 538 262 509 283 418 301 c 2
 320 321 l 2
 201 345 151 389 151 472 c 0
 151 543 186 618 243 667 c 0
 300 717 376 741 473 741 c 0
 631 741 725 677 725 569 c 0
 725 549 723 535 717 507 c 1xd4
272 -60 m 1
 393 -60 l 1
 373 -156 l 1
 362 -234 295 -301 219 -307 c 1
 229 -261 l 1
 274 -253 309 -216 315 -172 c 1
 248 -172 l 1
 272 -60 l 1
EndSplineSet
Ligature: 0 0 'liga' S uni0326
EndChar
StartChar: Eth
Encoding: 389 208 283
Width: 722
Flags: W
HStem: 0 125<254 394> 341 80<89 150 316 473> 604 125<232 506>
VStem: 627 149<447 481>
DStem: 150 341 300 341 77 0 254 125 232 729 355 604 166 421 316 421
Fore
150 341 m 1
 73 341 l 1
 90 421 l 1
 166 421 l 1
 232 729 l 1
 517 729 l 2
 698 729 776 654 776 479 c 0
 776 361 735 238 664 140 c 0
 591 39 507 0 362 0 c 2
 77 0 l 1
 150 341 l 1
300 341 m 1
 254 125 l 1
 388 125 l 2
 475 125 524 153 567 228 c 0
 601 287 627 390 627 469 c 0
 627 560 582 604 490 604 c 2
 355 604 l 1
 316 421 l 1
 490 421 l 1
 473 341 l 1
 300 341 l 1
EndSplineSet
EndChar
StartChar: Dcroat
Encoding: 390 272 284
Width: 722
Flags: W
HStem: 0 125<254 394> 341 80<89 150 316 473> 604 125<232 506>
VStem: 627 149<447 481>
DStem: 150 341 300 341 77 0 254 125 232 729 355 604 166 421 316 421
Fore
150 341 m 1
 73 341 l 1
 90 421 l 1
 166 421 l 1
 232 729 l 1
 517 729 l 2
 698 729 776 654 776 479 c 0
 776 361 735 238 664 140 c 0
 591 39 507 0 362 0 c 2
 77 0 l 1
 150 341 l 1
300 341 m 1
 254 125 l 1
 388 125 l 2
 475 125 524 153 567 228 c 0
 601 287 627 390 627 469 c 0
 627 560 582 604 490 604 c 2
 355 604 l 1
 316 421 l 1
 490 421 l 1
 473 341 l 1
 300 341 l 1
EndSplineSet
EndChar
StartChar: Thorn
Encoding: 391 222 285
Width: 667
Flags: W
HStem: 0 21G<76 226> 140 125<282 445> 484 125<355 493> 484 245<231 482>
VStem: 572 149<405 440>
DStem: 231 729 329 484 76 0 282 265
Fore
256 140 m 1xe8
 226 0 l 1
 76 0 l 1
 231 729 l 1
 381 729 l 1xd8
 355 609 l 1
 514 609 l 2
 580 609 621 598 657 570 c 0
 698 539 721 492 721 440 c 0
 721 363 687 278 633 221 c 0
 579 164 522 140 443 140 c 2
 256 140 l 1xe8
282 265 m 1
 435 265 l 2
 488 265 522 281 547 316 c 0
 561 337 572 376 572 405 c 0
 572 452 536 484 482 484 c 2xe8
 329 484 l 1
 282 265 l 1
EndSplineSet
EndChar
StartChar: dcroat
Encoding: 392 273 286
Width: 611
Flags: W
HStem: -23 112<251 309> 437 112<366 394> 596 67<405 532 686 732> 596 133<560 732>
VStem: 79 143<185 208>
Fore
546 663 m 1xe8
 560 729 l 1
 700 729 l 1xd8
 686 663 l 1
 746 663 l 1
 732 596 l 1xe8
 672 596 l 1xd8
 545 0 l 1
 405 0 l 1
 417 55 l 1
 371 2 318 -23 251 -23 c 0
 147 -23 79 59 79 185 c 0
 79 267 108 357 157 428 c 0
 210 503 291 549 372 549 c 0
 440 549 482 524 505 470 c 1
 532 596 l 1xe8
 392 596 l 1xd8
 406 663 l 1
 546 663 l 1xe8
380 437 m 0
 297 437 222 327 222 206 c 0
 222 134 256 89 309 89 c 0
 394 89 468 197 468 323 c 0
 468 392 434 437 380 437 c 0
EndSplineSet
EndChar
StartChar: eth
Encoding: 393 240 287
Width: 611
Flags: W
HStem: -23 112<305 328> 431 99<362 387>
VStem: 83 144<178 206> 491 142<324 347>
DStem: 305 648 355 609 217 607 258 564 504 738 547 695 400 693 454 654
Fore
355 609 m 1
 258 564 l 1
 217 607 l 1
 305 648 l 1
 279 666 273 670 235 694 c 1
 305 744 l 1
 339 729 341 728 387 701 c 0
 389 699 394 697 400 693 c 1
 504 738 l 1
 547 695 l 1
 454 654 l 1
 584 558 633 473 633 345 c 0
 633 254 605 166 553 97 c 0
 495 18 409 -23 305 -23 c 0
 166 -23 83 52 83 178 c 0
 83 276 121 382 180 449 c 0
 225 500 292 530 362 530 c 0
 394 530 414 524 452 503 c 1
 428 544 393 582 355 609 c 1
387 431 m 0
 336 431 293 403 264 351 c 0
 240 309 227 256 227 206 c 0
 227 161 237 132 259 113 c 0
 278 98 302 89 326 89 c 0
 420 89 491 190 491 326 c 0
 491 366 481 390 458 408 c 0
 438 422 411 431 387 431 c 0
EndSplineSet
EndChar
StartChar: thorn
Encoding: 394 254 288
Width: 611
Flags: W
HStem: -23 112<330 348> 437 112<406 464> 709 20G<212 352>
VStem: 494 143<321 343>
DStem: 212 729 352 729 11 -218 295 460 212 729 211 64 11 -218 151 -218
Fore
352 729 m 1
 295 460 l 1
 341 519 397 549 464 549 c 0
 569 549 637 468 637 343 c 0
 637 142 505 -23 344 -23 c 0
 274 -23 232 5 211 64 c 1
 151 -218 l 1
 11 -218 l 1
 212 729 l 1
 352 729 l 1
406 437 m 0
 320 437 246 327 246 202 c 0
 246 134 281 89 334 89 c 0
 420 89 494 197 494 323 c 0
 494 392 459 437 406 437 c 0
EndSplineSet
EndChar
StartChar: Euro
Encoding: 395 8364 289
Width: 556
Flags: W
HStem: -23 131<305 340> 250 68<59 94 239 418> 386 68<88 114 283 495> 594 130<445 479>
Fore
60 318 m 1
 99 318 l 1
 104 347 106 358 114 386 c 1
 50 386 l 1
 89 454 l 1
 137 454 l 1
 211 625 336 724 479 724 c 0
 550 724 586 710 648 656 c 1
 575 527 l 1
 524 576 489 594 445 594 c 0
 382 594 325 545 283 454 c 1
 534 454 l 1
 495 386 l 1
 255 386 l 1
 247 359 243 340 239 318 c 1
 456 318 l 1
 418 250 l 1
 237 250 l 1
 244 158 280 108 340 108 c 0
 381 108 410 118 497 160 c 1
 466 11 l 1
 379 -16 345 -23 305 -23 c 0
 227 -23 153 23 123 88 c 0
 103 133 95 182 94 250 c 1
 21 250 l 1
 60 318 l 1
EndSplineSet
EndChar
StartChar: onesuperior
Encoding: 396 185 290
Width: 444
Flags: W
HStem: 573 61<223 248.83> 689 20G<375 438>
DStem: 316 573 438 709 254 284 348 284
Fore
316 573 m 1
 210 573 l 1
 223 634 l 1
 301 634 351 659 375 709 c 1
 438 709 l 1
 348 284 l 1
 254 284 l 1
 316 573 l 1
EndSplineSet
EndChar
StartChar: twosuperior
Encoding: 397 178 291
Width: 444
Flags: W
HStem: 284 80<263 430> 557 21G<188 279> 646 72<347 368>
VStem: 406 93<598 613>
Fore
447 364 m 1
 430 284 l 1
 124 284 l 1
 145 365 177 404 264 454 c 0
 334 495 354 509 374 528 c 0
 394 547 406 574 406 600 c 0
 406 629 387 646 354 646 c 0
 311 646 285 615 279 557 c 1
 188 557 l 1
 204 661 267 718 366 718 c 0
 450 718 499 679 499 613 c 0
 499 575 485 539 459 508 c 0
 439 486 416 468 364 437 c 0
 296 396 277 382 263 364 c 1
 447 364 l 1
EndSplineSet
EndChar
StartChar: threesuperior
Encoding: 398 179 292
Width: 444
Flags: W
HStem: 271 78<278 298> 471 62<293 308> 646 72<338 362>
VStem: 147 93<378 396> 369 93<420 439> 390 100<606 625>
Fore
280 471 m 1xf8
 293 534 l 1
 297 533 302 533 303 533 c 0
 356 533 390 561 390 606 c 0
 390 630 372 646 345 646 c 0
 307 646 289 627 277 571 c 1
 190 571 l 1
 210 673 263 718 362 718 c 0
 443 718 490 684 490 625 c 0xf4
 490 579 466 541 419 512 c 1
 448 494 462 471 462 439 c 0
 462 340 387 271 278 271 c 0
 195 271 147 310 147 378 c 0
 147 390 148 398 151 414 c 1
 242 414 l 1
 240 406 240 402 240 396 c 0
 240 365 259 349 296 349 c 0
 336 349 369 382 369 422 c 0
 369 456 347 470 293 471 c 2
 280 471 l 1xf8
EndSplineSet
EndChar
StartChar: degree
Encoding: 399 176 293
Width: 606
Flags: W
HStem: 383 63<390 401> 623 63<383 401>
VStem: 240 63<526 544> 480 63<535 544>
Fore
391 686 m 0
 475 686 543 618 543 535 c 0
 543 450 475 383 390 383 c 0
 308 383 240 452 240 535 c 0
 240 618 308 686 391 686 c 0
392 623 m 0
 343 623 303 583 303 534 c 0
 303 487 343 446 390 446 c 0
 440 446 480 485 480 535 c 0
 480 583 440 623 392 623 c 0
EndSplineSet
EndChar
StartChar: minus
Encoding: 400 8722 294
Width: 584
Flags: W
HStem: 172 120<101 581>
Fore
606 292 m 1
 581 172 l 1
 77 172 l 1
 102 292 l 1
 606 292 l 1
EndSplineSet
EndChar
StartChar: multiply
Encoding: 401 215 295
Width: 584
Flags: W
DStem: 156 359 258 444 257 231 359 315 257 231 323 147 102 103 168 19 323 147 425 231 424 18 526 102 516 444 582 360 359 315 425 231
Fore
516 444 m 1
 582 360 l 1
 425 231 l 1
 526 102 l 1
 424 18 l 1
 323 147 l 1
 168 19 l 1
 102 103 l 1
 257 231 l 1
 156 359 l 1
 258 444 l 1
 359 315 l 1
 516 444 l 1
EndSplineSet
EndChar
StartChar: divide
Encoding: 402 247 296
Width: 584
Flags: W
HStem: 0 124<292 318> 172 120<101 581> 338 124<363 390>
VStem: 242 126<49 73> 314 126<387 411>
Fore
606 292 m 1xe0
 581 172 l 1
 77 172 l 1
 102 292 l 1
 606 292 l 1xe0
318 124 m 0
 347 124 368 103 368 73 c 0
 368 36 331 0 292 0 c 0
 263 0 242 21 242 49 c 0xf0
 242 88 279 124 318 124 c 0
390 462 m 0
 419 462 440 441 440 411 c 0
 440 374 403 338 363 338 c 0
 335 338 314 359 314 387 c 0xe8
 314 425 351 462 390 462 c 0
EndSplineSet
EndChar
StartChar: trademark
Encoding: 403 8482 297
Width: 1000
Flags: W
HStem: 649 80<229 350 230 578>
DStem: 350 649 445 649 270 273 365 273 643 729 712 622 546 273 637 273 712 622 781 729 722 273 792 378 950 729 973 622 792 378 816 273 973 622 1087 729 899 273 990 273
Fore
445 649 m 1
 365 273 l 1
 270 273 l 1
 350 649 l 1
 213 649 l 1
 230 729 l 1
 595 729 l 1
 578 649 l 1
 445 649 l 1
816 273 m 1
 722 273 l 1
 712 622 l 1
 637 273 l 1
 546 273 l 1
 643 729 l 1
 781 729 l 1
 792 378 l 1
 950 729 l 1
 1087 729 l 1
 990 273 l 1
 899 273 l 1
 973 622 l 1
 816 273 l 1
EndSplineSet
Ligature: 0 1 'liga' T M
EndChar
StartChar: plusminus
Encoding: 404 177 298
Width: 584
Flags: W
HStem: 0 119<74 534> 332 120<145 303 447 605>
DStem: 303 332 422 332 268 170 387 170 367 633 486 633 328 452 447 452
Fore
630 452 m 1
 605 332 l 1
 422 332 l 1
 387 170 l 1
 268 170 l 1
 303 332 l 1
 121 332 l 1
 146 452 l 1
 328 452 l 1
 367 633 l 1
 486 633 l 1
 447 452 l 1
 630 452 l 1
559 119 m 1
 534 0 l 1
 50 0 l 1
 75 119 l 1
 559 119 l 1
EndSplineSet
EndChar
StartChar: onehalf
Encoding: 405 189 299
Width: 1055
Flags: W
HStem: 0 80<814 981> 362 72<897 919> 573 61<223 248.83> 689 20G<375 438>
VStem: 957 93<314 329>
DStem: 316 573 438 709 254 284 348 284 838 715 923 715 257 -20 342 -20
Fore
316 573 m 1
 210 573 l 1
 223 634 l 1
 301 634 351 659 375 709 c 1
 438 709 l 1
 348 284 l 1
 254 284 l 1
 316 573 l 1
838 715 m 1
 923 715 l 1
 342 -20 l 1
 257 -20 l 1
 838 715 l 1
998 80 m 1
 981 0 l 1
 675 0 l 1
 696 81 728 120 815 170 c 0
 885 211 905 225 925 244 c 0
 945 263 957 290 957 316 c 0
 957 345 938 362 905 362 c 0
 862 362 836 331 830 273 c 1
 739 273 l 1
 755 377 818 434 917 434 c 0
 1001 434 1050 395 1050 329 c 0
 1050 291 1036 255 1010 224 c 0
 990 202 967 184 915 153 c 0
 847 112 828 98 814 80 c 1
 998 80 l 1
EndSplineSet
Ligature: 0 1 'frac' one slash two
Ligature: 0 1 'frac' one fraction two
EndChar
StartChar: onequarter
Encoding: 406 188 300
Width: 1055
Flags: W
HStem: -20 21G<267 352> 93 73<779 868 977 1007> 573 61<223 248.83> 689 20G<375 438>
DStem: 316 573 438 709 254 284 348 284 848 715 933 715 267 -20 352 -20 868 93 961 93 848 0 942 0 919 332 1032 425 884 166 977 166 924 425 919 332 707 165 779 166
Fore
316 573 m 1
 210 573 l 1
 223 634 l 1
 301 634 351 659 375 709 c 1
 438 709 l 1
 348 284 l 1
 254 284 l 1
 316 573 l 1
848 715 m 1
 933 715 l 1
 352 -20 l 1
 267 -20 l 1
 848 715 l 1
1023 166 m 1
 1007 93 l 1
 961 93 l 1
 942 0 l 1
 848 0 l 1
 868 93 l 1
 691 93 l 1
 707 165 l 1
 924 425 l 1
 1032 425 l 1
 977 166 l 1
 1023 166 l 1
884 166 m 1
 919 332 l 1
 779 166 l 1
 884 166 l 1
EndSplineSet
Ligature: 0 1 'frac' one slash four
Ligature: 0 1 'frac' one fraction four
EndChar
StartChar: threequarters
Encoding: 407 190 301
Width: 1055
Flags: W
HStem: -20 21G<287 372> 93 73<779 868 977 1007> 271 78<278 298> 471 62<293 308> 646 72<338 362>
VStem: 147 93<378 396> 369 93<420 439> 390 100<606 625>
DStem: 868 715 953 715 287 -20 372 -20 868 93 961 93 848 0 942 0 868 715 953 715 287 -20 372 -20 868 93 961 93 848 0 942 0 868 715 953 715 287 -20 372 -20 868 93 961 93 848 0 942 0 868 715 953 715 287 -20 372 -20 868 93 961 93 848 0 942 0 868 715 953 715 287 -20 372 -20 868 93 961 93 848 0 942 0 868 715 953 715 287 -20 372 -20 868 93 961 93 848 0 942 0 868 715 953 715 287 -20 372 -20 868 93 961 93 848 0 942 0 868 715 953 715 287 -20 372 -20 919 332 1032 425 884 166 977 166 924 425 919 332 707 165 779 166
Fore
280 471 m 1xfe
 293 534 l 1
 297 533 302 533 303 533 c 0
 356 533 390 561 390 606 c 0
 390 630 372 646 345 646 c 0
 307 646 289 627 277 571 c 1
 190 571 l 1
 210 673 263 718 362 718 c 0
 443 718 490 684 490 625 c 0xfd
 490 579 466 541 419 512 c 1
 448 494 462 471 462 439 c 0
 462 340 387 271 278 271 c 0
 195 271 147 310 147 378 c 0
 147 390 148 398 151 414 c 1
 242 414 l 1
 240 406 240 402 240 396 c 0
 240 365 259 349 296 349 c 0
 336 349 369 382 369 422 c 0
 369 456 347 470 293 471 c 2
 280 471 l 1xfe
868 715 m 1
 953 715 l 1
 372 -20 l 1
 287 -20 l 1
 868 715 l 1
1023 166 m 1
 1007 93 l 1
 961 93 l 1
 942 0 l 1
 848 0 l 1
 868 93 l 1
 691 93 l 1
 707 165 l 1
 924 425 l 1
 1032 425 l 1
 977 166 l 1
 1023 166 l 1
884 166 m 1
 919 332 l 1
 779 166 l 1
 884 166 l 1
EndSplineSet
Ligature: 0 1 'frac' three slash four
Ligature: 0 1 'frac' three fraction four
EndChar
StartChar: commaaccent
Encoding: 408 63171 302
Width: 333
Flags: W
Fore
95 -60 m 1
 217 -60 l 1
 196 -156 l 1
 186 -234 119 -301 43 -307 c 1
 53 -261 l 1
 97 -253 132 -217 138 -172 c 1
 71 -172 l 1
 95 -60 l 1
EndSplineSet
EndChar
StartChar: copyright
Encoding: 409 169 303
Width: 737
Flags: W
HStem: -22 72<357 379> 128 83<390 413> 509 83<476 495> 671 72<501 535>
VStem: 54 80<279 307> 232 93<286 307> 554 93<431 464> 757 80<425 448>
Fore
644 431 m 1
 554 431 l 1
 554 485 531 509 478 509 c 0
 432 509 395 488 366 446 c 0
 341 408 325 353 325 305 c 0
 325 244 356 211 411 211 c 0
 468 211 508 241 526 297 c 1
 618 297 l 1
 590 192 504 128 390 128 c 0
 292 128 232 189 232 287 c 0
 232 362 259 444 302 498 c 0
 350 559 417 592 493 592 c 0
 586 592 647 541 647 464 c 0
 647 456 646 448 644 431 c 1
530 743 m 0
 707 743 837 615 837 440 c 0
 837 201 607 -22 360 -22 c 0
 184 -22 54 106 54 281 c 0
 54 520 284 743 530 743 c 0
514 671 m 0
 318 671 134 489 134 295 c 0
 134 154 237 50 377 50 c 0
 573 50 757 232 757 427 c 0
 757 568 654 671 514 671 c 0
EndSplineSet
EndChar
StartChar: registered
Encoding: 410 174 304
Width: 737
Flags: W
HStem: -22 72<354 379> 313 81<373 456> 502 80<317 516> 671 72<501 538>
VStem: 55 80<276 306> 480 100<168 182> 500 96<278 304> 553 101<469 493> 757 80<413 442>
DStem: 317 582 396 502 223 140 373 394 317 582 356 313 223 140 319 140
Fore
356 313 m 1xfa80
 319 140 l 1
 223 140 l 1
 317 582 l 1
 555 582 l 2
 621 582 654 552 654 493 c 0xf980
 654 429 621 382 557 353 c 1
 585 340 596 326 596 304 c 0xfa80
 596 287 593 266 581 195 c 1
 580 182 l 1
 580 173 583 167 592 161 c 1
 587 140 l 1
 485 140 l 1
 481 153 480 159 480 168 c 0xfc80
 480 183 485 213 494 247 c 0
 498 264 500 272 500 278 c 0
 500 302 483 313 447 313 c 2
 356 313 l 1xfa80
373 394 m 1
 475 394 l 2
 508 394 526 400 537 415 c 0
 546 426 553 450 553 469 c 0
 553 493 538 502 498 502 c 2
 396 502 l 1
 373 394 l 1
530 743 m 0
 708 743 837 615 837 440 c 0
 837 201 608 -22 361 -22 c 0
 185 -22 55 106 55 281 c 0
 55 520 284 743 530 743 c 0
514 671 m 0
 318 671 135 489 135 295 c 0
 135 154 237 50 377 50 c 0
 574 50 757 232 757 427 c 0
 757 568 654 671 514 671 c 0
EndSplineSet
EndChar
StartChar: lozenge
Encoding: 411 9674 305
Width: 489
Flags: W
HStem: 0 21G<208 270> 724 20G<366 428>
DStem: 95 372 158 372 208 0 252 60 366 744 385 684 95 372 158 372 385 684 428 744 479 372 541 372 479 372 541 372 252 60 270 0
Fore
428 744 m 1
 541 372 l 1
 270 0 l 1
 208 0 l 1
 95 372 l 1
 366 744 l 1
 428 744 l 1
252 60 m 1
 479 372 l 1
 385 684 l 1
 158 372 l 1
 252 60 l 1
EndSplineSet
EndChar
StartChar: Delta
Encoding: 412 8710 306
Width: 729
Flags: W
HStem: 0 125<230 721> 709 20G<444 590>
DStem: 444 729 483 564 8 0 230 125
Fore
8 0 m 1
 444 729 l 1
 590 729 l 1
 721 0 l 1
 8 0 l 1
230 125 m 1
 549 125 l 1
 483 564 l 1
 230 125 l 1
EndSplineSet
EndChar
StartChar: notequal
Encoding: 413 8800 307
Width: 584
Flags: W
HStem: 52 120<85 129 364 546> 292 120<136 313 549 597>
DStem: 313 292 457 292 220 172 364 172
Fore
129 52 m 1
 61 52 l 1
 86 172 l 1
 220 172 l 1
 313 292 l 1
 112 292 l 1
 137 412 l 1
 405 412 l 1
 507 544 l 1
 602 481 l 1
 549 412 l 1
 622 412 l 1
 597 292 l 1
 457 292 l 1
 364 172 l 1
 571 172 l 1
 546 52 l 1
 273 52 l 1
 176 -74 l 1
 81 -11 l 1
 129 52 l 1
EndSplineSet
Ligature: 0 1 'liga' equal uni0338
EndChar
StartChar: radical
Encoding: 414 8730 308
Width: 542
Flags: W
DStem: 217 461 265 521 352 -36 375 125 265 521 217 461 102 448 113 415 670 913 705 908 375 125 352 -36
Fore
670 913 m 1
 705 908 l 1
 352 -36 l 1
 217 461 l 1
 113 415 l 1
 102 448 l 1
 265 521 l 1
 375 125 l 1
 670 913 l 1
EndSplineSet
EndChar
StartChar: lessequal
Encoding: 415 8804 309
Width: 584
Flags: W
HStem: 0 104<56 524>
DStem: 104 322 290 382 554 140 582 271 657 624 629 495 129 443 290 382
Fore
546 104 m 1
 524 0 l 1
 35 0 l 1
 57 104 l 1
 546 104 l 1
657 624 m 1
 629 495 l 1
 290 382 l 1
 582 271 l 1
 554 140 l 1
 104 322 l 1
 129 443 l 1
 657 624 l 1
EndSplineSet
EndChar
StartChar: greaterequal
Encoding: 416 8805 310
Width: 584
Flags: W
HStem: 0 104<65 533>
DStem: 149 493 177 624 441 382 627 442 441 382 601 321 102 269 74 140
Fore
555 104 m 1
 533 0 l 1
 44 0 l 1
 66 104 l 1
 555 104 l 1
74 140 m 1
 102 269 l 1
 441 382 l 1
 149 493 l 1
 177 624 l 1
 627 442 l 1
 601 321 l 1
 74 140 l 1
EndSplineSet
EndChar
StartChar: logicalnot
Encoding: 417 172 311
Width: 584
Flags: W
HStem: 256 120<127 488>
DStem: 488 256 632 376 452 86 571 86
Fore
128 376 m 1
 632 376 l 1
 571 86 l 1
 452 86 l 1
 488 256 l 1
 103 256 l 1
 128 376 l 1
EndSplineSet
EndChar
StartChar: summation
Encoding: 418 8721 312
Width: 711
Flags: W
HStem: -88 105<159 539> 593 160<274 733> 707 46<274 615>
DStem: 163 760 326 707 411 309 520 352 411 309 520 352 -18 -92 159 17
Fore
760 753 m 1xa0
 733 593 l 1
 711 593 l 1xc0
 709 640 704 659 692 675 c 0
 676 697 642 707 588 707 c 2
 326 707 l 1xa0
 520 352 l 1
 159 17 l 1
 500 17 l 2
 563 17 585 22 610 39 c 0
 633 56 641 65 673 117 c 2
 681 130 l 1
 706 130 l 1
 662 37 647 -2 615 -97 c 1
 594 -91 567 -88 537 -88 c 2
 57 -88 l 2
 16 -88 16 -88 -18 -92 c 1
 411 309 l 1
 163 760 l 1
 203 755 233 753 274 753 c 2xc0
 760 753 l 1xa0
EndSplineSet
EndChar
StartChar: partialdiff
Encoding: 419 8706 313
Width: 490
Flags: W
HStem: -15 32<192 212> 365 43<218 256> 703 47<192 216>
VStem: 22 87<154 179> 378 80<405 455>
Fore
102 670 m 1
 62 722 l 1
 102 740 149 750 194 750 c 0
 347 750 458 605 458 405 c 0
 458 302 429 171 392 103 c 0
 349 26 287 -15 212 -15 c 0
 105 -15 22 70 22 179 c 0
 22 244 50 311 96 358 c 0
 130 392 169 408 218 408 c 0
 271 408 300 396 368 343 c 1
 376 403 378 426 378 455 c 0
 378 529 357 604 323 651 c 0
 299 685 260 703 214 703 c 0
 178 703 169 701 110 674 c 2
 102 670 l 1
361 304 m 1
 359 308 l 2
 336 343 296 365 256 365 c 0
 176 365 109 270 109 154 c 0
 109 68 142 17 198 17 c 0
 253 17 299 61 325 139 c 0
 340 182 348 216 361 304 c 1
EndSplineSet
EndChar
StartChar: brokenbar
Encoding: 420 166 314
Width: 280
Flags: W
HStem: 709 20G<255 335>
DStem: 140 189 220 189 57 -200 137 -200 255 729 335 729 172 340 252 340
Fore
335 729 m 1
 252 340 l 1
 172 340 l 1
 255 729 l 1
 335 729 l 1
220 189 m 1
 137 -200 l 1
 57 -200 l 1
 140 189 l 1
 220 189 l 1
EndSplineSet
EndChar
StartChar: mu
Encoding: 421 181 315
Width: 611
Flags: W
HStem: -23 122<291 315> 520 20G<173 313 515 655>
DStem: 173 540 313 540 11 -220 242 207 173 540 196 15 11 -220 146 -220 515 540 655 540 443 202 572 150
Fore
146 -220 m 1
 11 -220 l 1
 173 540 l 1
 313 540 l 1
 242 207 l 2
 238 188 235 170 235 161 c 0
 235 123 264 99 311 99 c 0
 378 99 430 139 443 202 c 1
 515 540 l 1
 655 540 l 1
 572 150 l 1
 568 129 565 111 565 100 c 0
 565 85 573 77 586 77 c 0
 593 77 597 78 607 81 c 1
 589 -5 l 1
 563 -18 543 -23 515 -23 c 0
 469 -23 448 -9 432 32 c 1
 384 -9 348 -23 291 -23 c 0
 246 -23 221 -13 196 15 c 1
 146 -220 l 1
EndSplineSet
EndChar
StartChar: afii10017
Encoding: 422 1040 316
Width: 722
Flags: W
HStem: 0 21G<26 179 550 703> 147 125<328 532> 709 20G<440 606>
DStem: 440 729 483 557 26 0 328 272 440 729 259 147 26 0 179 0 483 557 606 729 518 272 703 0 532 147 606 729 550 0 703 0
Fore
532 147 m 1
 259 147 l 1
 179 0 l 1
 26 0 l 1
 440 729 l 1
 606 729 l 1
 703 0 l 1
 550 0 l 5
 532 147 l 1
518 272 m 1
 483 557 l 1
 328 272 l 1
 518 272 l 1
EndSplineSet
EndChar
StartChar: afii10018
Encoding: 423 1041 317
Width: 722
Flags: W
HStem: 0 125<259 440> 314 125<325 499> 604 125<237 722>
VStem: 572 143<239 257>
DStem: 237 729 360 604 82 0 325 439 237 729 299 314 82 0 259 125
Fore
488 439 m 6
 674 439 715 330 715 252 c 4
 715 163 667 97 605 53 c 4
 553 16 494 0 410 0 c 6
 82 0 l 5
 237 729 l 5
 749 729 l 5
 722 604 l 5
 360 604 l 5
 325 439 l 5
 488 439 l 6
299 314 m 5
 259 125 l 5
 438 125 l 6
 519 125 572 174 572 245 c 4
 572 290 540 314 478 314 c 6
 299 314 l 5
EndSplineSet
EndChar
StartChar: afii10019
Encoding: 424 1042 318
Width: 723
Flags: W
HStem: 0 125<259 440> 314 125<326 499> 604 125<237 531>
VStem: 572 143<239 257> 615 148<542 571>
DStem: 237 729 361 604 82 0 326 439 237 729 299 314 82 0 259 125
Fore
82 0 m 1xf0
 237 729 l 1
 562 729 l 2
 640 729 688 713 723 676 c 0
 749 648 763 610 763 571 c 0xe8
 763 488 711 414 628 387 c 1
 696 360 715 302 715 247 c 0
 715 166 664 95 606 53 c 0
 554 16 494 0 410 0 c 2
 82 0 l 1xf0
361 604 m 1
 326 439 l 1
 489 439 l 2
 565 439 615 481 615 542 c 0
 615 583 583 604 524 604 c 2
 361 604 l 1
299 314 m 1
 259 125 l 1
 438 125 l 2
 519 125 572 174 572 245 c 0xf0
 572 290 540 314 478 314 c 2
 299 314 l 1
EndSplineSet
EndChar
StartChar: afii10020
Encoding: 425 1043 319
Width: 611
Flags: W
HStem: 0 21G<74 224> 604 125<229 714>
DStem: 229 729 352 604 74 0 224 0
Fore
224 0 m 5
 74 0 l 1
 229 729 l 5
 741 729 l 5
 714 604 l 5
 352 604 l 5
 224 0 l 5
EndSplineSet
EndChar
StartChar: afii10021
Encoding: 426 1044 320
Width: 918
Flags: W
HStem: 0 108<106 681> 0 125<304 681> 604 125<329 675>
DStem: 4 108 111 0 -50 -150 80 -150 329 729 453 604 272 461 412 414 675 604 851 729 573 125 719 108 681 0 834 108 650 -150 780 -150
Fore
106 108 m 6xa0
 159 108 229 255 272 461 c 6
 329 729 l 5
 851 729 l 5
 719 108 l 5
 834 108 l 5
 780 -150 l 5
 650 -150 l 5
 681 0 l 5
 111 0 l 5
 80 -150 l 5
 -50 -150 l 5
 4 108 l 5
 106 108 l 6xa0
304 125 m 5x60
 573 125 l 5
 675 604 l 5
 453 604 l 5
 412 414 l 6
 392 319 362 209 304 125 c 5x60
EndSplineSet
EndChar
StartChar: afii10022
Encoding: 427 1045 321
Width: 666
Flags: W
HStem: 0 125<256 624> 314 125<322 645> 604 125<234 734>
DStem: 234 729 357 604 79 0 322 439 234 729 296 314 79 0 256 125
Fore
296 314 m 1
 256 125 l 1
 651 125 l 1
 624 0 l 1
 79 0 l 1
 234 729 l 1
 761 729 l 1
 734 604 l 1
 357 604 l 1
 322 439 l 1
 671 439 l 1
 645 314 l 1
 296 314 l 1
EndSplineSet
EndChar
StartChar: afii10023
Encoding: 428 1025 322
Width: 666
Flags: W
HStem: 0 125<256 624> 314 125<322 645> 604 125<234 734> 800 122<392 477 578 663>
DStem: 234 729 357 604 79 0 322 439 234 729 296 314 79 0 256 125 393 922 503 922 367 800 477 800 579 922 689 922 553 800 663 800
Fore
296 314 m 1
 256 125 l 1
 651 125 l 1
 624 0 l 1
 79 0 l 1
 234 729 l 1
 761 729 l 1
 734 604 l 1
 357 604 l 1
 322 439 l 1
 671 439 l 1
 645 314 l 1
 296 314 l 1
503 922 m 1
 477 800 l 1
 367 800 l 1
 393 922 l 1
 503 922 l 1
689 922 m 1
 663 800 l 1
 553 800 l 1
 579 922 l 1
 689 922 l 1
EndSplineSet
Ligature: 0 1 'liga' afii10022 uni0308
EndChar
StartChar: afii10024
Encoding: 429 1046 323
Width: 1054
Flags: W
HStem: 0 21G<22 201 475 625 899 1078> 709 20G<221 385 630 780 1025 1189>
DStem: 221 729 385 729 459 378 571 450 459 378 536 285 22 0 201 0 536 285 686 285 475 0 625 0 630 729 780 729 571 450 721 450 686 285 801 378 899 0 1078 0 1025 729 1189 729 721 450 801 378
Fore
536 285 m 1
 201 0 l 1
 22 0 l 1
 459 378 l 1
 221 729 l 1
 385 729 l 1
 571 450 l 1
 630 729 l 1
 780 729 l 1
 721 450 l 1
 1025 729 l 1
 1189 729 l 1
 801 378 l 1
 1078 0 l 1
 899 0 l 1
 686 285 l 1
 625 0 l 1
 475 0 l 1
 536 285 l 1
EndSplineSet
EndChar
StartChar: afii10025
Encoding: 430 1047 324
Width: 659
Flags: W
HStem: -23 120<322 358> 621 120<450 482>
VStem: 67 148<170 197> 526 151<223 268> 572 144<542 571>
Fore
334 428 m 1xf0
 410 428 l 2
 522 428 572 483 572 542 c 0
 572 586 531 621 463 621 c 0
 368 621 307 581 286 507 c 1
 146 507 l 1
 160 574 184 618 229 658 c 0
 289 712 377 741 482 741 c 0
 633 741 716 680 716 571 c 0xe8
 716 487 674 413 617 377 c 1
 658 352 677 317 677 268 c 0
 677 56 519 -23 322 -23 c 0
 156 -23 67 46 67 170 c 0
 67 185 68 201 71 218 c 1
 217 218 l 1
 216 211 215 204 215 197 c 0
 215 132 268 97 356 97 c 0
 455 97 526 142 526 223 c 0
 526 270 496 308 411 308 c 2
 309 308 l 1
 334 428 l 1xf0
EndSplineSet
EndChar
StartChar: afii10026
Encoding: 431 1048 325
Width: 722
Flags: W
HStem: 0 21G<68 218 511 661> 709 20G<223 373 662 816>
DStem: 223 729 373 729 68 0 268 233 618 504 816 729 511 0 661 0 662 729 618 504 268 233 218 0
Fore
218 0 m 1
 68 0 l 1
 223 729 l 1
 373 729 l 1
 268 233 l 1
 662 729 l 1
 816 729 l 1
 661 0 l 1
 511 0 l 1
 618 504 l 1
 218 0 l 1
EndSplineSet
EndChar
StartChar: afii10028
Encoding: 433 1050 327
Width: 720
Flags: W
HStem: 0 21G<74 224 538 725> 709 20G<229 379 664 841>
DStem: 229 729 379 729 74 0 320 450 229 729 285 285 74 0 224 0 285 285 400 378 538 0 725 0 664 729 841 729 320 450 400 378
Fore
224 0 m 1
 74 0 l 1
 229 729 l 1
 379 729 l 1
 320 450 l 1
 664 729 l 1
 841 729 l 1
 400 378 l 1
 725 0 l 5
 538 0 l 1
 285 285 l 1
 224 0 l 1
EndSplineSet
EndChar
StartChar: afii10029
Encoding: 434 1051 328
Width: 722
Flags: W
HStem: 0 145<-31 -1> 604 125<212 558>
DStem: 212 729 336 604 156 461 296 414 558 604 734 729 430 0 580 0
Fore
558 604 m 1
 336 604 l 5
 296 414 l 6
 259 240 181 0 -31 0 c 5
 -1 145 l 5
 70 144 114 258 156 461 c 6
 212 729 l 5
 734 729 l 1
 580 0 l 1
 430 0 l 1
 558 604 l 1
EndSplineSet
EndChar
StartChar: afii10030
Encoding: 435 1052 329
Width: 843
Flags: W
HStem: 0 21G<68 218 349 499 628 778> 709 20G<223 447 707 933>
VStem: 339 108<149.168 264.777 455.25 567.844>
DStem: 223 729 339 568 68 0 218 0 339 568 447 729 349 0 456 149 707 729 749 568 456 149 499 0 749 568 933 729 628 0 778 0
Fore
339 568 m 1
 218 0 l 1
 68 0 l 1
 223 729 l 1
 447 729 l 1
 456 149 l 1
 707 729 l 1
 933 729 l 1
 778 0 l 1
 628 0 l 1
 749 568 l 1
 499 0 l 1
 349 0 l 1
 339 568 l 1
EndSplineSet
EndChar
